NotoSansMalayalam-SemiBold.ufo
<glyph name="exclam.mlym" format="2">
  <advance width="306"/>
  <unicode hex="0021"/>
  <outline>
    <contour>
      <point x="94" y="237" type="line"/>
      <point x="213" y="237" type="line"/>
      <point x="238" y="714" type="line"/>
      <point x="69" y="714" type="line"/>
    </contour>
    <contour>
      <point x="153" y="-13" type="curve" smooth="yes"/>
      <point x="199" y="-13"/>
      <point x="238" y="11"/>
      <point x="238" y="70" type="curve" smooth="yes"/>
      <point x="238" y="131"/>
      <point x="199" y="153"/>
      <point x="153" y="153" type="curve" smooth="yes"/>
      <point x="105" y="153"/>
      <point x="67" y="131"/>
      <point x="67" y="70" type="curve" smooth="yes"/>
      <point x="67" y="11"/>
      <point x="105" y="-13"/>
    </contour>
  </outline>
</glyph>
<glyph name="quotedbl.mlym" format="2">
  <advance width="479"/>
  <unicode hex="0022"/>
  <outline>
    <contour>
      <point x="88" y="542" type="line"/>
      <point x="185" y="542" type="line"/>
      <point x="205" y="800" type="line"/>
      <point x="68" y="800" type="line"/>
    </contour>
    <contour>
      <point x="294" y="542" type="line"/>
      <point x="391" y="542" type="line"/>
      <point x="411" y="800" type="line"/>
      <point x="274" y="800" type="line"/>
    </contour>
  </outline>
</glyph>
<glyph name="numbersign.mlym" format="2">
  <advance width="666"/>
  <unicode hex="0023"/>
  <outline>
    <contour>
      <point x="112" y="0" type="line"/>
      <point x="217" y="0" type="line"/>
      <point x="254" y="198" type="line"/>
      <point x="349" y="198" type="line"/>
      <point x="311" y="0" type="line"/>
      <point x="418" y="0" type="line"/>
      <point x="456" y="198" type="line"/>
      <point x="601" y="198" type="line"/>
      <point x="601" y="299" type="line"/>
      <point x="475" y="299" type="line"/>
      <point x="498" y="412" type="line"/>
      <point x="634" y="412" type="line"/>
      <point x="634" y="514" type="line"/>
      <point x="517" y="514" type="line"/>
      <point x="555" y="713" type="line"/>
      <point x="450" y="713" type="line"/>
      <point x="412" y="514" type="line"/>
      <point x="315" y="514" type="line"/>
      <point x="353" y="713" type="line"/>
      <point x="246" y="713" type="line"/>
      <point x="208" y="514" type="line"/>
      <point x="67" y="514" type="line"/>
      <point x="67" y="412" type="line"/>
      <point x="190" y="412" type="line"/>
      <point x="167" y="299" type="line"/>
      <point x="32" y="299" type="line"/>
      <point x="32" y="198" type="line"/>
      <point x="148" y="198" type="line"/>
    </contour>
    <contour>
      <point x="273" y="299" type="line"/>
      <point x="296" y="412" type="line"/>
      <point x="392" y="412" type="line"/>
      <point x="369" y="299" type="line"/>
    </contour>
  </outline>
</glyph>
<glyph name="parenleft.mlym" format="2">
  <advance width="339"/>
  <unicode hex="0028"/>
  <outline>
    <contour>
      <point x="39" y="282" type="curve" smooth="yes"/>
      <point x="39" y="100"/>
      <point x="88" y="-104"/>
      <point x="188" y="-244" type="curve"/>
      <point x="310" y="-244" type="line"/>
      <point x="219" y="-94"/>
      <point x="169" y="100"/>
      <point x="169" y="281" type="curve" smooth="yes"/>
      <point x="169" y="462"/>
      <point x="225" y="663"/>
      <point x="309" y="800" type="curve"/>
      <point x="188" y="800" type="line"/>
      <point x="92" y="673"/>
      <point x="39" y="459"/>
    </contour>
  </outline>
</glyph>
<glyph name="parenright.mlym" format="2">
  <advance width="339"/>
  <unicode hex="0029"/>
  <outline>
    <contour>
      <point x="300" y="274" type="curve" smooth="yes"/>
      <point x="300" y="456"/>
      <point x="251" y="660"/>
      <point x="151" y="800" type="curve"/>
      <point x="29" y="800" type="line"/>
      <point x="121" y="649"/>
      <point x="170" y="456"/>
      <point x="170" y="275" type="curve" smooth="yes"/>
      <point x="170" y="94"/>
      <point x="115" y="-107"/>
      <point x="30" y="-244" type="curve"/>
      <point x="151" y="-244" type="line"/>
      <point x="247" y="-118"/>
      <point x="300" y="97"/>
    </contour>
  </outline>
</glyph>
<glyph name="asterisk.mlym" format="2">
  <advance width="545"/>
  <unicode hex="002A"/>
  <outline>
    <contour>
      <point x="336" y="800" type="line"/>
      <point x="208" y="800" type="line"/>
      <point x="228" y="621" type="line"/>
      <point x="50" y="671" type="line"/>
      <point x="31" y="549" type="line"/>
      <point x="196" y="537" type="line"/>
      <point x="88" y="392" type="line"/>
      <point x="203" y="333" type="line"/>
      <point x="270" y="485" type="line"/>
      <point x="346" y="333" type="line"/>
      <point x="457" y="392" type="line"/>
      <point x="348" y="537" type="line"/>
      <point x="514" y="548" type="line"/>
      <point x="498" y="671" type="line"/>
      <point x="316" y="621" type="line"/>
    </contour>
  </outline>
</glyph>
<glyph name="seven.mlym" format="2">
  <advance width="572"/>
  <unicode hex="0037"/>
  <outline>
    <contour>
      <point x="111" y="0" type="line"/>
      <point x="269" y="0" type="line"/>
      <point x="539" y="618" type="line"/>
      <point x="539" y="713" type="line"/>
      <point x="27" y="713" type="line"/>
      <point x="27" y="586" type="line"/>
      <point x="379" y="586" type="line"/>
    </contour>
  </outline>
</glyph>
<glyph name="equal.mlym" format="2">
  <advance width="572"/>
  <unicode hex="003D"/>
  <outline>
    <contour>
      <point x="43" y="196" type="line"/>
      <point x="528" y="196" type="line"/>
      <point x="528" y="303" type="line"/>
      <point x="43" y="303" type="line"/>
    </contour>
    <contour>
      <point x="43" y="402" type="line"/>
      <point x="528" y="402" type="line"/>
      <point x="528" y="508" type="line"/>
      <point x="43" y="508" type="line"/>
    </contour>
  </outline>
</glyph>
<glyph name="greater.mlym" format="2">
  <advance width="572"/>
  <unicode hex="003E"/>
  <outline>
    <contour>
      <point x="43" y="99" type="line"/>
      <point x="528" y="313" type="line"/>
      <point x="528" y="383" type="line"/>
      <point x="43" y="625" type="line"/>
      <point x="43" y="508" type="line"/>
      <point x="377" y="353" type="line"/>
      <point x="43" y="216" type="line"/>
    </contour>
  </outline>
</glyph>
<glyph name="question.mlym" format="2">
  <advance width="469"/>
  <unicode hex="003F"/>
  <outline>
    <contour>
      <point x="242" y="724" type="curve" smooth="yes"/>
      <point x="158" y="724"/>
      <point x="104" y="709"/>
      <point x="37" y="676" type="curve"/>
      <point x="85" y="569" type="line"/>
      <point x="132" y="594"/>
      <point x="172" y="604"/>
      <point x="218" y="604" type="curve" smooth="yes"/>
      <point x="266" y="604"/>
      <point x="305" y="581"/>
      <point x="305" y="539" type="curve" smooth="yes"/>
      <point x="305" y="496"/>
      <point x="299" y="474"/>
      <point x="241" y="428" type="curve" smooth="yes"/>
      <point x="175" y="376"/>
      <point x="147" y="331"/>
      <point x="147" y="273" type="curve" smooth="yes"/>
      <point x="147" y="237" type="line"/>
      <point x="277" y="237" type="line"/>
      <point x="277" y="266" type="line" smooth="yes"/>
      <point x="277" y="294"/>
      <point x="295" y="316"/>
      <point x="349" y="366" type="curve" smooth="yes"/>
      <point x="419" y="432"/>
      <point x="446" y="465"/>
      <point x="446" y="547" type="curve" smooth="yes"/>
      <point x="446" y="650"/>
      <point x="378" y="724"/>
    </contour>
    <contour>
      <point x="218" y="-13" type="curve" smooth="yes"/>
      <point x="264" y="-13"/>
      <point x="303" y="11"/>
      <point x="303" y="70" type="curve" smooth="yes"/>
      <point x="303" y="131"/>
      <point x="264" y="153"/>
      <point x="218" y="153" type="curve" smooth="yes"/>
      <point x="170" y="153"/>
      <point x="132" y="131"/>
      <point x="132" y="70" type="curve" smooth="yes"/>
      <point x="132" y="11"/>
      <point x="170" y="-13"/>
    </contour>
  </outline>
</glyph>
<glyph name="bracketleft.mlym" format="2">
  <advance width="341"/>
  <unicode hex="005B"/>
  <outline>
    <contour>
      <point x="68" y="-244" type="line"/>
      <point x="305" y="-244" type="line"/>
      <point x="305" y="-141" type="line"/>
      <point x="195" y="-141" type="line"/>
      <point x="195" y="697" type="line"/>
      <point x="305" y="697" type="line"/>
      <point x="305" y="800" type="line"/>
      <point x="68" y="800" type="line"/>
    </contour>
  </outline>
</glyph>
<glyph name="backslash.mlym" format="2">
  <advance width="426"/>
  <unicode hex="005C"/>
  <outline>
    <contour>
      <point x="283" y="-244" type="line"/>
      <point x="409" y="-244" type="line"/>
      <point x="143" y="800" type="line"/>
      <point x="17" y="800" type="line"/>
    </contour>
  </outline>
</glyph>
<glyph name="bracketright.mlym" format="2">
  <advance width="341"/>
  <unicode hex="005D"/>
  <outline>
    <contour>
      <point x="36" y="-244" type="line"/>
      <point x="272" y="-244" type="line"/>
      <point x="272" y="800" type="line"/>
      <point x="36" y="800" type="line"/>
      <point x="36" y="697" type="line"/>
      <point x="146" y="697" type="line"/>
      <point x="146" y="-141" type="line"/>
      <point x="36" y="-141" type="line"/>
    </contour>
  </outline>
</glyph>
<glyph name="asciicircum.mlym" format="2">
  <advance width="626"/>
  <unicode hex="005E"/>
  <outline>
    <contour>
      <point x="31" y="254" type="line"/>
      <point x="146" y="254" type="line"/>
      <point x="302" y="568" type="line"/>
      <point x="479" y="254" type="line"/>
      <point x="596" y="254" type="line"/>
      <point x="334" y="718" type="line"/>
      <point x="264" y="718" type="line"/>
    </contour>
  </outline>
</glyph>
<glyph name="braceleft.mlym" format="2">
  <advance width="385"/>
  <unicode hex="007B"/>
  <outline>
    <contour>
      <point x="349" y="-244" type="curve"/>
      <point x="349" y="-134" type="line"/>
      <point x="296" y="-133"/>
      <point x="275" y="-106"/>
      <point x="275" y="-50" type="curve" smooth="yes"/>
      <point x="275" y="169" type="line" smooth="yes"/>
      <point x="275" y="230"/>
      <point x="235" y="266"/>
      <point x="161" y="277" type="curve"/>
      <point x="161" y="283" type="line"/>
      <point x="235" y="294"/>
      <point x="275" y="330"/>
      <point x="275" y="391" type="curve" smooth="yes"/>
      <point x="275" y="606" type="line" smooth="yes"/>
      <point x="275" y="662"/>
      <point x="296" y="689"/>
      <point x="349" y="690" type="curve"/>
      <point x="349" y="800" type="line"/>
      <point x="178" y="800"/>
      <point x="145" y="730"/>
      <point x="145" y="635" type="curve" smooth="yes"/>
      <point x="145" y="425" type="line" smooth="yes"/>
      <point x="145" y="362"/>
      <point x="101" y="338"/>
      <point x="24" y="338" type="curve"/>
      <point x="24" y="221" type="line"/>
      <point x="101" y="221"/>
      <point x="145" y="197"/>
      <point x="145" y="134" type="curve" smooth="yes"/>
      <point x="145" y="-79" type="line" smooth="yes"/>
      <point x="145" y="-175"/>
      <point x="178" y="-244"/>
    </contour>
  </outline>
</glyph>
<glyph name="bar.mlym" format="2">
  <advance width="551"/>
  <unicode hex="007C"/>
  <outline>
    <contour>
      <point x="222" y="-244" type="line"/>
      <point x="329" y="-244" type="line"/>
      <point x="329" y="800" type="line"/>
      <point x="222" y="800" type="line"/>
    </contour>
  </outline>
</glyph>
<glyph name="braceright.mlym" format="2">
  <advance width="385"/>
  <unicode hex="007D"/>
  <outline>
    <contour>
      <point x="36" y="800" type="curve"/>
      <point x="36" y="690" type="line"/>
      <point x="88" y="689"/>
      <point x="109" y="662"/>
      <point x="109" y="606" type="curve" smooth="yes"/>
      <point x="109" y="391" type="line" smooth="yes"/>
      <point x="109" y="330"/>
      <point x="149" y="294"/>
      <point x="224" y="283" type="curve"/>
      <point x="224" y="277" type="line"/>
      <point x="149" y="266"/>
      <point x="109" y="230"/>
      <point x="109" y="169" type="curve" smooth="yes"/>
      <point x="109" y="-50" type="line" smooth="yes"/>
      <point x="109" y="-106"/>
      <point x="88" y="-133"/>
      <point x="36" y="-134" type="curve"/>
      <point x="36" y="-244" type="line"/>
      <point x="207" y="-244"/>
      <point x="240" y="-175"/>
      <point x="240" y="-79" type="curve" smooth="yes"/>
      <point x="240" y="134" type="line" smooth="yes"/>
      <point x="240" y="197"/>
      <point x="284" y="221"/>
      <point x="360" y="221" type="curve"/>
      <point x="360" y="338" type="line"/>
      <point x="284" y="338"/>
      <point x="240" y="362"/>
      <point x="240" y="425" type="curve" smooth="yes"/>
      <point x="240" y="635" type="line" smooth="yes"/>
      <point x="240" y="730"/>
      <point x="207" y="800"/>
    </contour>
  </outline>
</glyph>
<glyph name="asciitilde.mlym" format="2">
  <advance width="572"/>
  <unicode hex="007E"/>
  <outline>
    <contour>
      <point x="268" y="301" type="curve"/>
      <point x="331" y="275"/>
      <point x="364" y="270"/>
      <point x="403" y="270" type="curve" smooth="yes"/>
      <point x="454" y="270"/>
      <point x="495" y="288"/>
      <point x="528" y="323" type="curve"/>
      <point x="528" y="436" type="line"/>
      <point x="495" y="403"/>
      <point x="452" y="377"/>
      <point x="414" y="377" type="curve" smooth="yes"/>
      <point x="384" y="377"/>
      <point x="352" y="383"/>
      <point x="303" y="404" type="curve" smooth="yes"/>
      <point x="240" y="430"/>
      <point x="207" y="435"/>
      <point x="168" y="435" type="curve" smooth="yes"/>
      <point x="117" y="435"/>
      <point x="76" y="417"/>
      <point x="43" y="382" type="curve"/>
      <point x="43" y="269" type="line"/>
      <point x="76" y="302"/>
      <point x="118" y="328"/>
      <point x="161" y="328" type="curve" smooth="yes"/>
      <point x="187" y="328"/>
      <point x="214" y="324"/>
    </contour>
  </outline>
</glyph>
<glyph name="uni0307" format="2">
  <unicode hex="0307"/>
  <outline>
    <contour>
      <point x="-353" y="701" type="curve" smooth="yes"/>
      <point x="-353" y="648"/>
      <point x="-320" y="631"/>
      <point x="-278" y="631" type="curve" smooth="yes"/>
      <point x="-237" y="631"/>
      <point x="-203" y="648"/>
      <point x="-203" y="701" type="curve" smooth="yes"/>
      <point x="-203" y="753"/>
      <point x="-237" y="771"/>
      <point x="-278" y="771" type="curve" smooth="yes"/>
      <point x="-320" y="771"/>
      <point x="-353" y="753"/>
    </contour>
  </outline>
</glyph>
<glyph name="uni0323" format="2">
  <unicode hex="0323"/>
  <outline>
    <contour>
      <point x="-353" y="-136" type="curve" smooth="yes"/>
      <point x="-353" y="-188"/>
      <point x="-320" y="-206"/>
      <point x="-278" y="-206" type="curve" smooth="yes"/>
      <point x="-237" y="-206"/>
      <point x="-203" y="-188"/>
      <point x="-203" y="-136" type="curve" smooth="yes"/>
      <point x="-203" y="-83"/>
      <point x="-237" y="-66"/>
      <point x="-278" y="-66" type="curve" smooth="yes"/>
      <point x="-320" y="-66"/>
      <point x="-353" y="-83"/>
    </contour>
  </outline>
</glyph>
<glyph name="dbldanda.mlym" format="2">
  <advance width="681"/>
  <unicode hex="0965"/>
  <outline>
    <contour>
      <point x="452" y="-49" type="line"/>
      <point x="601" y="-49" type="line"/>
      <point x="601" y="603" type="line"/>
      <point x="452" y="603" type="line"/>
    </contour>
    <contour>
      <point x="158" y="-49" type="line"/>
      <point x="308" y="-49" type="line"/>
      <point x="308" y="603" type="line"/>
      <point x="158" y="603" type="line"/>
    </contour>
  </outline>
</glyph>
<glyph name="candrabindumlym" format="2">
  <unicode hex="0D01"/>
  <outline>
    <contour>
      <point x="-278" y="636" type="curve" smooth="yes"/>
      <point x="-150" y="636"/>
      <point x="-83" y="701"/>
      <point x="-83" y="806" type="curve" smooth="yes"/>
      <point x="-83" y="828"/>
      <point x="-86" y="847"/>
      <point x="-90" y="863" type="curve"/>
      <point x="-183" y="845" type="line"/>
      <point x="-179" y="831"/>
      <point x="-178" y="820"/>
      <point x="-178" y="810" type="curve" smooth="yes"/>
      <point x="-178" y="741"/>
      <point x="-229" y="726"/>
      <point x="-278" y="726" type="curve" smooth="yes"/>
      <point x="-332" y="726"/>
      <point x="-378" y="743"/>
      <point x="-378" y="808" type="curve" smooth="yes"/>
      <point x="-378" y="819"/>
      <point x="-377" y="831"/>
      <point x="-373" y="845" type="curve"/>
      <point x="-465" y="864" type="line"/>
      <point x="-470" y="848"/>
      <point x="-473" y="831"/>
      <point x="-473" y="804" type="curve" smooth="yes"/>
      <point x="-473" y="701"/>
      <point x="-408" y="636"/>
    </contour>
    <contour>
      <point x="-279" y="752" type="curve" smooth="yes"/>
      <point x="-234" y="752"/>
      <point x="-217" y="774"/>
      <point x="-217" y="807" type="curve" smooth="yes"/>
      <point x="-217" y="838"/>
      <point x="-234" y="862"/>
      <point x="-279" y="862" type="curve" smooth="yes"/>
      <point x="-324" y="862"/>
      <point x="-340" y="838"/>
      <point x="-340" y="807" type="curve" smooth="yes"/>
      <point x="-340" y="774"/>
      <point x="-324" y="752"/>
    </contour>
  </outline>
</glyph>
<glyph name="anusvaramlym" format="2">
  <advance width="502"/>
  <unicode hex="0D02"/>
  <outline>
    <contour>
      <point x="251" y="-12" type="curve" smooth="yes"/>
      <point x="381" y="-12"/>
      <point x="473" y="63"/>
      <point x="473" y="180" type="curve" smooth="yes"/>
      <point x="473" y="298"/>
      <point x="381" y="372"/>
      <point x="250" y="372" type="curve" smooth="yes"/>
      <point x="121" y="372"/>
      <point x="29" y="294"/>
      <point x="29" y="180" type="curve" smooth="yes"/>
      <point x="29" y="67"/>
      <point x="114" y="-12"/>
    </contour>
    <contour>
      <point x="250" y="270" type="curve" smooth="yes"/>
      <point x="300" y="270"/>
      <point x="337" y="240"/>
      <point x="337" y="180" type="curve" smooth="yes"/>
      <point x="337" y="119"/>
      <point x="299" y="90"/>
      <point x="251" y="90" type="curve" smooth="yes"/>
      <point x="202" y="90"/>
      <point x="165" y="121"/>
      <point x="165" y="179" type="curve" smooth="yes"/>
      <point x="165" y="240"/>
      <point x="202" y="270"/>
    </contour>
  </outline>
</glyph>
<glyph name="visargamlym" format="2">
  <advance width="367"/>
  <unicode hex="0D03"/>
  <outline>
    <contour>
      <point x="30" y="438" type="curve" smooth="yes"/>
      <point x="30" y="361"/>
      <point x="90" y="302"/>
      <point x="183" y="302" type="curve" smooth="yes"/>
      <point x="277" y="302"/>
      <point x="337" y="361"/>
      <point x="337" y="438" type="curve" smooth="yes"/>
      <point x="337" y="516"/>
      <point x="276" y="574"/>
      <point x="183" y="574" type="curve" smooth="yes"/>
      <point x="91" y="574"/>
      <point x="30" y="515"/>
    </contour>
    <contour>
      <point x="130" y="439" type="curve" smooth="yes"/>
      <point x="130" y="468"/>
      <point x="149" y="489"/>
      <point x="183" y="489" type="curve" smooth="yes"/>
      <point x="217" y="489"/>
      <point x="237" y="468"/>
      <point x="237" y="439" type="curve" smooth="yes"/>
      <point x="237" y="410"/>
      <point x="219" y="387"/>
      <point x="183" y="387" type="curve" smooth="yes"/>
      <point x="148" y="387"/>
      <point x="130" y="410"/>
    </contour>
    <contour>
      <point x="30" y="124" type="curve" smooth="yes"/>
      <point x="30" y="47"/>
      <point x="90" y="-12"/>
      <point x="183" y="-12" type="curve" smooth="yes"/>
      <point x="277" y="-12"/>
      <point x="337" y="47"/>
      <point x="337" y="124" type="curve" smooth="yes"/>
      <point x="337" y="201"/>
      <point x="276" y="260"/>
      <point x="183" y="260" type="curve" smooth="yes"/>
      <point x="91" y="260"/>
      <point x="30" y="201"/>
    </contour>
    <contour>
      <point x="130" y="125" type="curve" smooth="yes"/>
      <point x="130" y="153"/>
      <point x="149" y="175"/>
      <point x="183" y="175" type="curve" smooth="yes"/>
      <point x="217" y="175"/>
      <point x="237" y="153"/>
      <point x="237" y="125" type="curve" smooth="yes"/>
      <point x="237" y="95"/>
      <point x="219" y="73"/>
      <point x="183" y="73" type="curve" smooth="yes"/>
      <point x="148" y="73"/>
      <point x="130" y="95"/>
    </contour>
  </outline>
</glyph>
<glyph name="amlym" format="2">
  <advance width="1658"/>
  <unicode hex="0D05"/>
  <outline>
    <contour>
      <point x="404" y="574" type="curve" smooth="yes"/>
      <point x="128" y="574"/>
      <point x="37" y="425"/>
      <point x="37" y="281" type="curve" smooth="yes"/>
      <point x="37" y="144"/>
      <point x="101" y="61"/>
      <point x="191" y="-12" type="curve"/>
      <point x="289" y="64" type="line"/>
      <point x="221" y="129"/>
      <point x="187" y="188"/>
      <point x="187" y="281" type="curve" smooth="yes"/>
      <point x="187" y="393"/>
      <point x="256" y="473"/>
      <point x="413" y="473" type="curve" smooth="yes"/>
      <point x="459" y="473"/>
      <point x="501" y="468"/>
      <point x="533" y="461" type="curve"/>
      <point x="628" y="444"/>
      <point x="658" y="409"/>
      <point x="658" y="371" type="curve" smooth="yes"/>
      <point x="658" y="334"/>
      <point x="634" y="308"/>
      <point x="568" y="308" type="curve" smooth="yes"/>
      <point x="549" y="308" type="line"/>
      <point x="549" y="204" type="line"/>
      <point x="576" y="204" type="line" smooth="yes"/>
      <point x="639" y="204"/>
      <point x="669" y="182"/>
      <point x="669" y="148" type="curve" smooth="yes"/>
      <point x="669" y="110"/>
      <point x="641" y="91"/>
      <point x="584" y="91" type="curve" smooth="yes"/>
      <point x="508" y="91"/>
      <point x="466" y="133"/>
      <point x="466" y="240" type="curve" smooth="yes"/>
      <point x="466" y="319"/>
      <point x="508" y="428"/>
      <point x="629" y="460" type="curve" smooth="yes"/>
      <point x="655" y="467"/>
      <point x="695" y="473"/>
      <point x="736" y="473" type="curve" smooth="yes"/>
      <point x="791" y="473"/>
      <point x="827" y="462"/>
      <point x="858" y="438" type="curve"/>
      <point x="903" y="402"/>
      <point x="915" y="351"/>
      <point x="915" y="250" type="curve" smooth="yes"/>
      <point x="915" y="0" type="line"/>
      <point x="1063" y="0" type="line"/>
      <point x="1063" y="220" type="line"/>
      <point x="1002" y="473" type="line"/>
      <point x="944" y="532"/>
      <point x="876" y="574"/>
      <point x="738" y="574" type="curve" smooth="yes"/>
      <point x="661" y="574"/>
      <point x="589" y="559"/>
      <point x="534" y="534" type="curve" smooth="yes"/>
      <point x="525" y="531"/>
      <point x="518" y="526"/>
      <point x="510" y="522" type="curve" smooth="yes"/>
      <point x="380" y="453"/>
      <point x="328" y="352"/>
      <point x="328" y="238" type="curve" smooth="yes"/>
      <point x="328" y="98"/>
      <point x="403" y="-12"/>
      <point x="589" y="-12" type="curve" smooth="yes"/>
      <point x="754" y="-12"/>
      <point x="811" y="58"/>
      <point x="811" y="138" type="curve" smooth="yes"/>
      <point x="811" y="200"/>
      <point x="771" y="241"/>
      <point x="710" y="265" type="curve"/>
      <point x="712" y="255" type="line"/>
      <point x="776" y="285"/>
      <point x="800" y="321"/>
      <point x="800" y="373" type="curve" smooth="yes"/>
      <point x="800" y="438"/>
      <point x="747" y="483"/>
      <point x="684" y="508" type="curve"/>
      <point x="672" y="514"/>
      <point x="662" y="524"/>
      <point x="649" y="529" type="curve"/>
      <point x="573" y="561"/>
      <point x="483" y="574"/>
    </contour>
    <contour>
      <point x="1379" y="-12" type="curve" smooth="yes"/>
      <point x="1529" y="-12"/>
      <point x="1622" y="65"/>
      <point x="1622" y="237" type="curve" smooth="yes"/>
      <point x="1622" y="423"/>
      <point x="1494" y="574"/>
      <point x="1256" y="574" type="curve" smooth="yes"/>
      <point x="1106" y="574"/>
      <point x="1034" y="527"/>
      <point x="976" y="471" type="curve"/>
      <point x="1063" y="211" type="line"/>
      <point x="1063" y="244" type="line" smooth="yes"/>
      <point x="1063" y="363"/>
      <point x="1085" y="405"/>
      <point x="1122" y="433" type="curve" smooth="yes"/>
      <point x="1156" y="459"/>
      <point x="1191" y="467"/>
      <point x="1250" y="467" type="curve" smooth="yes"/>
      <point x="1389" y="467"/>
      <point x="1460" y="400"/>
      <point x="1473" y="327" type="curve"/>
      <point x="1476" y="322"/>
      <point x="1470" y="313"/>
      <point x="1472" y="307" type="curve"/>
      <point x="1476" y="284"/>
      <point x="1478" y="258"/>
      <point x="1478" y="239" type="curve" smooth="yes"/>
      <point x="1478" y="137"/>
      <point x="1443" y="93"/>
      <point x="1386" y="93" type="curve" smooth="yes"/>
      <point x="1328" y="93"/>
      <point x="1303" y="137"/>
      <point x="1303" y="202" type="curve" smooth="yes"/>
      <point x="1303" y="269"/>
      <point x="1330" y="310"/>
      <point x="1395" y="310" type="curve" smooth="yes"/>
      <point x="1458" y="310"/>
      <point x="1501" y="257"/>
      <point x="1513" y="207" type="curve"/>
      <point x="1568" y="204" type="line"/>
      <point x="1561" y="307"/>
      <point x="1478" y="410"/>
      <point x="1359" y="410" type="curve" smooth="yes"/>
      <point x="1230" y="410"/>
      <point x="1160" y="327"/>
      <point x="1160" y="206" type="curve" smooth="yes"/>
      <point x="1160" y="88"/>
      <point x="1223" y="-12"/>
    </contour>
  </outline>
</glyph>
<glyph name="aamlym" format="2">
  <advance width="1831"/>
  <unicode hex="0D06"/>
  <outline>
    <contour>
      <point x="404" y="574" type="curve" smooth="yes"/>
      <point x="128" y="574"/>
      <point x="37" y="425"/>
      <point x="37" y="281" type="curve" smooth="yes"/>
      <point x="37" y="144"/>
      <point x="101" y="61"/>
      <point x="191" y="-12" type="curve"/>
      <point x="289" y="64" type="line"/>
      <point x="221" y="129"/>
      <point x="187" y="188"/>
      <point x="187" y="281" type="curve" smooth="yes"/>
      <point x="187" y="393"/>
      <point x="256" y="473"/>
      <point x="413" y="473" type="curve" smooth="yes"/>
      <point x="459" y="473"/>
      <point x="501" y="468"/>
      <point x="533" y="461" type="curve"/>
      <point x="628" y="444"/>
      <point x="658" y="409"/>
      <point x="658" y="371" type="curve" smooth="yes"/>
      <point x="658" y="334"/>
      <point x="634" y="308"/>
      <point x="568" y="308" type="curve" smooth="yes"/>
      <point x="549" y="308" type="line"/>
      <point x="549" y="204" type="line"/>
      <point x="576" y="204" type="line" smooth="yes"/>
      <point x="639" y="204"/>
      <point x="669" y="182"/>
      <point x="669" y="148" type="curve" smooth="yes"/>
      <point x="669" y="110"/>
      <point x="641" y="91"/>
      <point x="584" y="91" type="curve" smooth="yes"/>
      <point x="508" y="91"/>
      <point x="466" y="133"/>
      <point x="466" y="240" type="curve" smooth="yes"/>
      <point x="466" y="319"/>
      <point x="508" y="428"/>
      <point x="629" y="460" type="curve" smooth="yes"/>
      <point x="655" y="467"/>
      <point x="695" y="473"/>
      <point x="736" y="473" type="curve" smooth="yes"/>
      <point x="791" y="473"/>
      <point x="827" y="462"/>
      <point x="858" y="438" type="curve" smooth="yes"/>
      <point x="903" y="402"/>
      <point x="915" y="351"/>
      <point x="915" y="250" type="curve" smooth="yes"/>
      <point x="915" y="0" type="line"/>
      <point x="1063" y="0" type="line"/>
      <point x="1063" y="220" type="line"/>
      <point x="1002" y="473" type="line"/>
      <point x="944" y="532"/>
      <point x="876" y="574"/>
      <point x="738" y="574" type="curve" smooth="yes"/>
      <point x="661" y="574"/>
      <point x="589" y="559"/>
      <point x="534" y="534" type="curve"/>
      <point x="525" y="531"/>
      <point x="518" y="526"/>
      <point x="510" y="522" type="curve" smooth="yes"/>
      <point x="380" y="453"/>
      <point x="328" y="352"/>
      <point x="328" y="238" type="curve" smooth="yes"/>
      <point x="328" y="98"/>
      <point x="403" y="-12"/>
      <point x="589" y="-12" type="curve" smooth="yes"/>
      <point x="754" y="-12"/>
      <point x="811" y="58"/>
      <point x="811" y="138" type="curve" smooth="yes"/>
      <point x="811" y="200"/>
      <point x="771" y="241"/>
      <point x="710" y="265" type="curve"/>
      <point x="712" y="255" type="line"/>
      <point x="776" y="285"/>
      <point x="800" y="321"/>
      <point x="800" y="373" type="curve" smooth="yes"/>
      <point x="800" y="438"/>
      <point x="747" y="483"/>
      <point x="684" y="508" type="curve"/>
      <point x="672" y="514"/>
      <point x="662" y="524"/>
      <point x="649" y="529" type="curve" smooth="yes"/>
      <point x="573" y="561"/>
      <point x="483" y="574"/>
    </contour>
    <contour>
      <point x="1244" y="574" type="curve" smooth="yes"/>
      <point x="1107" y="574"/>
      <point x="1031" y="527"/>
      <point x="975" y="470" type="curve"/>
      <point x="1063" y="211" type="line"/>
      <point x="1063" y="242" type="line" smooth="yes"/>
      <point x="1063" y="363"/>
      <point x="1084" y="405"/>
      <point x="1121" y="433" type="curve" smooth="yes"/>
      <point x="1155" y="459"/>
      <point x="1191" y="467"/>
      <point x="1237" y="467" type="curve" smooth="yes"/>
      <point x="1326" y="467"/>
      <point x="1390" y="436"/>
      <point x="1424" y="378" type="curve"/>
      <point x="1432" y="355" type="line"/>
      <point x="1447" y="320"/>
      <point x="1455" y="277"/>
      <point x="1455" y="230" type="curve" smooth="yes"/>
      <point x="1455" y="131"/>
      <point x="1424" y="91"/>
      <point x="1363" y="91" type="curve" smooth="yes"/>
      <point x="1309" y="91"/>
      <point x="1284" y="129"/>
      <point x="1284" y="179" type="curve" smooth="yes"/>
      <point x="1284" y="253"/>
      <point x="1332" y="300"/>
      <point x="1439" y="300" type="curve" smooth="yes"/>
      <point x="1467" y="300"/>
      <point x="1494" y="297"/>
      <point x="1516" y="291" type="curve"/>
      <point x="1554" y="284" type="line"/>
      <point x="1620" y="253"/>
      <point x="1663" y="197"/>
      <point x="1663" y="100" type="curve" smooth="yes"/>
      <point x="1663" y="8"/>
      <point x="1620" y="-93"/>
      <point x="1458" y="-93" type="curve" smooth="yes"/>
      <point x="1402" y="-93"/>
      <point x="1366" y="-87"/>
      <point x="1323" y="-72" type="curve"/>
      <point x="1282" y="-174" type="line"/>
      <point x="1332" y="-191"/>
      <point x="1395" y="-201"/>
      <point x="1463" y="-201" type="curve" smooth="yes"/>
      <point x="1706" y="-201"/>
      <point x="1804" y="-63"/>
      <point x="1804" y="100" type="curve" smooth="yes"/>
      <point x="1804" y="249"/>
      <point x="1707" y="368"/>
      <point x="1540" y="394" type="curve"/>
      <point x="1504" y="398" type="line"/>
      <point x="1485" y="400"/>
      <point x="1464" y="401"/>
      <point x="1429" y="401" type="curve" smooth="yes"/>
      <point x="1248" y="401"/>
      <point x="1141" y="320"/>
      <point x="1141" y="182" type="curve" smooth="yes"/>
      <point x="1141" y="73"/>
      <point x="1213" y="-12"/>
      <point x="1357" y="-12" type="curve" smooth="yes"/>
      <point x="1509" y="-12"/>
      <point x="1594" y="62"/>
      <point x="1594" y="229" type="curve" smooth="yes"/>
      <point x="1594" y="269"/>
      <point x="1590" y="306"/>
      <point x="1581" y="341" type="curve"/>
      <point x="1551" y="476"/>
      <point x="1428" y="574"/>
    </contour>
  </outline>
</glyph>
<glyph name="imlym" format="2">
  <advance width="1056"/>
  <unicode hex="0D07"/>
  <outline>
    <contour>
      <point x="363" y="574" type="curve" smooth="yes"/>
      <point x="163" y="574"/>
      <point x="37" y="464"/>
      <point x="37" y="321" type="curve" smooth="yes"/>
      <point x="37" y="201"/>
      <point x="116" y="126"/>
      <point x="231" y="126" type="curve" smooth="yes"/>
      <point x="367" y="126"/>
      <point x="425" y="200"/>
      <point x="425" y="284" type="curve" smooth="yes"/>
      <point x="425" y="362"/>
      <point x="375" y="430"/>
      <point x="258" y="430" type="curve" smooth="yes"/>
      <point x="175" y="430"/>
      <point x="83" y="371"/>
      <point x="45" y="325" type="curve"/>
      <point x="126" y="315" type="line"/>
      <point x="158" y="329"/>
      <point x="185" y="344"/>
      <point x="229" y="344" type="curve" smooth="yes"/>
      <point x="270" y="344"/>
      <point x="290" y="318"/>
      <point x="290" y="283" type="curve" smooth="yes"/>
      <point x="290" y="247"/>
      <point x="272" y="219"/>
      <point x="229" y="219" type="curve" smooth="yes"/>
      <point x="183" y="219"/>
      <point x="157" y="254"/>
      <point x="157" y="309" type="curve" smooth="yes"/>
      <point x="157" y="329"/>
      <point x="159" y="343"/>
      <point x="161" y="354" type="curve" smooth="yes"/>
      <point x="163" y="365"/>
      <point x="166" y="378"/>
      <point x="171" y="388" type="curve" smooth="yes"/>
      <point x="200" y="444"/>
      <point x="266" y="470"/>
      <point x="348" y="470" type="curve" smooth="yes"/>
      <point x="406" y="470"/>
      <point x="441" y="459"/>
      <point x="465" y="438" type="curve" smooth="yes"/>
      <point x="493" y="415"/>
      <point x="509" y="376"/>
      <point x="509" y="300" type="curve" smooth="yes"/>
      <point x="509" y="146" type="line"/>
      <point x="654" y="146" type="line"/>
      <point x="654" y="317" type="line" smooth="yes"/>
      <point x="654" y="388"/>
      <point x="660" y="416"/>
      <point x="678" y="438" type="curve" smooth="yes"/>
      <point x="694" y="459"/>
      <point x="719" y="468"/>
      <point x="745" y="468" type="curve" smooth="yes"/>
      <point x="837" y="468"/>
      <point x="870" y="382"/>
      <point x="870" y="302" type="curve" smooth="yes"/>
      <point x="870" y="247"/>
      <point x="861" y="199"/>
      <point x="827" y="164" type="curve" smooth="yes"/>
      <point x="791" y="127"/>
      <point x="742" y="105"/>
      <point x="599" y="105" type="curve" smooth="yes"/>
      <point x="284" y="105" type="line" smooth="yes"/>
      <point x="191" y="105"/>
      <point x="145" y="92"/>
      <point x="110" y="71" type="curve" smooth="yes"/>
      <point x="65" y="43"/>
      <point x="44" y="0"/>
      <point x="44" y="-51" type="curve" smooth="yes"/>
      <point x="44" y="-101"/>
      <point x="66" y="-140"/>
      <point x="107" y="-166" type="curve" smooth="yes"/>
      <point x="144" y="-189"/>
      <point x="205" y="-201"/>
      <point x="283" y="-201" type="curve" smooth="yes"/>
      <point x="1000" y="-201" type="line"/>
      <point x="1000" y="-94" type="line"/>
      <point x="302" y="-94" type="line" smooth="yes"/>
      <point x="244" y="-94"/>
      <point x="224" y="-89"/>
      <point x="210" y="-81" type="curve" smooth="yes"/>
      <point x="197" y="-72"/>
      <point x="192" y="-60"/>
      <point x="192" y="-45" type="curve" smooth="yes"/>
      <point x="192" y="-30"/>
      <point x="198" y="-18"/>
      <point x="215" y="-10" type="curve" smooth="yes"/>
      <point x="228" y="-3"/>
      <point x="247" y="0"/>
      <point x="305" y="0" type="curve" smooth="yes"/>
      <point x="652" y="0" type="line" smooth="yes"/>
      <point x="788" y="0"/>
      <point x="861" y="21"/>
      <point x="917" y="62" type="curve" smooth="yes"/>
      <point x="986" y="114"/>
      <point x="1019" y="190"/>
      <point x="1019" y="311" type="curve" smooth="yes"/>
      <point x="1019" y="444"/>
      <point x="939" y="574"/>
      <point x="765" y="574" type="curve" smooth="yes"/>
      <point x="689" y="574"/>
      <point x="616" y="552"/>
      <point x="568" y="489" type="curve"/>
      <point x="608" y="482" type="line"/>
      <point x="558" y="532"/>
      <point x="491" y="574"/>
    </contour>
  </outline>
</glyph>
<glyph name="umlym" format="2">
  <advance width="760"/>
  <unicode hex="0D09"/>
  <outline>
    <contour>
      <point x="378" y="574" type="curve" smooth="yes"/>
      <point x="159" y="574"/>
      <point x="37" y="457"/>
      <point x="37" y="320" type="curve" smooth="yes"/>
      <point x="37" y="201"/>
      <point x="116" y="126"/>
      <point x="231" y="126" type="curve" smooth="yes"/>
      <point x="367" y="126"/>
      <point x="425" y="200"/>
      <point x="425" y="284" type="curve" smooth="yes"/>
      <point x="425" y="362"/>
      <point x="375" y="430"/>
      <point x="258" y="430" type="curve" smooth="yes"/>
      <point x="175" y="430"/>
      <point x="83" y="371"/>
      <point x="45" y="325" type="curve"/>
      <point x="126" y="315" type="line"/>
      <point x="157" y="329"/>
      <point x="185" y="344"/>
      <point x="229" y="344" type="curve" smooth="yes"/>
      <point x="270" y="344"/>
      <point x="290" y="318"/>
      <point x="290" y="283" type="curve" smooth="yes"/>
      <point x="290" y="247"/>
      <point x="272" y="219"/>
      <point x="229" y="219" type="curve" smooth="yes"/>
      <point x="184" y="219"/>
      <point x="157" y="254"/>
      <point x="157" y="309" type="curve" smooth="yes"/>
      <point x="157" y="333"/>
      <point x="159" y="345"/>
      <point x="162" y="356" type="curve" smooth="yes"/>
      <point x="163" y="360"/>
      <point x="161" y="363"/>
      <point x="163" y="367" type="curve"/>
      <point x="185" y="438"/>
      <point x="261" y="469"/>
      <point x="366" y="469" type="curve" smooth="yes"/>
      <point x="529" y="469"/>
      <point x="575" y="371"/>
      <point x="575" y="294" type="curve" smooth="yes"/>
      <point x="575" y="239"/>
      <point x="564" y="197"/>
      <point x="537" y="167" type="curve" smooth="yes"/>
      <point x="497" y="123"/>
      <point x="432" y="105"/>
      <point x="286" y="105" type="curve" smooth="yes"/>
      <point x="284" y="105" type="line" smooth="yes"/>
      <point x="191" y="105"/>
      <point x="145" y="92"/>
      <point x="110" y="71" type="curve" smooth="yes"/>
      <point x="65" y="43"/>
      <point x="44" y="0"/>
      <point x="44" y="-51" type="curve" smooth="yes"/>
      <point x="44" y="-101"/>
      <point x="66" y="-140"/>
      <point x="107" y="-166" type="curve" smooth="yes"/>
      <point x="144" y="-189"/>
      <point x="205" y="-201"/>
      <point x="283" y="-201" type="curve" smooth="yes"/>
      <point x="704" y="-201" type="line"/>
      <point x="704" y="-94" type="line"/>
      <point x="302" y="-94" type="line" smooth="yes"/>
      <point x="244" y="-94"/>
      <point x="224" y="-89"/>
      <point x="210" y="-81" type="curve" smooth="yes"/>
      <point x="197" y="-72"/>
      <point x="192" y="-60"/>
      <point x="192" y="-45" type="curve" smooth="yes"/>
      <point x="192" y="-30"/>
      <point x="198" y="-18"/>
      <point x="215" y="-10" type="curve" smooth="yes"/>
      <point x="228" y="-3"/>
      <point x="247" y="0"/>
      <point x="305" y="0" type="curve" smooth="yes"/>
      <point x="320" y="0" type="line" smooth="yes"/>
      <point x="472" y="0"/>
      <point x="566" y="20"/>
      <point x="638" y="80" type="curve" smooth="yes"/>
      <point x="695" y="127"/>
      <point x="724" y="198"/>
      <point x="724" y="295" type="curve" smooth="yes"/>
      <point x="724" y="428"/>
      <point x="638" y="574"/>
    </contour>
  </outline>
</glyph>
<glyph name="rvocalicmlym" format="2">
  <advance width="1010"/>
  <unicode hex="0D0B"/>
  <outline>
    <contour>
      <point x="744" y="574" type="curve" smooth="yes"/>
      <point x="605" y="574"/>
      <point x="535" y="493"/>
      <point x="535" y="397" type="curve" smooth="yes"/>
      <point x="535" y="286"/>
      <point x="608" y="226"/>
      <point x="732" y="226" type="curve" smooth="yes"/>
      <point x="827" y="226"/>
      <point x="900" y="285"/>
      <point x="933" y="322" type="curve"/>
      <point x="900" y="427" type="line"/>
      <point x="867" y="377"/>
      <point x="831" y="322"/>
      <point x="758" y="322" type="curve" smooth="yes"/>
      <point x="710" y="322"/>
      <point x="677" y="346"/>
      <point x="677" y="400" type="curve" smooth="yes"/>
      <point x="677" y="447"/>
      <point x="706" y="474"/>
      <point x="750" y="474" type="curve" smooth="yes"/>
      <point x="807" y="474"/>
      <point x="841" y="429"/>
      <point x="841" y="355" type="curve" smooth="yes"/>
      <point x="841" y="330"/>
      <point x="837" y="308"/>
      <point x="832" y="289" type="curve"/>
      <point x="841" y="275" type="line"/>
      <point x="803" y="176"/>
      <point x="648" y="167"/>
      <point x="546" y="167" type="curve" smooth="yes"/>
      <point x="465" y="167" type="line" smooth="yes"/>
      <point x="353" y="167"/>
      <point x="207" y="181"/>
      <point x="171" y="275" type="curve"/>
      <point x="180" y="290" type="line"/>
      <point x="174" y="309"/>
      <point x="170" y="332"/>
      <point x="170" y="357" type="curve" smooth="yes"/>
      <point x="170" y="429"/>
      <point x="204" y="474"/>
      <point x="262" y="474" type="curve" smooth="yes"/>
      <point x="305" y="474"/>
      <point x="335" y="447"/>
      <point x="335" y="400" type="curve" smooth="yes"/>
      <point x="335" y="346"/>
      <point x="301" y="322"/>
      <point x="253" y="322" type="curve" smooth="yes"/>
      <point x="180" y="322"/>
      <point x="144" y="377"/>
      <point x="111" y="427" type="curve"/>
      <point x="78" y="322" type="line"/>
      <point x="111" y="285"/>
      <point x="184" y="226"/>
      <point x="279" y="226" type="curve" smooth="yes"/>
      <point x="403" y="226"/>
      <point x="477" y="286"/>
      <point x="477" y="397" type="curve" smooth="yes"/>
      <point x="477" y="493"/>
      <point x="409" y="574"/>
      <point x="272" y="574" type="curve" smooth="yes"/>
      <point x="127" y="574"/>
      <point x="34" y="489"/>
      <point x="34" y="341" type="curve" smooth="yes"/>
      <point x="34" y="242"/>
      <point x="83" y="163"/>
      <point x="167" y="115" type="curve" smooth="yes"/>
      <point x="226" y="80"/>
      <point x="302" y="61"/>
      <point x="390" y="61" type="curve" smooth="yes"/>
      <point x="624" y="61" type="line" smooth="yes"/>
      <point x="717" y="61"/>
      <point x="797" y="83"/>
      <point x="857" y="122" type="curve" smooth="yes"/>
      <point x="932" y="170"/>
      <point x="976" y="246"/>
      <point x="976" y="341" type="curve" smooth="yes"/>
      <point x="976" y="495"/>
      <point x="886" y="574"/>
    </contour>
    <contour>
      <point x="510" y="-249" type="curve" smooth="yes"/>
      <point x="794" y="-249"/>
      <point x="903" y="-172"/>
      <point x="903" y="-46" type="curve" smooth="yes"/>
      <point x="903" y="89"/>
      <point x="757" y="131"/>
      <point x="568" y="131" type="curve" smooth="yes"/>
      <point x="438" y="131" type="line" smooth="yes"/>
      <point x="259" y="131"/>
      <point x="108" y="87"/>
      <point x="108" y="-43" type="curve" smooth="yes"/>
      <point x="108" y="-191"/>
      <point x="241" y="-249"/>
    </contour>
    <contour>
      <point x="508" y="-140" type="curve" smooth="yes"/>
      <point x="326" y="-140"/>
      <point x="258" y="-109"/>
      <point x="258" y="-39" type="curve" smooth="yes"/>
      <point x="258" y="41"/>
      <point x="365" y="60"/>
      <point x="494" y="60" type="curve" smooth="yes"/>
      <point x="519" y="60" type="line" smooth="yes"/>
      <point x="634" y="60"/>
      <point x="753" y="47"/>
      <point x="753" y="-40" type="curve" smooth="yes"/>
      <point x="753" y="-106"/>
      <point x="685" y="-140"/>
    </contour>
  </outline>
</glyph>
<glyph name="lvocalicmlym" format="2">
  <advance width="1298"/>
  <unicode hex="0D0C"/>
  <outline>
    <contour>
      <point x="399" y="574" type="curve" smooth="yes"/>
      <point x="196" y="574"/>
      <point x="37" y="457"/>
      <point x="37" y="242" type="curve" smooth="yes"/>
      <point x="37" y="62"/>
      <point x="146" y="-12"/>
      <point x="267" y="-12" type="curve" smooth="yes"/>
      <point x="395" y="-12"/>
      <point x="469" y="58"/>
      <point x="469" y="174" type="curve" smooth="yes"/>
      <point x="469" y="279"/>
      <point x="405" y="347"/>
      <point x="291" y="347" type="curve" smooth="yes"/>
      <point x="208" y="347"/>
      <point x="141" y="306"/>
      <point x="104" y="267" type="curve"/>
      <point x="116" y="168" type="line"/>
      <point x="161" y="219"/>
      <point x="206" y="247"/>
      <point x="255" y="247" type="curve" smooth="yes"/>
      <point x="304" y="247"/>
      <point x="327" y="217"/>
      <point x="327" y="167" type="curve" smooth="yes"/>
      <point x="327" y="115"/>
      <point x="304" y="88"/>
      <point x="262" y="88" type="curve" smooth="yes"/>
      <point x="211" y="88"/>
      <point x="172" y="125"/>
      <point x="172" y="237" type="curve" smooth="yes"/>
      <point x="172" y="240" type="line" smooth="yes"/>
      <point x="172" y="390"/>
      <point x="268" y="468"/>
      <point x="396" y="468" type="curve" smooth="yes"/>
      <point x="454" y="468"/>
      <point x="486" y="455"/>
      <point x="511" y="433" type="curve" smooth="yes"/>
      <point x="539" y="409"/>
      <point x="556" y="371"/>
      <point x="556" y="269" type="curve" smooth="yes"/>
      <point x="556" y="0" type="line"/>
      <point x="703" y="0" type="line"/>
      <point x="703" y="225" type="line"/>
      <point x="681" y="398" type="line"/>
      <point x="658" y="473" type="line"/>
      <point x="594" y="540"/>
      <point x="519" y="574"/>
    </contour>
    <contour>
      <point x="1019" y="-12" type="curve" smooth="yes"/>
      <point x="1169" y="-12"/>
      <point x="1262" y="65"/>
      <point x="1262" y="237" type="curve" smooth="yes"/>
      <point x="1262" y="423"/>
      <point x="1134" y="574"/>
      <point x="896" y="574" type="curve" smooth="yes"/>
      <point x="746" y="574"/>
      <point x="674" y="527"/>
      <point x="616" y="471" type="curve"/>
      <point x="703" y="211" type="line"/>
      <point x="703" y="244" type="line" smooth="yes"/>
      <point x="703" y="363"/>
      <point x="725" y="405"/>
      <point x="762" y="433" type="curve" smooth="yes"/>
      <point x="796" y="459"/>
      <point x="831" y="467"/>
      <point x="890" y="467" type="curve" smooth="yes"/>
      <point x="1029" y="467"/>
      <point x="1100" y="400"/>
      <point x="1113" y="327" type="curve"/>
      <point x="1116" y="322"/>
      <point x="1110" y="313"/>
      <point x="1112" y="307" type="curve"/>
      <point x="1116" y="284"/>
      <point x="1118" y="258"/>
      <point x="1118" y="239" type="curve" smooth="yes"/>
      <point x="1118" y="137"/>
      <point x="1083" y="93"/>
      <point x="1026" y="93" type="curve" smooth="yes"/>
      <point x="968" y="93"/>
      <point x="943" y="137"/>
      <point x="943" y="202" type="curve" smooth="yes"/>
      <point x="943" y="269"/>
      <point x="970" y="310"/>
      <point x="1035" y="310" type="curve" smooth="yes"/>
      <point x="1098" y="310"/>
      <point x="1141" y="257"/>
      <point x="1153" y="207" type="curve"/>
      <point x="1208" y="204" type="line"/>
      <point x="1201" y="307"/>
      <point x="1118" y="410"/>
      <point x="999" y="410" type="curve" smooth="yes"/>
      <point x="870" y="410"/>
      <point x="800" y="327"/>
      <point x="800" y="206" type="curve" smooth="yes"/>
      <point x="800" y="88"/>
      <point x="863" y="-12"/>
    </contour>
  </outline>
</glyph>
<glyph name="emlym" format="2">
  <advance width="1395"/>
  <unicode hex="0D0E"/>
  <outline>
    <contour>
      <point x="265" y="362" type="curve" smooth="yes"/>
      <point x="125" y="362"/>
      <point x="29" y="286"/>
      <point x="29" y="170" type="curve" smooth="yes"/>
      <point x="29" y="97"/>
      <point x="57" y="42"/>
      <point x="106" y="-12" type="curve"/>
      <point x="220" y="44" type="line"/>
      <point x="198" y="75"/>
      <point x="175" y="107"/>
      <point x="175" y="162" type="curve" smooth="yes"/>
      <point x="175" y="216"/>
      <point x="204" y="258"/>
      <point x="266" y="258" type="curve" smooth="yes"/>
      <point x="326" y="258"/>
      <point x="355" y="215"/>
      <point x="355" y="161" type="curve" smooth="yes"/>
      <point x="355" y="114"/>
      <point x="337" y="80"/>
      <point x="321" y="58" type="curve"/>
      <point x="373" y="0" type="line"/>
      <point x="940" y="0" type="line"/>
      <point x="948" y="105" type="line"/>
      <point x="458" y="105" type="line"/>
      <point x="470" y="69" type="line"/>
      <point x="482" y="94"/>
      <point x="498" y="129"/>
      <point x="498" y="171" type="curve" smooth="yes"/>
      <point x="498" y="264"/>
      <point x="426" y="362"/>
    </contour>
    <contour>
      <point x="989" y="574" type="curve" smooth="yes"/>
      <point x="731" y="574"/>
      <point x="609" y="385"/>
      <point x="609" y="143" type="curve" smooth="yes"/>
      <point x="609" y="-108"/>
      <point x="705" y="-228"/>
      <point x="863" y="-228" type="curve" smooth="yes"/>
      <point x="927" y="-228"/>
      <point x="972" y="-212"/>
      <point x="1001" y="-185" type="curve" smooth="yes"/>
      <point x="1033" y="-155"/>
      <point x="1048" y="-116"/>
      <point x="1048" y="-46" type="curve" smooth="yes"/>
      <point x="1048" y="389" type="line"/>
      <point x="901" y="389" type="line"/>
      <point x="901" y="-69" type="line" smooth="yes"/>
      <point x="901" y="-92"/>
      <point x="898" y="-105"/>
      <point x="892" y="-113" type="curve" smooth="yes"/>
      <point x="885" y="-122"/>
      <point x="875" y="-127"/>
      <point x="859" y="-127" type="curve" smooth="yes"/>
      <point x="809" y="-127"/>
      <point x="770" y="-90"/>
      <point x="761" y="23" type="curve"/>
      <point x="761" y="32"/>
      <point x="761" y="37"/>
      <point x="761" y="45" type="curve"/>
      <point x="758" y="73"/>
      <point x="757" y="106"/>
      <point x="757" y="143" type="curve" smooth="yes"/>
      <point x="757" y="336"/>
      <point x="830" y="470"/>
      <point x="987" y="470" type="curve" smooth="yes"/>
      <point x="1146" y="470"/>
      <point x="1200" y="328"/>
      <point x="1200" y="168" type="curve" smooth="yes"/>
      <point x="1200" y="42"/>
      <point x="1170" y="-62"/>
      <point x="1096" y="-161" type="curve"/>
      <point x="1206" y="-228" type="line"/>
      <point x="1297" y="-116"/>
      <point x="1353" y="5"/>
      <point x="1353" y="167" type="curve" smooth="yes"/>
      <point x="1353" y="421"/>
      <point x="1231" y="574"/>
    </contour>
  </outline>
</glyph>
<glyph name="eemlym" format="2">
  <advance width="1410"/>
  <unicode hex="0D0F"/>
  <outline>
    <contour>
      <point x="265" y="362" type="curve" smooth="yes"/>
      <point x="125" y="362"/>
      <point x="29" y="286"/>
      <point x="29" y="170" type="curve" smooth="yes"/>
      <point x="29" y="97"/>
      <point x="57" y="42"/>
      <point x="106" y="-12" type="curve"/>
      <point x="220" y="44" type="line"/>
      <point x="198" y="75"/>
      <point x="175" y="107"/>
      <point x="175" y="162" type="curve" smooth="yes"/>
      <point x="175" y="216"/>
      <point x="204" y="258"/>
      <point x="266" y="258" type="curve" smooth="yes"/>
      <point x="326" y="258"/>
      <point x="355" y="215"/>
      <point x="355" y="161" type="curve" smooth="yes"/>
      <point x="355" y="114"/>
      <point x="337" y="80"/>
      <point x="321" y="58" type="curve"/>
      <point x="373" y="0" type="line"/>
      <point x="940" y="0" type="line"/>
      <point x="941" y="105" type="line"/>
      <point x="448" y="105" type="line"/>
      <point x="470" y="69" type="line"/>
      <point x="482" y="94"/>
      <point x="498" y="129"/>
      <point x="498" y="171" type="curve" smooth="yes"/>
      <point x="498" y="264"/>
      <point x="426" y="362"/>
    </contour>
    <contour>
      <point x="1036" y="574" type="curve" smooth="yes"/>
      <point x="754" y="574"/>
      <point x="609" y="400"/>
      <point x="609" y="146" type="curve" smooth="yes"/>
      <point x="609" y="-108"/>
      <point x="705" y="-228"/>
      <point x="863" y="-228" type="curve" smooth="yes"/>
      <point x="927" y="-228"/>
      <point x="972" y="-212"/>
      <point x="1001" y="-185" type="curve" smooth="yes"/>
      <point x="1033" y="-155"/>
      <point x="1048" y="-116"/>
      <point x="1048" y="-46" type="curve" smooth="yes"/>
      <point x="1048" y="389" type="line"/>
      <point x="901" y="389" type="line"/>
      <point x="901" y="-69" type="line" smooth="yes"/>
      <point x="901" y="-92"/>
      <point x="898" y="-105"/>
      <point x="892" y="-113" type="curve" smooth="yes"/>
      <point x="885" y="-122"/>
      <point x="875" y="-127"/>
      <point x="859" y="-127" type="curve" smooth="yes"/>
      <point x="809" y="-127"/>
      <point x="770" y="-90"/>
      <point x="761" y="23" type="curve"/>
      <point x="761" y="31"/>
      <point x="761" y="38"/>
      <point x="761" y="45" type="curve"/>
      <point x="758" y="73"/>
      <point x="757" y="106"/>
      <point x="757" y="143" type="curve" smooth="yes"/>
      <point x="757" y="332"/>
      <point x="834" y="467"/>
      <point x="1031" y="467" type="curve" smooth="yes"/>
      <point x="1171" y="467"/>
      <point x="1221" y="399"/>
      <point x="1221" y="328" type="curve" smooth="yes"/>
      <point x="1221" y="246"/>
      <point x="1180" y="208"/>
      <point x="1107" y="190" type="curve"/>
      <point x="1107" y="87" type="line"/>
      <point x="1191" y="87"/>
      <point x="1231" y="40"/>
      <point x="1231" y="-23" type="curve" smooth="yes"/>
      <point x="1231" y="-86"/>
      <point x="1205" y="-123"/>
      <point x="1134" y="-123" type="curve" smooth="yes"/>
      <point x="1124" y="-123"/>
      <point x="1102" y="-121"/>
      <point x="1087" y="-116" type="curve"/>
      <point x="1071" y="-220" type="line"/>
      <point x="1092" y="-225"/>
      <point x="1135" y="-228"/>
      <point x="1163" y="-228" type="curve" smooth="yes"/>
      <point x="1290" y="-228"/>
      <point x="1380" y="-166"/>
      <point x="1380" y="-28" type="curve" smooth="yes"/>
      <point x="1380" y="61"/>
      <point x="1338" y="114"/>
      <point x="1257" y="151" type="curve"/>
      <point x="1258" y="141" type="line"/>
      <point x="1317" y="177"/>
      <point x="1370" y="237"/>
      <point x="1370" y="335" type="curve" smooth="yes"/>
      <point x="1370" y="457"/>
      <point x="1280" y="574"/>
    </contour>
  </outline>
</glyph>
<glyph name="omlym" format="2">
  <advance width="837"/>
  <unicode hex="0D12"/>
  <outline>
    <contour>
      <point x="494" y="574" type="curve" smooth="yes"/>
      <point x="224" y="574"/>
      <point x="37" y="453"/>
      <point x="37" y="238" type="curve" smooth="yes"/>
      <point x="37" y="66"/>
      <point x="142" y="-12"/>
      <point x="267" y="-12" type="curve" smooth="yes"/>
      <point x="395" y="-12"/>
      <point x="469" y="58"/>
      <point x="469" y="174" type="curve" smooth="yes"/>
      <point x="469" y="279"/>
      <point x="405" y="347"/>
      <point x="289" y="347" type="curve" smooth="yes"/>
      <point x="205" y="347"/>
      <point x="141" y="306"/>
      <point x="104" y="267" type="curve"/>
      <point x="116" y="168" type="line"/>
      <point x="161" y="219"/>
      <point x="206" y="247"/>
      <point x="255" y="247" type="curve" smooth="yes"/>
      <point x="304" y="247"/>
      <point x="327" y="217"/>
      <point x="327" y="167" type="curve" smooth="yes"/>
      <point x="327" y="115"/>
      <point x="304" y="88"/>
      <point x="262" y="88" type="curve" smooth="yes"/>
      <point x="211" y="88"/>
      <point x="172" y="124"/>
      <point x="172" y="237" type="curve" smooth="yes"/>
      <point x="172" y="250" type="line" smooth="yes"/>
      <point x="172" y="398"/>
      <point x="317" y="467"/>
      <point x="484" y="467" type="curve" smooth="yes"/>
      <point x="600" y="467"/>
      <point x="645" y="442"/>
      <point x="645" y="394" type="curve" smooth="yes"/>
      <point x="645" y="377"/>
      <point x="639" y="364"/>
      <point x="629" y="354" type="curve" smooth="yes"/>
      <point x="609" y="336"/>
      <point x="588" y="330"/>
      <point x="531" y="330" type="curve" smooth="yes"/>
      <point x="514" y="330" type="line"/>
      <point x="514" y="226" type="line"/>
      <point x="533" y="226" type="line" smooth="yes"/>
      <point x="590" y="226"/>
      <point x="615" y="218"/>
      <point x="632" y="205" type="curve" smooth="yes"/>
      <point x="649" y="192"/>
      <point x="657" y="175"/>
      <point x="657" y="156" type="curve" smooth="yes"/>
      <point x="657" y="111"/>
      <point x="634" y="93"/>
      <point x="576" y="93" type="curve" smooth="yes"/>
      <point x="547" y="93"/>
      <point x="522" y="98"/>
      <point x="503" y="103" type="curve"/>
      <point x="485" y="0" type="line"/>
      <point x="514" y="-6"/>
      <point x="549" y="-12"/>
      <point x="602" y="-12" type="curve" smooth="yes"/>
      <point x="735" y="-12"/>
      <point x="804" y="46"/>
      <point x="804" y="144" type="curve" smooth="yes"/>
      <point x="804" y="209"/>
      <point x="769" y="258"/>
      <point x="696" y="283" type="curve"/>
      <point x="698" y="278" type="line"/>
      <point x="767" y="309"/>
      <point x="793" y="354"/>
      <point x="793" y="409" type="curve" smooth="yes"/>
      <point x="793" y="504"/>
      <point x="716" y="574"/>
    </contour>
  </outline>
</glyph>
<glyph name="kamlym" format="2">
  <advance width="1151"/>
  <unicode hex="0D15"/>
  <outline>
    <contour>
      <point x="231" y="-12" type="curve" smooth="yes"/>
      <point x="315" y="-12"/>
      <point x="368" y="1"/>
      <point x="435" y="45" type="curve"/>
      <point x="373" y="137" type="line"/>
      <point x="328" y="102"/>
      <point x="290" y="92"/>
      <point x="256" y="92" type="curve" smooth="yes"/>
      <point x="197" y="92"/>
      <point x="170" y="115"/>
      <point x="170" y="164" type="curve" smooth="yes"/>
      <point x="170" y="191"/>
      <point x="184" y="210"/>
      <point x="202" y="222" type="curve" smooth="yes"/>
      <point x="229" y="239"/>
      <point x="259" y="242"/>
      <point x="322" y="242" type="curve" smooth="yes"/>
      <point x="818" y="242" type="line" smooth="yes"/>
      <point x="884" y="242"/>
      <point x="917" y="240"/>
      <point x="945" y="222" type="curve" smooth="yes"/>
      <point x="965" y="210"/>
      <point x="979" y="191"/>
      <point x="979" y="161" type="curve" smooth="yes"/>
      <point x="979" y="117"/>
      <point x="953" y="93"/>
      <point x="906" y="93" type="curve" smooth="yes"/>
      <point x="886" y="93"/>
      <point x="866" y="97"/>
      <point x="852" y="101" type="curve"/>
      <point x="827" y="0" type="line"/>
      <point x="857" y="-8"/>
      <point x="885" y="-12"/>
      <point x="917" y="-12" type="curve" smooth="yes"/>
      <point x="1036" y="-12"/>
      <point x="1122" y="48"/>
      <point x="1122" y="161" type="curve" smooth="yes"/>
      <point x="1122" y="227"/>
      <point x="1094" y="270"/>
      <point x="1053" y="298" type="curve" smooth="yes"/>
      <point x="998" y="335"/>
      <point x="929" y="347"/>
      <point x="806" y="347" type="curve" smooth="yes"/>
      <point x="358" y="347" type="line" smooth="yes"/>
      <point x="221" y="347"/>
      <point x="166" y="335"/>
      <point x="114" y="305" type="curve" smooth="yes"/>
      <point x="63" y="276"/>
      <point x="29" y="227"/>
      <point x="29" y="161" type="curve" smooth="yes"/>
      <point x="29" y="53"/>
      <point x="100" y="-12"/>
    </contour>
    <contour>
      <point x="580" y="574" type="curve" smooth="yes"/>
      <point x="406" y="574"/>
      <point x="306" y="463"/>
      <point x="306" y="283" type="curve" smooth="yes"/>
      <point x="306" y="195"/>
      <point x="329" y="119"/>
      <point x="376" y="66" type="curve" smooth="yes"/>
      <point x="421" y="17"/>
      <point x="493" y="-12"/>
      <point x="581" y="-12" type="curve" smooth="yes"/>
      <point x="752" y="-12"/>
      <point x="852" y="92"/>
      <point x="852" y="283" type="curve" smooth="yes"/>
      <point x="852" y="451"/>
      <point x="771" y="574"/>
    </contour>
    <contour>
      <point x="580" y="469" type="curve" smooth="yes"/>
      <point x="664" y="469"/>
      <point x="708" y="405"/>
      <point x="708" y="282" type="curve" smooth="yes"/>
      <point x="708" y="159"/>
      <point x="663" y="93"/>
      <point x="579" y="93" type="curve" smooth="yes"/>
      <point x="493" y="93"/>
      <point x="450" y="161"/>
      <point x="450" y="282" type="curve" smooth="yes"/>
      <point x="450" y="403"/>
      <point x="492" y="469"/>
    </contour>
  </outline>
</glyph>
<glyph name="khamlym" format="2">
  <advance width="1107"/>
  <unicode hex="0D16"/>
  <outline>
    <contour>
      <point x="419" y="574" type="curve" smooth="yes"/>
      <point x="188" y="574"/>
      <point x="37" y="442"/>
      <point x="37" y="243" type="curve" smooth="yes"/>
      <point x="37" y="63"/>
      <point x="146" y="-12"/>
      <point x="268" y="-12" type="curve" smooth="yes"/>
      <point x="395" y="-12"/>
      <point x="469" y="58"/>
      <point x="469" y="174" type="curve" smooth="yes"/>
      <point x="469" y="279"/>
      <point x="405" y="347"/>
      <point x="289" y="347" type="curve" smooth="yes"/>
      <point x="205" y="347"/>
      <point x="141" y="306"/>
      <point x="104" y="267" type="curve"/>
      <point x="116" y="168" type="line"/>
      <point x="161" y="219"/>
      <point x="206" y="247"/>
      <point x="255" y="247" type="curve" smooth="yes"/>
      <point x="304" y="247"/>
      <point x="327" y="217"/>
      <point x="327" y="166" type="curve" smooth="yes"/>
      <point x="327" y="115"/>
      <point x="304" y="88"/>
      <point x="262" y="88" type="curve" smooth="yes"/>
      <point x="211" y="88"/>
      <point x="172" y="124"/>
      <point x="172" y="237" type="curve" smooth="yes"/>
      <point x="172" y="241" type="line" smooth="yes"/>
      <point x="172" y="370"/>
      <point x="263" y="467"/>
      <point x="404" y="467" type="curve" smooth="yes"/>
      <point x="526" y="467"/>
      <point x="602" y="398"/>
      <point x="602" y="279" type="curve" smooth="yes"/>
      <point x="602" y="180"/>
      <point x="559" y="124"/>
      <point x="508" y="61" type="curve"/>
      <point x="552" y="0" type="line"/>
      <point x="614" y="0" type="line"/>
      <point x="631" y="22" type="line"/>
      <point x="699" y="100"/>
      <point x="751" y="164"/>
      <point x="751" y="287" type="curve" smooth="yes"/>
      <point x="751" y="445"/>
      <point x="645" y="574"/>
    </contour>
    <contour>
      <point x="1044" y="562" type="line"/>
      <point x="897" y="562" type="line"/>
      <point x="897" y="105" type="line"/>
      <point x="650" y="105" type="line"/>
      <point x="593" y="0" type="line"/>
      <point x="1044" y="0" type="line"/>
    </contour>
  </outline>
</glyph>
<glyph name="gamlym" format="2">
  <advance width="975"/>
  <unicode hex="0D17"/>
  <outline>
    <contour>
      <point x="664" y="574" type="curve" smooth="yes"/>
      <point x="571" y="574"/>
      <point x="519" y="548"/>
      <point x="480" y="509" type="curve" smooth="yes"/>
      <point x="433" y="462"/>
      <point x="412" y="395"/>
      <point x="412" y="301" type="curve" smooth="yes"/>
      <point x="412" y="271" type="line" smooth="yes"/>
      <point x="412" y="199"/>
      <point x="407" y="161"/>
      <point x="390" y="134" type="curve" smooth="yes"/>
      <point x="374" y="108"/>
      <point x="348" y="95"/>
      <point x="306" y="95" type="curve" smooth="yes"/>
      <point x="239" y="95"/>
      <point x="186" y="145"/>
      <point x="186" y="271" type="curve" smooth="yes"/>
      <point x="186" y="352"/>
      <point x="212" y="422"/>
      <point x="281" y="499" type="curve"/>
      <point x="179" y="575" type="line"/>
      <point x="88" y="489"/>
      <point x="37" y="396"/>
      <point x="37" y="264" type="curve" smooth="yes"/>
      <point x="37" y="96"/>
      <point x="145" y="-12"/>
      <point x="312" y="-12" type="curve" smooth="yes"/>
      <point x="400" y="-12"/>
      <point x="463" y="12"/>
      <point x="503" y="55" type="curve" smooth="yes"/>
      <point x="546" y="102"/>
      <point x="562" y="171"/>
      <point x="562" y="260" type="curve" smooth="yes"/>
      <point x="562" y="283" type="line" smooth="yes"/>
      <point x="562" y="362"/>
      <point x="568" y="401"/>
      <point x="585" y="428" type="curve" smooth="yes"/>
      <point x="601" y="453"/>
      <point x="626" y="467"/>
      <point x="665" y="467" type="curve" smooth="yes"/>
      <point x="734" y="467"/>
      <point x="789" y="412"/>
      <point x="789" y="292" type="curve" smooth="yes"/>
      <point x="789" y="212"/>
      <point x="763" y="141"/>
      <point x="693" y="64" type="curve"/>
      <point x="797" y="-12" type="line"/>
      <point x="889" y="75"/>
      <point x="938" y="171"/>
      <point x="938" y="300" type="curve" smooth="yes"/>
      <point x="938" y="468"/>
      <point x="831" y="574"/>
    </contour>
  </outline>
</glyph>
<glyph name="ghamlym" format="2">
  <advance width="1464"/>
  <unicode hex="0D18"/>
  <outline>
    <contour>
      <point x="265" y="574" type="curve" smooth="yes"/>
      <point x="125" y="574"/>
      <point x="29" y="499"/>
      <point x="29" y="383" type="curve" smooth="yes"/>
      <point x="29" y="310"/>
      <point x="57" y="255"/>
      <point x="106" y="201" type="curve"/>
      <point x="220" y="257" type="line"/>
      <point x="198" y="288"/>
      <point x="175" y="320"/>
      <point x="175" y="375" type="curve" smooth="yes"/>
      <point x="175" y="429"/>
      <point x="204" y="470"/>
      <point x="266" y="470" type="curve" smooth="yes"/>
      <point x="326" y="470"/>
      <point x="355" y="428"/>
      <point x="355" y="374" type="curve" smooth="yes"/>
      <point x="355" y="327"/>
      <point x="337" y="292"/>
      <point x="321" y="271" type="curve"/>
      <point x="373" y="213" type="line"/>
      <point x="676" y="213" type="line"/>
      <point x="676" y="318" type="line"/>
      <point x="460" y="318" type="line"/>
      <point x="470" y="282" type="line"/>
      <point x="482" y="307"/>
      <point x="498" y="342"/>
      <point x="498" y="384" type="curve" smooth="yes"/>
      <point x="498" y="477"/>
      <point x="426" y="574"/>
    </contour>
    <contour>
      <point x="1401" y="562" type="line"/>
      <point x="1254" y="562" type="line"/>
      <point x="1254" y="105" type="line"/>
      <point x="731" y="105" type="line"/>
      <point x="731" y="213" type="line"/>
      <point x="1126" y="213" type="line"/>
      <point x="1126" y="301" type="line" smooth="yes"/>
      <point x="1126" y="396"/>
      <point x="1107" y="454"/>
      <point x="1056" y="505" type="curve" smooth="yes"/>
      <point x="1012" y="549"/>
      <point x="945" y="574"/>
      <point x="856" y="574" type="curve" smooth="yes"/>
      <point x="766" y="574"/>
      <point x="697" y="549"/>
      <point x="653" y="505" type="curve" smooth="yes"/>
      <point x="611" y="463"/>
      <point x="584" y="410"/>
      <point x="584" y="303" type="curve" smooth="yes"/>
      <point x="584" y="0" type="line"/>
      <point x="1401" y="0" type="line"/>
    </contour>
    <contour>
      <point x="855" y="469" type="curve" smooth="yes"/>
      <point x="940" y="469"/>
      <point x="979" y="412"/>
      <point x="979" y="322" type="curve" smooth="yes"/>
      <point x="979" y="318" type="line"/>
      <point x="731" y="318" type="line"/>
      <point x="731" y="323" type="line" smooth="yes"/>
      <point x="731" y="408"/>
      <point x="765" y="469"/>
    </contour>
  </outline>
</glyph>
<glyph name="ngamlym" format="2">
  <advance width="1178"/>
  <unicode hex="0D19"/>
  <outline>
    <contour>
      <point x="399" y="574" type="curve" smooth="yes"/>
      <point x="196" y="574"/>
      <point x="37" y="457"/>
      <point x="37" y="242" type="curve" smooth="yes"/>
      <point x="37" y="62"/>
      <point x="146" y="-12"/>
      <point x="267" y="-12" type="curve" smooth="yes"/>
      <point x="395" y="-12"/>
      <point x="469" y="58"/>
      <point x="469" y="174" type="curve" smooth="yes"/>
      <point x="469" y="279"/>
      <point x="405" y="347"/>
      <point x="291" y="347" type="curve" smooth="yes"/>
      <point x="208" y="347"/>
      <point x="141" y="306"/>
      <point x="104" y="267" type="curve"/>
      <point x="116" y="168" type="line"/>
      <point x="161" y="219"/>
      <point x="206" y="247"/>
      <point x="255" y="247" type="curve" smooth="yes"/>
      <point x="304" y="247"/>
      <point x="327" y="217"/>
      <point x="327" y="167" type="curve" smooth="yes"/>
      <point x="327" y="115"/>
      <point x="304" y="88"/>
      <point x="262" y="88" type="curve" smooth="yes"/>
      <point x="211" y="88"/>
      <point x="172" y="125"/>
      <point x="172" y="237" type="curve" smooth="yes"/>
      <point x="172" y="240" type="line" smooth="yes"/>
      <point x="172" y="390"/>
      <point x="268" y="468"/>
      <point x="396" y="468" type="curve" smooth="yes"/>
      <point x="454" y="468"/>
      <point x="486" y="455"/>
      <point x="511" y="433" type="curve" smooth="yes"/>
      <point x="539" y="409"/>
      <point x="556" y="371"/>
      <point x="556" y="269" type="curve" smooth="yes"/>
      <point x="556" y="0" type="line"/>
      <point x="703" y="0" type="line"/>
      <point x="703" y="225" type="line"/>
      <point x="682" y="394" type="line"/>
      <point x="658" y="473" type="line"/>
      <point x="594" y="540"/>
      <point x="519" y="574"/>
    </contour>
    <contour>
      <point x="896" y="574" type="curve" smooth="yes"/>
      <point x="733" y="574"/>
      <point x="626" y="498"/>
      <point x="585" y="370" type="curve"/>
      <point x="566" y="242" type="line"/>
      <point x="566" y="74" type="line"/>
      <point x="703" y="74" type="line"/>
      <point x="703" y="209" type="line" smooth="yes"/>
      <point x="703" y="315"/>
      <point x="716" y="368"/>
      <point x="749" y="410" type="curve" smooth="yes"/>
      <point x="779" y="448"/>
      <point x="823" y="469"/>
      <point x="890" y="469" type="curve" smooth="yes"/>
      <point x="953" y="469"/>
      <point x="986" y="445"/>
      <point x="986" y="400" type="curve" smooth="yes"/>
      <point x="986" y="381"/>
      <point x="979" y="366"/>
      <point x="968" y="355" type="curve" smooth="yes"/>
      <point x="949" y="336"/>
      <point x="919" y="330"/>
      <point x="876" y="330" type="curve" smooth="yes"/>
      <point x="842" y="330" type="line"/>
      <point x="842" y="226" type="line"/>
      <point x="879" y="226" type="line" smooth="yes"/>
      <point x="931" y="226"/>
      <point x="955" y="218"/>
      <point x="972" y="205" type="curve" smooth="yes"/>
      <point x="989" y="192"/>
      <point x="997" y="175"/>
      <point x="997" y="156" type="curve" smooth="yes"/>
      <point x="997" y="111"/>
      <point x="974" y="93"/>
      <point x="916" y="93" type="curve" smooth="yes"/>
      <point x="887" y="93"/>
      <point x="867" y="97"/>
      <point x="843" y="103" type="curve"/>
      <point x="825" y="0" type="line"/>
      <point x="853" y="-6"/>
      <point x="889" y="-12"/>
      <point x="942" y="-12" type="curve" smooth="yes"/>
      <point x="1075" y="-12"/>
      <point x="1144" y="46"/>
      <point x="1144" y="144" type="curve" smooth="yes"/>
      <point x="1144" y="209"/>
      <point x="1109" y="258"/>
      <point x="1037" y="283" type="curve"/>
      <point x="1039" y="278" type="line"/>
      <point x="1109" y="312"/>
      <point x="1133" y="354"/>
      <point x="1133" y="416" type="curve" smooth="yes"/>
      <point x="1133" y="504"/>
      <point x="1054" y="574"/>
    </contour>
  </outline>
</glyph>
<glyph name="camlym" format="2">
  <advance width="1015"/>
  <unicode hex="0D1A"/>
  <outline>
    <contour>
      <point x="952" y="562" type="line"/>
      <point x="805" y="562" type="line"/>
      <point x="805" y="105" type="line"/>
      <point x="527" y="105" type="line"/>
      <point x="554" y="86" type="line"/>
      <point x="584" y="119"/>
      <point x="604" y="158"/>
      <point x="604" y="208" type="curve" smooth="yes"/>
      <point x="604" y="288"/>
      <point x="558" y="386"/>
      <point x="385" y="386" type="curve" smooth="yes"/>
      <point x="238" y="386"/>
      <point x="159" y="317"/>
      <point x="159" y="207" type="curve" smooth="yes"/>
      <point x="159" y="189"/>
      <point x="162" y="166"/>
      <point x="164" y="151" type="curve"/>
      <point x="306" y="162" type="line"/>
      <point x="305" y="171"/>
      <point x="304" y="180"/>
      <point x="304" y="193" type="curve" smooth="yes"/>
      <point x="304" y="248"/>
      <point x="330" y="282"/>
      <point x="385" y="282" type="curve" smooth="yes"/>
      <point x="438" y="282"/>
      <point x="461" y="247"/>
      <point x="461" y="194" type="curve" smooth="yes"/>
      <point x="461" y="141"/>
      <point x="432" y="105"/>
      <point x="401" y="88" type="curve"/>
      <point x="476" y="105" type="line"/>
      <point x="20" y="105" type="line"/>
      <point x="20" y="0" type="line"/>
      <point x="952" y="0" type="line"/>
    </contour>
  </outline>
</glyph>
<glyph name="chamlym" format="2">
  <advance width="1477"/>
  <unicode hex="0D1B"/>
  <outline>
    <contour>
      <point x="385" y="386" type="curve" smooth="yes"/>
      <point x="238" y="386"/>
      <point x="159" y="317"/>
      <point x="159" y="207" type="curve" smooth="yes"/>
      <point x="159" y="189"/>
      <point x="162" y="165"/>
      <point x="164" y="151" type="curve"/>
      <point x="306" y="162" type="line"/>
      <point x="305" y="171"/>
      <point x="304" y="180"/>
      <point x="304" y="193" type="curve" smooth="yes"/>
      <point x="304" y="248"/>
      <point x="330" y="282"/>
      <point x="385" y="282" type="curve" smooth="yes"/>
      <point x="438" y="282"/>
      <point x="461" y="247"/>
      <point x="461" y="194" type="curve" smooth="yes"/>
      <point x="461" y="141"/>
      <point x="432" y="105"/>
      <point x="401" y="88" type="curve"/>
      <point x="476" y="105" type="line"/>
      <point x="20" y="105" type="line"/>
      <point x="20" y="0" type="line"/>
      <point x="880" y="0" type="line"/>
      <point x="801" y="105" type="line"/>
      <point x="527" y="105" type="line"/>
      <point x="554" y="86" type="line"/>
      <point x="584" y="119"/>
      <point x="604" y="158"/>
      <point x="604" y="208" type="curve" smooth="yes"/>
      <point x="604" y="288"/>
      <point x="558" y="386"/>
    </contour>
    <contour>
      <point x="1052" y="574" type="curve" smooth="yes"/>
      <point x="801" y="574"/>
      <point x="695" y="436"/>
      <point x="695" y="287" type="curve" smooth="yes"/>
      <point x="695" y="168"/>
      <point x="752" y="93"/>
      <point x="821" y="22" type="curve"/>
      <point x="845" y="0" type="line"/>
      <point x="895" y="0" type="line"/>
      <point x="940" y="64" type="line"/>
      <point x="883" y="126"/>
      <point x="845" y="191"/>
      <point x="845" y="281" type="curve" smooth="yes"/>
      <point x="845" y="393"/>
      <point x="916" y="467"/>
      <point x="1068" y="467" type="curve" smooth="yes"/>
      <point x="1197" y="467"/>
      <point x="1273" y="403"/>
      <point x="1287" y="329" type="curve"/>
      <point x="1290" y="324"/>
      <point x="1288" y="313"/>
      <point x="1290" y="307" type="curve"/>
      <point x="1294" y="284"/>
      <point x="1296" y="258"/>
      <point x="1296" y="239" type="curve" smooth="yes"/>
      <point x="1296" y="137"/>
      <point x="1261" y="93"/>
      <point x="1205" y="93" type="curve" smooth="yes"/>
      <point x="1146" y="93"/>
      <point x="1121" y="137"/>
      <point x="1121" y="202" type="curve" smooth="yes"/>
      <point x="1121" y="269"/>
      <point x="1149" y="310"/>
      <point x="1214" y="310" type="curve" smooth="yes"/>
      <point x="1276" y="310"/>
      <point x="1319" y="257"/>
      <point x="1331" y="207" type="curve"/>
      <point x="1386" y="204" type="line"/>
      <point x="1380" y="307"/>
      <point x="1297" y="410"/>
      <point x="1178" y="410" type="curve" smooth="yes"/>
      <point x="1048" y="410"/>
      <point x="978" y="327"/>
      <point x="978" y="206" type="curve" smooth="yes"/>
      <point x="978" y="88"/>
      <point x="1042" y="-12"/>
      <point x="1198" y="-12" type="curve" smooth="yes"/>
      <point x="1348" y="-12"/>
      <point x="1440" y="65"/>
      <point x="1440" y="236" type="curve" smooth="yes"/>
      <point x="1440" y="423"/>
      <point x="1314" y="574"/>
    </contour>
  </outline>
</glyph>
<glyph name="jamlym" format="2">
  <advance width="1007"/>
  <unicode hex="0D1C"/>
  <outline>
    <contour>
      <point x="319" y="574" type="curve" smooth="yes"/>
      <point x="138" y="574"/>
      <point x="39" y="500"/>
      <point x="39" y="387" type="curve" smooth="yes"/>
      <point x="39" y="297"/>
      <point x="107" y="244"/>
      <point x="210" y="244" type="curve" smooth="yes"/>
      <point x="332" y="244"/>
      <point x="377" y="304"/>
      <point x="377" y="368" type="curve" smooth="yes"/>
      <point x="377" y="438"/>
      <point x="325" y="480"/>
      <point x="239" y="480" type="curve" smooth="yes"/>
      <point x="178" y="480"/>
      <point x="109" y="463"/>
      <point x="76" y="429" type="curve"/>
      <point x="124" y="410" type="line"/>
      <point x="145" y="417"/>
      <point x="173" y="425"/>
      <point x="201" y="425" type="curve" smooth="yes"/>
      <point x="240" y="425"/>
      <point x="261" y="406"/>
      <point x="261" y="375" type="curve" smooth="yes"/>
      <point x="261" y="351"/>
      <point x="248" y="327"/>
      <point x="208" y="327" type="curve" smooth="yes"/>
      <point x="176" y="327"/>
      <point x="151" y="341"/>
      <point x="151" y="386" type="curve" smooth="yes"/>
      <point x="151" y="404"/>
      <point x="155" y="420"/>
      <point x="164" y="433" type="curve"/>
      <point x="167" y="438"/>
      <point x="168" y="447"/>
      <point x="173" y="451" type="curve" smooth="yes"/>
      <point x="202" y="478"/>
      <point x="265" y="483"/>
      <point x="313" y="483" type="curve" smooth="yes"/>
      <point x="373" y="483"/>
      <point x="409" y="468"/>
      <point x="430" y="449" type="curve" smooth="yes"/>
      <point x="467" y="417"/>
      <point x="474" y="376"/>
      <point x="474" y="306" type="curve" smooth="yes"/>
      <point x="474" y="264" type="line"/>
      <point x="607" y="264" type="line"/>
      <point x="607" y="334" type="line" smooth="yes"/>
      <point x="607" y="392"/>
      <point x="613" y="422"/>
      <point x="633" y="444" type="curve" smooth="yes"/>
      <point x="647" y="460"/>
      <point x="671" y="471"/>
      <point x="706" y="471" type="curve" smooth="yes"/>
      <point x="793" y="471"/>
      <point x="830" y="420"/>
      <point x="830" y="361" type="curve" smooth="yes"/>
      <point x="830" y="308"/>
      <point x="808" y="275"/>
      <point x="763" y="257" type="curve" smooth="yes"/>
      <point x="722" y="240"/>
      <point x="668" y="237"/>
      <point x="561" y="237" type="curve" smooth="yes"/>
      <point x="253" y="237" type="line" smooth="yes"/>
      <point x="167" y="237"/>
      <point x="122" y="229"/>
      <point x="87" y="209" type="curve" smooth="yes"/>
      <point x="52" y="189"/>
      <point x="33" y="157"/>
      <point x="33" y="113" type="curve" smooth="yes"/>
      <point x="33" y="19"/>
      <point x="111" y="-12"/>
      <point x="210" y="-12" type="curve" smooth="yes"/>
      <point x="323" y="-12"/>
      <point x="399" y="8"/>
      <point x="521" y="53" type="curve" smooth="yes"/>
      <point x="604" y="83"/>
      <point x="655" y="122"/>
      <point x="678" y="145" type="curve"/>
      <point x="676" y="120" type="line"/>
      <point x="709" y="146"/>
      <point x="733" y="159"/>
      <point x="767" y="159" type="curve" smooth="yes"/>
      <point x="803" y="159"/>
      <point x="823" y="144"/>
      <point x="823" y="115" type="curve" smooth="yes"/>
      <point x="823" y="91"/>
      <point x="807" y="73"/>
      <point x="766" y="73" type="curve" smooth="yes"/>
      <point x="729" y="73"/>
      <point x="709" y="89"/>
      <point x="709" y="130" type="curve" smooth="yes"/>
      <point x="709" y="181"/>
      <point x="753" y="208"/>
      <point x="773" y="221" type="curve"/>
      <point x="653" y="220" type="line"/>
      <point x="626" y="208"/>
      <point x="594" y="172"/>
      <point x="594" y="121" type="curve" smooth="yes"/>
      <point x="594" y="54"/>
      <point x="640" y="-12"/>
      <point x="770" y="-12" type="curve" smooth="yes"/>
      <point x="882" y="-12"/>
      <point x="942" y="32"/>
      <point x="942" y="114" type="curve" smooth="yes"/>
      <point x="942" y="206"/>
      <point x="860" y="234"/>
      <point x="781" y="234" type="curve" smooth="yes"/>
      <point x="732" y="234"/>
      <point x="737" y="204"/>
      <point x="668" y="185" type="curve"/>
      <point x="614" y="176"/>
      <point x="514" y="148"/>
      <point x="423" y="120" type="curve" smooth="yes"/>
      <point x="342" y="95"/>
      <point x="288" y="81"/>
      <point x="220" y="81" type="curve" smooth="yes"/>
      <point x="182" y="81"/>
      <point x="164" y="92"/>
      <point x="164" y="114" type="curve" smooth="yes"/>
      <point x="164" y="123"/>
      <point x="167" y="129"/>
      <point x="173" y="134" type="curve" smooth="yes"/>
      <point x="185" y="143"/>
      <point x="203" y="146"/>
      <point x="242" y="146" type="curve" smooth="yes"/>
      <point x="397" y="146" type="line" smooth="yes"/>
      <point x="438" y="146"/>
      <point x="491" y="146"/>
      <point x="529" y="151" type="curve"/>
      <point x="651" y="159" type="line"/>
      <point x="869" y="193" type="line"/>
      <point x="938" y="233"/>
      <point x="969" y="285"/>
      <point x="969" y="370" type="curve" smooth="yes"/>
      <point x="969" y="471"/>
      <point x="901" y="574"/>
      <point x="724" y="574" type="curve" smooth="yes"/>
      <point x="640" y="574"/>
      <point x="575" y="551"/>
      <point x="525" y="499" type="curve"/>
      <point x="565" y="492" type="line"/>
      <point x="508" y="544"/>
      <point x="441" y="574"/>
    </contour>
  </outline>
</glyph>
<glyph name="jhamlym" format="2">
  <advance width="1825"/>
  <unicode hex="0D1D"/>
  <outline>
    <contour>
      <point x="743" y="574" type="curve" smooth="yes"/>
      <point x="671" y="574"/>
      <point x="616" y="564"/>
      <point x="553" y="536" type="curve"/>
      <point x="516" y="518" type="line"/>
      <point x="396" y="454"/>
      <point x="325" y="352"/>
      <point x="325" y="230" type="curve" smooth="yes"/>
      <point x="325" y="73"/>
      <point x="411" y="-12"/>
      <point x="564" y="-12" type="curve" smooth="yes"/>
      <point x="718" y="-12"/>
      <point x="803" y="68"/>
      <point x="803" y="229" type="curve" smooth="yes"/>
      <point x="803" y="359"/>
      <point x="730" y="463"/>
      <point x="614" y="523" type="curve"/>
      <point x="586" y="534" type="line"/>
      <point x="530" y="561"/>
      <point x="469" y="574"/>
      <point x="391" y="574" type="curve" smooth="yes"/>
      <point x="128" y="574"/>
      <point x="37" y="425"/>
      <point x="37" y="281" type="curve" smooth="yes"/>
      <point x="37" y="144"/>
      <point x="101" y="61"/>
      <point x="191" y="-12" type="curve"/>
      <point x="289" y="64" type="line"/>
      <point x="221" y="129"/>
      <point x="187" y="188"/>
      <point x="187" y="281" type="curve" smooth="yes"/>
      <point x="187" y="393"/>
      <point x="255" y="472"/>
      <point x="407" y="472" type="curve" smooth="yes"/>
      <point x="435" y="472"/>
      <point x="462" y="470"/>
      <point x="487" y="462" type="curve"/>
      <point x="512" y="455" type="line"/>
      <point x="601" y="414"/>
      <point x="655" y="332"/>
      <point x="655" y="228" type="curve" smooth="yes"/>
      <point x="655" y="123"/>
      <point x="612" y="93"/>
      <point x="564" y="93" type="curve" smooth="yes"/>
      <point x="517" y="93"/>
      <point x="473" y="122"/>
      <point x="473" y="234" type="curve" smooth="yes"/>
      <point x="473" y="332"/>
      <point x="529" y="423"/>
      <point x="626" y="460" type="curve"/>
      <point x="644" y="462" type="line"/>
      <point x="670" y="469"/>
      <point x="698" y="472"/>
      <point x="733" y="472" type="curve" smooth="yes"/>
      <point x="789" y="472"/>
      <point x="827" y="456"/>
      <point x="852" y="434" type="curve" smooth="yes"/>
      <point x="892" y="400"/>
      <point x="909" y="340"/>
      <point x="909" y="257" type="curve" smooth="yes"/>
      <point x="909" y="249" type="line" smooth="yes"/>
      <point x="909" y="164"/>
      <point x="928" y="98"/>
      <point x="968" y="55" type="curve" smooth="yes"/>
      <point x="1008" y="12"/>
      <point x="1065" y="-12"/>
      <point x="1148" y="-12" type="curve" smooth="yes"/>
      <point x="1244" y="-12"/>
      <point x="1293" y="27"/>
      <point x="1334" y="66" type="curve"/>
      <point x="1323" y="66" type="line"/>
      <point x="1375" y="12"/>
      <point x="1433" y="-12"/>
      <point x="1520" y="-12" type="curve" smooth="yes"/>
      <point x="1689" y="-12"/>
      <point x="1788" y="107"/>
      <point x="1788" y="264" type="curve" smooth="yes"/>
      <point x="1788" y="396"/>
      <point x="1738" y="487"/>
      <point x="1647" y="574" type="curve"/>
      <point x="1543" y="498" type="line"/>
      <point x="1613" y="421"/>
      <point x="1639" y="350"/>
      <point x="1639" y="273" type="curve" smooth="yes"/>
      <point x="1639" y="154"/>
      <point x="1581" y="94"/>
      <point x="1505" y="94" type="curve" smooth="yes"/>
      <point x="1478" y="94"/>
      <point x="1447" y="105"/>
      <point x="1430" y="128" type="curve" smooth="yes"/>
      <point x="1410" y="154"/>
      <point x="1407" y="186"/>
      <point x="1407" y="259" type="curve" smooth="yes"/>
      <point x="1407" y="562" type="line"/>
      <point x="1260" y="562" type="line"/>
      <point x="1260" y="251" type="line" smooth="yes"/>
      <point x="1260" y="184"/>
      <point x="1251" y="148"/>
      <point x="1230" y="123" type="curve" smooth="yes"/>
      <point x="1214" y="105"/>
      <point x="1191" y="95"/>
      <point x="1158" y="95" type="curve" smooth="yes"/>
      <point x="1123" y="95"/>
      <point x="1097" y="108"/>
      <point x="1081" y="134" type="curve" smooth="yes"/>
      <point x="1064" y="161"/>
      <point x="1059" y="204"/>
      <point x="1059" y="248" type="curve" smooth="yes"/>
      <point x="1059" y="266" type="line" smooth="yes"/>
      <point x="1059" y="392"/>
      <point x="1028" y="457"/>
      <point x="972" y="505" type="curve" smooth="yes"/>
      <point x="917" y="552"/>
      <point x="841" y="574"/>
    </contour>
  </outline>
</glyph>
<glyph name="nyamlym" format="2">
  <advance width="1619"/>
  <unicode hex="0D1E"/>
  <outline>
    <contour>
      <point x="399" y="574" type="curve" smooth="yes"/>
      <point x="196" y="574"/>
      <point x="37" y="457"/>
      <point x="37" y="242" type="curve" smooth="yes"/>
      <point x="37" y="62"/>
      <point x="146" y="-12"/>
      <point x="267" y="-12" type="curve" smooth="yes"/>
      <point x="395" y="-12"/>
      <point x="469" y="58"/>
      <point x="469" y="174" type="curve" smooth="yes"/>
      <point x="469" y="279"/>
      <point x="405" y="347"/>
      <point x="291" y="347" type="curve" smooth="yes"/>
      <point x="208" y="347"/>
      <point x="141" y="306"/>
      <point x="104" y="267" type="curve"/>
      <point x="116" y="168" type="line"/>
      <point x="161" y="219"/>
      <point x="206" y="247"/>
      <point x="255" y="247" type="curve" smooth="yes"/>
      <point x="304" y="247"/>
      <point x="327" y="217"/>
      <point x="327" y="167" type="curve" smooth="yes"/>
      <point x="327" y="115"/>
      <point x="304" y="88"/>
      <point x="262" y="88" type="curve" smooth="yes"/>
      <point x="211" y="88"/>
      <point x="172" y="124"/>
      <point x="172" y="237" type="curve" smooth="yes"/>
      <point x="172" y="240" type="line" smooth="yes"/>
      <point x="172" y="390"/>
      <point x="268" y="468"/>
      <point x="396" y="468" type="curve" smooth="yes"/>
      <point x="454" y="468"/>
      <point x="486" y="455"/>
      <point x="511" y="433" type="curve" smooth="yes"/>
      <point x="539" y="409"/>
      <point x="556" y="371"/>
      <point x="556" y="269" type="curve" smooth="yes"/>
      <point x="556" y="0" type="line"/>
      <point x="703" y="0" type="line"/>
      <point x="703" y="209" type="line"/>
      <point x="640" y="463" type="line"/>
      <point x="658" y="473" type="line"/>
      <point x="594" y="540"/>
      <point x="519" y="574"/>
    </contour>
    <contour>
      <point x="890" y="574" type="curve" smooth="yes"/>
      <point x="750" y="574"/>
      <point x="674" y="527"/>
      <point x="616" y="473" type="curve"/>
      <point x="566" y="284" type="line"/>
      <point x="566" y="20" type="line"/>
      <point x="703" y="20" type="line"/>
      <point x="703" y="241" type="line" smooth="yes"/>
      <point x="703" y="347"/>
      <point x="718" y="399"/>
      <point x="763" y="435" type="curve" smooth="yes"/>
      <point x="785" y="452"/>
      <point x="822" y="472"/>
      <point x="886" y="472" type="curve" smooth="yes"/>
      <point x="924" y="472"/>
      <point x="949" y="469"/>
      <point x="974" y="462" type="curve" smooth="yes"/>
      <point x="999" y="455" type="line"/>
      <point x="1087" y="414"/>
      <point x="1141" y="332"/>
      <point x="1141" y="228" type="curve" smooth="yes"/>
      <point x="1141" y="123"/>
      <point x="1098" y="93"/>
      <point x="1050" y="93" type="curve" smooth="yes"/>
      <point x="1002" y="93"/>
      <point x="959" y="122"/>
      <point x="959" y="234" type="curve" smooth="yes"/>
      <point x="959" y="326"/>
      <point x="1012" y="419"/>
      <point x="1116" y="460" type="curve"/>
      <point x="1132" y="462" type="line"/>
      <point x="1160" y="470"/>
      <point x="1190" y="472"/>
      <point x="1234" y="472" type="curve" smooth="yes"/>
      <point x="1362" y="472"/>
      <point x="1432" y="396"/>
      <point x="1432" y="279" type="curve" smooth="yes"/>
      <point x="1432" y="180"/>
      <point x="1390" y="124"/>
      <point x="1331" y="64" type="curve"/>
      <point x="1426" y="-12" type="line"/>
      <point x="1520" y="61"/>
      <point x="1582" y="143"/>
      <point x="1582" y="280" type="curve" smooth="yes"/>
      <point x="1582" y="429"/>
      <point x="1494" y="574"/>
      <point x="1245" y="574" type="curve" smooth="yes"/>
      <point x="1160" y="574"/>
      <point x="1095" y="558"/>
      <point x="1043" y="533" type="curve"/>
      <point x="1007" y="518" type="line"/>
      <point x="886" y="454"/>
      <point x="811" y="352"/>
      <point x="811" y="230" type="curve" smooth="yes"/>
      <point x="811" y="73"/>
      <point x="896" y="-12"/>
      <point x="1050" y="-12" type="curve" smooth="yes"/>
      <point x="1204" y="-12"/>
      <point x="1289" y="68"/>
      <point x="1289" y="229" type="curve" smooth="yes"/>
      <point x="1289" y="359"/>
      <point x="1216" y="463"/>
      <point x="1100" y="523" type="curve"/>
      <point x="1072" y="535" type="line"/>
      <point x="1016" y="562"/>
      <point x="955" y="574"/>
    </contour>
  </outline>
</glyph>
<glyph name="ttamlym" format="2">
  <advance width="612"/>
  <unicode hex="0D1F"/>
  <outline>
    <contour>
      <point x="294" y="574" type="curve" smooth="yes"/>
      <point x="113" y="574"/>
      <point x="28" y="498"/>
      <point x="28" y="398" type="curve" smooth="yes"/>
      <point x="28" y="355"/>
      <point x="41" y="322"/>
      <point x="62" y="297" type="curve" smooth="yes"/>
      <point x="102" y="250"/>
      <point x="181" y="231"/>
      <point x="289" y="231" type="curve" smooth="yes"/>
      <point x="308" y="231" type="line" smooth="yes"/>
      <point x="372" y="231"/>
      <point x="394" y="225"/>
      <point x="411" y="213" type="curve" smooth="yes"/>
      <point x="428" y="202"/>
      <point x="434" y="185"/>
      <point x="434" y="167" type="curve" smooth="yes"/>
      <point x="434" y="124"/>
      <point x="396" y="96"/>
      <point x="302" y="96" type="curve" smooth="yes"/>
      <point x="208" y="96"/>
      <point x="143" y="117"/>
      <point x="72" y="155" type="curve"/>
      <point x="14" y="58" type="line"/>
      <point x="97" y="14"/>
      <point x="189" y="-12"/>
      <point x="312" y="-12" type="curve" smooth="yes"/>
      <point x="496" y="-12"/>
      <point x="583" y="61"/>
      <point x="583" y="166" type="curve" smooth="yes"/>
      <point x="583" y="208"/>
      <point x="574" y="243"/>
      <point x="551" y="270" type="curve" smooth="yes"/>
      <point x="513" y="315"/>
      <point x="452" y="339"/>
      <point x="335" y="339" type="curve" smooth="yes"/>
      <point x="307" y="339" type="line" smooth="yes"/>
      <point x="249" y="339"/>
      <point x="214" y="342"/>
      <point x="193" y="361" type="curve" smooth="yes"/>
      <point x="182" y="371"/>
      <point x="177" y="383"/>
      <point x="177" y="401" type="curve" smooth="yes"/>
      <point x="177" y="438"/>
      <point x="214" y="466"/>
      <point x="304" y="466" type="curve" smooth="yes"/>
      <point x="399" y="466"/>
      <point x="463" y="446"/>
      <point x="531" y="412" type="curve"/>
      <point x="591" y="507" type="line"/>
      <point x="524" y="543"/>
      <point x="421" y="574"/>
    </contour>
  </outline>
</glyph>
<glyph name="tthamlym" format="2">
  <advance width="714"/>
  <unicode hex="0D20"/>
  <outline>
    <contour>
      <point x="355" y="574" type="curve" smooth="yes"/>
      <point x="159" y="574"/>
      <point x="37" y="459"/>
      <point x="37" y="283" type="curve" smooth="yes"/>
      <point x="37" y="122"/>
      <point x="139" y="-12"/>
      <point x="357" y="-12" type="curve" smooth="yes"/>
      <point x="556" y="-12"/>
      <point x="677" y="104"/>
      <point x="677" y="280" type="curve" smooth="yes"/>
      <point x="677" y="459"/>
      <point x="555" y="574"/>
    </contour>
    <contour>
      <point x="357" y="95" type="curve" smooth="yes"/>
      <point x="247" y="95"/>
      <point x="187" y="170"/>
      <point x="187" y="282" type="curve" smooth="yes"/>
      <point x="187" y="396"/>
      <point x="249" y="467"/>
      <point x="357" y="467" type="curve" smooth="yes"/>
      <point x="470" y="467"/>
      <point x="527" y="389"/>
      <point x="527" y="282" type="curve" smooth="yes"/>
      <point x="527" y="174"/>
      <point x="471" y="95"/>
    </contour>
  </outline>
</glyph>
<glyph name="ddamlym" format="2">
  <advance width="1334"/>
  <unicode hex="0D21"/>
  <outline>
    <contour>
      <point x="653" y="-12" type="curve" smooth="yes"/>
      <point x="748" y="-12"/>
      <point x="796" y="19"/>
      <point x="844" y="66" type="curve"/>
      <point x="833" y="66" type="line"/>
      <point x="886" y="11"/>
      <point x="943" y="-12"/>
      <point x="1029" y="-12" type="curve" smooth="yes"/>
      <point x="1199" y="-12"/>
      <point x="1297" y="106"/>
      <point x="1297" y="263" type="curve" smooth="yes"/>
      <point x="1297" y="395"/>
      <point x="1247" y="487"/>
      <point x="1156" y="574" type="curve"/>
      <point x="1052" y="498" type="line"/>
      <point x="1122" y="421"/>
      <point x="1148" y="350"/>
      <point x="1148" y="273" type="curve" smooth="yes"/>
      <point x="1148" y="154"/>
      <point x="1090" y="94"/>
      <point x="1014" y="94" type="curve" smooth="yes"/>
      <point x="987" y="94"/>
      <point x="957" y="105"/>
      <point x="939" y="128" type="curve" smooth="yes"/>
      <point x="919" y="154"/>
      <point x="916" y="183"/>
      <point x="916" y="259" type="curve" smooth="yes"/>
      <point x="916" y="562" type="line"/>
      <point x="769" y="562" type="line"/>
      <point x="769" y="250" type="line" smooth="yes"/>
      <point x="769" y="183"/>
      <point x="761" y="149"/>
      <point x="739" y="124" type="curve" smooth="yes"/>
      <point x="724" y="106"/>
      <point x="696" y="95"/>
      <point x="665" y="95" type="curve" smooth="yes"/>
      <point x="626" y="95"/>
      <point x="600" y="107"/>
      <point x="584" y="133" type="curve" smooth="yes"/>
      <point x="567" y="160"/>
      <point x="562" y="192"/>
      <point x="562" y="275" type="curve" smooth="yes"/>
      <point x="562" y="302" type="line" smooth="yes"/>
      <point x="562" y="391"/>
      <point x="546" y="460"/>
      <point x="503" y="507" type="curve" smooth="yes"/>
      <point x="463" y="550"/>
      <point x="400" y="574"/>
      <point x="313" y="574" type="curve" smooth="yes"/>
      <point x="145" y="574"/>
      <point x="37" y="466"/>
      <point x="37" y="298" type="curve" smooth="yes"/>
      <point x="37" y="166"/>
      <point x="88" y="74"/>
      <point x="179" y="-13" type="curve"/>
      <point x="281" y="63" type="line"/>
      <point x="212" y="140"/>
      <point x="186" y="210"/>
      <point x="186" y="291" type="curve" smooth="yes"/>
      <point x="186" y="417"/>
      <point x="239" y="467"/>
      <point x="306" y="467" type="curve" smooth="yes"/>
      <point x="348" y="467"/>
      <point x="374" y="454"/>
      <point x="390" y="428" type="curve" smooth="yes"/>
      <point x="407" y="401"/>
      <point x="412" y="363"/>
      <point x="412" y="291" type="curve" smooth="yes"/>
      <point x="412" y="255" type="line" smooth="yes"/>
      <point x="412" y="157"/>
      <point x="432" y="98"/>
      <point x="475" y="54" type="curve" smooth="yes"/>
      <point x="518" y="10"/>
      <point x="574" y="-12"/>
    </contour>
  </outline>
</glyph>
<glyph name="ddhamlym" format="2">
  <advance width="1472"/>
  <unicode hex="0D22"/>
  <outline>
    <contour>
      <point x="653" y="-12" type="curve" smooth="yes"/>
      <point x="748" y="-12"/>
      <point x="799" y="21"/>
      <point x="844" y="66" type="curve"/>
      <point x="916" y="311" type="line"/>
      <point x="916" y="562" type="line"/>
      <point x="769" y="562" type="line"/>
      <point x="769" y="251" type="line" smooth="yes"/>
      <point x="769" y="183"/>
      <point x="761" y="149"/>
      <point x="739" y="124" type="curve" smooth="yes"/>
      <point x="723" y="106"/>
      <point x="696" y="95"/>
      <point x="665" y="95" type="curve" smooth="yes"/>
      <point x="626" y="95"/>
      <point x="600" y="107"/>
      <point x="584" y="133" type="curve" smooth="yes"/>
      <point x="567" y="160"/>
      <point x="562" y="192"/>
      <point x="562" y="276" type="curve" smooth="yes"/>
      <point x="562" y="302" type="line" smooth="yes"/>
      <point x="562" y="391"/>
      <point x="546" y="460"/>
      <point x="503" y="507" type="curve" smooth="yes"/>
      <point x="463" y="550"/>
      <point x="400" y="574"/>
      <point x="313" y="574" type="curve" smooth="yes"/>
      <point x="145" y="574"/>
      <point x="37" y="466"/>
      <point x="37" y="299" type="curve" smooth="yes"/>
      <point x="37" y="167"/>
      <point x="88" y="75"/>
      <point x="179" y="-13" type="curve"/>
      <point x="281" y="63" type="line"/>
      <point x="211" y="140"/>
      <point x="186" y="212"/>
      <point x="186" y="292" type="curve" smooth="yes"/>
      <point x="186" y="418"/>
      <point x="239" y="467"/>
      <point x="306" y="467" type="curve" smooth="yes"/>
      <point x="348" y="467"/>
      <point x="374" y="454"/>
      <point x="390" y="428" type="curve" smooth="yes"/>
      <point x="407" y="401"/>
      <point x="412" y="363"/>
      <point x="412" y="291" type="curve" smooth="yes"/>
      <point x="412" y="256" type="line" smooth="yes"/>
      <point x="412" y="157"/>
      <point x="432" y="98"/>
      <point x="475" y="54" type="curve" smooth="yes"/>
      <point x="518" y="10"/>
      <point x="574" y="-12"/>
    </contour>
    <contour>
      <point x="1205" y="574" type="curve" smooth="yes"/>
      <point x="1077" y="574"/>
      <point x="1003" y="504"/>
      <point x="1003" y="388" type="curve" smooth="yes"/>
      <point x="1003" y="285"/>
      <point x="1066" y="215"/>
      <point x="1181" y="215" type="curve" smooth="yes"/>
      <point x="1264" y="215"/>
      <point x="1331" y="256"/>
      <point x="1368" y="295" type="curve"/>
      <point x="1356" y="394" type="line"/>
      <point x="1311" y="343"/>
      <point x="1266" y="315"/>
      <point x="1216" y="315" type="curve" smooth="yes"/>
      <point x="1168" y="315"/>
      <point x="1145" y="346"/>
      <point x="1145" y="395" type="curve" smooth="yes"/>
      <point x="1145" y="446"/>
      <point x="1168" y="474"/>
      <point x="1209" y="474" type="curve" smooth="yes"/>
      <point x="1261" y="474"/>
      <point x="1300" y="437"/>
      <point x="1300" y="327" type="curve" smooth="yes"/>
      <point x="1300" y="322" type="line" smooth="yes"/>
      <point x="1300" y="173"/>
      <point x="1205" y="94"/>
      <point x="1076" y="94" type="curve" smooth="yes"/>
      <point x="1018" y="94"/>
      <point x="986" y="107"/>
      <point x="961" y="129" type="curve" smooth="yes"/>
      <point x="933" y="153"/>
      <point x="916" y="191"/>
      <point x="916" y="294" type="curve" smooth="yes"/>
      <point x="916" y="512" type="line"/>
      <point x="779" y="512" type="line"/>
      <point x="779" y="316" type="line"/>
      <point x="814" y="89" type="line"/>
      <point x="878" y="22"/>
      <point x="953" y="-12"/>
      <point x="1073" y="-12" type="curve" smooth="yes"/>
      <point x="1276" y="-12"/>
      <point x="1435" y="106"/>
      <point x="1435" y="321" type="curve" smooth="yes"/>
      <point x="1435" y="502"/>
      <point x="1326" y="574"/>
    </contour>
  </outline>
</glyph>
<glyph name="nnamlym" format="2">
  <advance width="1485"/>
  <unicode hex="0D23"/>
  <outline>
    <contour>
      <point x="399" y="574" type="curve" smooth="yes"/>
      <point x="196" y="574"/>
      <point x="37" y="457"/>
      <point x="37" y="242" type="curve" smooth="yes"/>
      <point x="37" y="62"/>
      <point x="146" y="-12"/>
      <point x="267" y="-12" type="curve" smooth="yes"/>
      <point x="395" y="-12"/>
      <point x="469" y="58"/>
      <point x="469" y="174" type="curve" smooth="yes"/>
      <point x="469" y="279"/>
      <point x="405" y="347"/>
      <point x="291" y="347" type="curve" smooth="yes"/>
      <point x="208" y="347"/>
      <point x="141" y="306"/>
      <point x="104" y="267" type="curve"/>
      <point x="116" y="168" type="line"/>
      <point x="161" y="219"/>
      <point x="206" y="247"/>
      <point x="255" y="247" type="curve" smooth="yes"/>
      <point x="304" y="247"/>
      <point x="327" y="217"/>
      <point x="327" y="167" type="curve" smooth="yes"/>
      <point x="327" y="115"/>
      <point x="304" y="88"/>
      <point x="262" y="88" type="curve" smooth="yes"/>
      <point x="211" y="88"/>
      <point x="172" y="125"/>
      <point x="172" y="237" type="curve" smooth="yes"/>
      <point x="172" y="240" type="line" smooth="yes"/>
      <point x="172" y="390"/>
      <point x="268" y="468"/>
      <point x="396" y="468" type="curve" smooth="yes"/>
      <point x="454" y="468"/>
      <point x="486" y="455"/>
      <point x="511" y="433" type="curve" smooth="yes"/>
      <point x="539" y="409"/>
      <point x="556" y="371"/>
      <point x="556" y="268" type="curve" smooth="yes"/>
      <point x="556" y="0" type="line"/>
      <point x="703" y="0" type="line"/>
      <point x="703" y="301" type="line" smooth="yes"/>
      <point x="703" y="379"/>
      <point x="712" y="411"/>
      <point x="733" y="436" type="curve" smooth="yes"/>
      <point x="751" y="456"/>
      <point x="777" y="468"/>
      <point x="811" y="468" type="curve" smooth="yes"/>
      <point x="848" y="468"/>
      <point x="874" y="457"/>
      <point x="890" y="439" type="curve" smooth="yes"/>
      <point x="912" y="414"/>
      <point x="919" y="378"/>
      <point x="919" y="311" type="curve" smooth="yes"/>
      <point x="919" y="0" type="line"/>
      <point x="1066" y="0" type="line"/>
      <point x="1066" y="302" type="line" smooth="yes"/>
      <point x="1066" y="378"/>
      <point x="1070" y="408"/>
      <point x="1090" y="434" type="curve" smooth="yes"/>
      <point x="1108" y="457"/>
      <point x="1138" y="468"/>
      <point x="1165" y="468" type="curve" smooth="yes"/>
      <point x="1241" y="468"/>
      <point x="1299" y="408"/>
      <point x="1299" y="289" type="curve" smooth="yes"/>
      <point x="1299" y="212"/>
      <point x="1272" y="141"/>
      <point x="1203" y="64" type="curve"/>
      <point x="1308" y="-12" type="line"/>
      <point x="1395" y="72"/>
      <point x="1448" y="168"/>
      <point x="1448" y="299" type="curve" smooth="yes"/>
      <point x="1448" y="456"/>
      <point x="1350" y="574"/>
      <point x="1180" y="574" type="curve" smooth="yes"/>
      <point x="1094" y="574"/>
      <point x="1037" y="551"/>
      <point x="983" y="496" type="curve"/>
      <point x="995" y="496" type="line"/>
      <point x="948" y="547"/>
      <point x="897" y="574"/>
      <point x="811" y="574" type="curve" smooth="yes"/>
      <point x="733" y="574"/>
      <point x="667" y="549"/>
      <point x="621" y="494" type="curve"/>
      <point x="658" y="473" type="line"/>
      <point x="594" y="540"/>
      <point x="519" y="574"/>
    </contour>
  </outline>
</glyph>
<glyph name="tamlym" format="2">
  <advance width="1133"/>
  <unicode hex="0D24"/>
  <outline>
    <contour>
      <point x="564" y="-12" type="curve" smooth="yes"/>
      <point x="718" y="-12"/>
      <point x="803" y="68"/>
      <point x="803" y="229" type="curve" smooth="yes"/>
      <point x="803" y="359"/>
      <point x="730" y="463"/>
      <point x="614" y="523" type="curve"/>
      <point x="586" y="534" type="line"/>
      <point x="530" y="561"/>
      <point x="469" y="574"/>
      <point x="390" y="574" type="curve" smooth="yes"/>
      <point x="128" y="574"/>
      <point x="37" y="425"/>
      <point x="37" y="281" type="curve" smooth="yes"/>
      <point x="37" y="144"/>
      <point x="101" y="61"/>
      <point x="191" y="-12" type="curve"/>
      <point x="289" y="64" type="line"/>
      <point x="221" y="129"/>
      <point x="187" y="188"/>
      <point x="187" y="281" type="curve" smooth="yes"/>
      <point x="187" y="393"/>
      <point x="255" y="472"/>
      <point x="407" y="472" type="curve" smooth="yes"/>
      <point x="436" y="472"/>
      <point x="463" y="469"/>
      <point x="488" y="462" type="curve"/>
      <point x="513" y="455" type="line"/>
      <point x="601" y="414"/>
      <point x="655" y="332"/>
      <point x="655" y="228" type="curve" smooth="yes"/>
      <point x="655" y="123"/>
      <point x="612" y="93"/>
      <point x="564" y="93" type="curve" smooth="yes"/>
      <point x="517" y="93"/>
      <point x="473" y="122"/>
      <point x="473" y="234" type="curve" smooth="yes"/>
      <point x="473" y="326"/>
      <point x="527" y="420"/>
      <point x="630" y="460" type="curve"/>
      <point x="646" y="462" type="line"/>
      <point x="674" y="469"/>
      <point x="704" y="472"/>
      <point x="748" y="472" type="curve" smooth="yes"/>
      <point x="876" y="472"/>
      <point x="946" y="396"/>
      <point x="946" y="279" type="curve" smooth="yes"/>
      <point x="946" y="180"/>
      <point x="904" y="124"/>
      <point x="845" y="64" type="curve"/>
      <point x="940" y="-12" type="line"/>
      <point x="1034" y="61"/>
      <point x="1096" y="143"/>
      <point x="1096" y="280" type="curve" smooth="yes"/>
      <point x="1096" y="429"/>
      <point x="1008" y="574"/>
      <point x="759" y="574" type="curve" smooth="yes"/>
      <point x="671" y="574"/>
      <point x="609" y="558"/>
      <point x="557" y="533" type="curve"/>
      <point x="521" y="518" type="line"/>
      <point x="400" y="454"/>
      <point x="325" y="352"/>
      <point x="325" y="230" type="curve" smooth="yes"/>
      <point x="325" y="73"/>
      <point x="411" y="-12"/>
    </contour>
  </outline>
</glyph>
<glyph name="thamlym" format="2">
  <advance width="982"/>
  <unicode hex="0D25"/>
  <outline>
    <contour>
      <point x="210" y="562" type="line"/>
      <point x="63" y="562" type="line"/>
      <point x="63" y="0" type="line"/>
      <point x="426" y="0" type="line"/>
      <point x="426" y="105" type="line"/>
      <point x="210" y="105" type="line"/>
    </contour>
    <component base="thapart"/>
  </outline>
</glyph>
<glyph name="damlym" format="2">
  <advance width="713"/>
  <unicode hex="0D26"/>
  <outline>
    <contour>
      <point x="425" y="574" type="curve" smooth="yes"/>
      <point x="173" y="574"/>
      <point x="45" y="439"/>
      <point x="45" y="222" type="curve" smooth="yes"/>
      <point x="45" y="151"/>
      <point x="59" y="62"/>
      <point x="82" y="-4" type="curve"/>
      <point x="220" y="22" type="line"/>
      <point x="202" y="81"/>
      <point x="194" y="150"/>
      <point x="194" y="214" type="curve" smooth="yes"/>
      <point x="194" y="367"/>
      <point x="268" y="469"/>
      <point x="420" y="469" type="curve" smooth="yes"/>
      <point x="488" y="469"/>
      <point x="521" y="445"/>
      <point x="521" y="400" type="curve" smooth="yes"/>
      <point x="521" y="381"/>
      <point x="514" y="366"/>
      <point x="503" y="355" type="curve" smooth="yes"/>
      <point x="483" y="336"/>
      <point x="454" y="330"/>
      <point x="411" y="330" type="curve" smooth="yes"/>
      <point x="362" y="330" type="line"/>
      <point x="362" y="226" type="line"/>
      <point x="414" y="226" type="line" smooth="yes"/>
      <point x="466" y="226"/>
      <point x="490" y="218"/>
      <point x="507" y="205" type="curve" smooth="yes"/>
      <point x="524" y="192"/>
      <point x="532" y="175"/>
      <point x="532" y="156" type="curve" smooth="yes"/>
      <point x="532" y="111"/>
      <point x="507" y="93"/>
      <point x="444" y="93" type="curve" smooth="yes"/>
      <point x="415" y="93"/>
      <point x="389" y="97"/>
      <point x="358" y="103" type="curve"/>
      <point x="340" y="0" type="line"/>
      <point x="373" y="-6"/>
      <point x="416" y="-12"/>
      <point x="471" y="-12" type="curve" smooth="yes"/>
      <point x="607" y="-12"/>
      <point x="679" y="46"/>
      <point x="679" y="144" type="curve" smooth="yes"/>
      <point x="679" y="209"/>
      <point x="644" y="258"/>
      <point x="572" y="283" type="curve"/>
      <point x="574" y="278" type="line"/>
      <point x="644" y="312"/>
      <point x="668" y="354"/>
      <point x="668" y="416" type="curve" smooth="yes"/>
      <point x="668" y="504"/>
      <point x="589" y="574"/>
    </contour>
  </outline>
</glyph>
<glyph name="dhamlym" format="2">
  <advance width="993"/>
  <unicode hex="0D27"/>
  <outline>
    <contour>
      <point x="678" y="-12" type="curve" smooth="yes"/>
      <point x="856" y="-12"/>
      <point x="956" y="107"/>
      <point x="956" y="267" type="curve" smooth="yes"/>
      <point x="956" y="394"/>
      <point x="906" y="486"/>
      <point x="815" y="574" type="curve"/>
      <point x="711" y="498" type="line"/>
      <point x="781" y="421"/>
      <point x="807" y="350"/>
      <point x="807" y="268" type="curve" smooth="yes"/>
      <point x="807" y="146"/>
      <point x="738" y="94"/>
      <point x="670" y="94" type="curve" smooth="yes"/>
      <point x="630" y="94"/>
      <point x="607" y="107"/>
      <point x="593" y="126" type="curve" smooth="yes"/>
      <point x="576" y="150"/>
      <point x="570" y="179"/>
      <point x="570" y="239" type="curve" smooth="yes"/>
      <point x="570" y="562" type="line"/>
      <point x="423" y="562" type="line"/>
      <point x="423" y="241" type="line" smooth="yes"/>
      <point x="423" y="184"/>
      <point x="417" y="151"/>
      <point x="399" y="127" type="curve" smooth="yes"/>
      <point x="384" y="109"/>
      <point x="362" y="94"/>
      <point x="323" y="94" type="curve" smooth="yes"/>
      <point x="248" y="94"/>
      <point x="186" y="150"/>
      <point x="186" y="273" type="curve" smooth="yes"/>
      <point x="186" y="350"/>
      <point x="212" y="421"/>
      <point x="282" y="498" type="curve"/>
      <point x="178" y="574" type="line"/>
      <point x="86" y="487"/>
      <point x="37" y="391"/>
      <point x="37" y="263" type="curve" smooth="yes"/>
      <point x="37" y="106"/>
      <point x="136" y="-12"/>
      <point x="307" y="-12" type="curve" smooth="yes"/>
      <point x="395" y="-12"/>
      <point x="452" y="12"/>
      <point x="503" y="64" type="curve"/>
      <point x="490" y="64" type="line"/>
      <point x="544" y="13"/>
      <point x="585" y="-12"/>
    </contour>
  </outline>
</glyph>
<glyph name="namlym" format="2">
  <advance width="993"/>
  <unicode hex="0D28"/>
  <outline>
    <contour>
      <point x="315" y="574" type="curve" smooth="yes"/>
      <point x="137" y="574"/>
      <point x="37" y="455"/>
      <point x="37" y="295" type="curve" smooth="yes"/>
      <point x="37" y="168"/>
      <point x="87" y="76"/>
      <point x="178" y="-12" type="curve"/>
      <point x="282" y="64" type="line"/>
      <point x="212" y="141"/>
      <point x="186" y="212"/>
      <point x="186" y="294" type="curve" smooth="yes"/>
      <point x="186" y="416"/>
      <point x="255" y="468"/>
      <point x="323" y="468" type="curve" smooth="yes"/>
      <point x="363" y="468"/>
      <point x="386" y="455"/>
      <point x="400" y="436" type="curve" smooth="yes"/>
      <point x="417" y="412"/>
      <point x="423" y="383"/>
      <point x="423" y="323" type="curve" smooth="yes"/>
      <point x="423" y="0" type="line"/>
      <point x="570" y="0" type="line"/>
      <point x="570" y="321" type="line" smooth="yes"/>
      <point x="570" y="378"/>
      <point x="576" y="411"/>
      <point x="594" y="435" type="curve" smooth="yes"/>
      <point x="609" y="453"/>
      <point x="631" y="468"/>
      <point x="670" y="468" type="curve" smooth="yes"/>
      <point x="745" y="468"/>
      <point x="807" y="412"/>
      <point x="807" y="289" type="curve" smooth="yes"/>
      <point x="807" y="212"/>
      <point x="781" y="141"/>
      <point x="711" y="64" type="curve"/>
      <point x="815" y="-12" type="line"/>
      <point x="907" y="75"/>
      <point x="956" y="171"/>
      <point x="956" y="299" type="curve" smooth="yes"/>
      <point x="956" y="456"/>
      <point x="857" y="574"/>
      <point x="686" y="574" type="curve" smooth="yes"/>
      <point x="598" y="574"/>
      <point x="541" y="550"/>
      <point x="490" y="498" type="curve"/>
      <point x="503" y="498" type="line"/>
      <point x="449" y="549"/>
      <point x="408" y="574"/>
    </contour>
  </outline>
</glyph>
<glyph name="nnnamlym" format="2">
  <advance width="1126"/>
  <unicode hex="0D29"/>
  <outline>
    <contour>
      <point x="399" y="574" type="curve" smooth="yes"/>
      <point x="196" y="574"/>
      <point x="37" y="457"/>
      <point x="37" y="242" type="curve" smooth="yes"/>
      <point x="37" y="62"/>
      <point x="146" y="-12"/>
      <point x="267" y="-12" type="curve" smooth="yes"/>
      <point x="395" y="-12"/>
      <point x="469" y="58"/>
      <point x="469" y="174" type="curve" smooth="yes"/>
      <point x="469" y="279"/>
      <point x="405" y="347"/>
      <point x="291" y="347" type="curve" smooth="yes"/>
      <point x="208" y="347"/>
      <point x="141" y="306"/>
      <point x="104" y="267" type="curve"/>
      <point x="116" y="168" type="line"/>
      <point x="161" y="219"/>
      <point x="206" y="247"/>
      <point x="255" y="247" type="curve" smooth="yes"/>
      <point x="304" y="247"/>
      <point x="327" y="217"/>
      <point x="327" y="167" type="curve" smooth="yes"/>
      <point x="327" y="115"/>
      <point x="304" y="88"/>
      <point x="262" y="88" type="curve" smooth="yes"/>
      <point x="211" y="88"/>
      <point x="172" y="125"/>
      <point x="172" y="237" type="curve" smooth="yes"/>
      <point x="172" y="240" type="line" smooth="yes"/>
      <point x="172" y="390"/>
      <point x="268" y="468"/>
      <point x="396" y="468" type="curve" smooth="yes"/>
      <point x="454" y="468"/>
      <point x="486" y="455"/>
      <point x="511" y="433" type="curve" smooth="yes"/>
      <point x="539" y="409"/>
      <point x="556" y="371"/>
      <point x="556" y="268" type="curve" smooth="yes"/>
      <point x="556" y="0" type="line"/>
      <point x="703" y="0" type="line"/>
      <point x="703" y="321" type="line" smooth="yes"/>
      <point x="703" y="378"/>
      <point x="708" y="411"/>
      <point x="727" y="435" type="curve" smooth="yes"/>
      <point x="742" y="453"/>
      <point x="764" y="468"/>
      <point x="803" y="468" type="curve" smooth="yes"/>
      <point x="878" y="468"/>
      <point x="940" y="412"/>
      <point x="940" y="289" type="curve" smooth="yes"/>
      <point x="940" y="212"/>
      <point x="914" y="141"/>
      <point x="844" y="64" type="curve"/>
      <point x="948" y="-12" type="line"/>
      <point x="1037" y="73"/>
      <point x="1089" y="167"/>
      <point x="1089" y="299" type="curve" smooth="yes"/>
      <point x="1089" y="456"/>
      <point x="990" y="574"/>
      <point x="818" y="574" type="curve" smooth="yes"/>
      <point x="731" y="574"/>
      <point x="667" y="549"/>
      <point x="621" y="494" type="curve"/>
      <point x="658" y="473" type="line"/>
      <point x="594" y="540"/>
      <point x="519" y="574"/>
    </contour>
  </outline>
</glyph>
<glyph name="phamlym" format="2">
  <advance width="1250"/>
  <unicode hex="0D2B"/>
  <outline>
    <contour>
      <point x="265" y="362" type="curve" smooth="yes"/>
      <point x="125" y="362"/>
      <point x="29" y="286"/>
      <point x="29" y="170" type="curve" smooth="yes"/>
      <point x="29" y="97"/>
      <point x="57" y="42"/>
      <point x="106" y="-12" type="curve"/>
      <point x="220" y="44" type="line"/>
      <point x="198" y="75"/>
      <point x="175" y="107"/>
      <point x="175" y="162" type="curve" smooth="yes"/>
      <point x="175" y="216"/>
      <point x="204" y="258"/>
      <point x="266" y="258" type="curve" smooth="yes"/>
      <point x="326" y="258"/>
      <point x="355" y="215"/>
      <point x="355" y="161" type="curve" smooth="yes"/>
      <point x="355" y="114"/>
      <point x="337" y="80"/>
      <point x="321" y="58" type="curve"/>
      <point x="373" y="0" type="line"/>
      <point x="753" y="0" type="line"/>
      <point x="753" y="105" type="line"/>
      <point x="455" y="105" type="line"/>
      <point x="470" y="69" type="line"/>
      <point x="482" y="94"/>
      <point x="498" y="129"/>
      <point x="498" y="171" type="curve" smooth="yes"/>
      <point x="498" y="264"/>
      <point x="426" y="362"/>
    </contour>
    <component base="thapart" xOffset="268"/>
  </outline>
</glyph>
<glyph name="bamlym" format="2">
  <advance width="1440"/>
  <unicode hex="0D2C"/>
  <outline>
    <contour>
      <point x="399" y="574" type="curve" smooth="yes"/>
      <point x="196" y="574"/>
      <point x="37" y="457"/>
      <point x="37" y="242" type="curve" smooth="yes"/>
      <point x="37" y="62"/>
      <point x="146" y="-12"/>
      <point x="267" y="-12" type="curve" smooth="yes"/>
      <point x="395" y="-12"/>
      <point x="469" y="58"/>
      <point x="469" y="174" type="curve" smooth="yes"/>
      <point x="469" y="279"/>
      <point x="405" y="347"/>
      <point x="291" y="347" type="curve" smooth="yes"/>
      <point x="208" y="347"/>
      <point x="141" y="306"/>
      <point x="104" y="267" type="curve"/>
      <point x="116" y="168" type="line"/>
      <point x="161" y="219"/>
      <point x="206" y="247"/>
      <point x="255" y="247" type="curve" smooth="yes"/>
      <point x="304" y="247"/>
      <point x="327" y="217"/>
      <point x="327" y="167" type="curve" smooth="yes"/>
      <point x="327" y="115"/>
      <point x="304" y="88"/>
      <point x="262" y="88" type="curve" smooth="yes"/>
      <point x="211" y="88"/>
      <point x="172" y="125"/>
      <point x="172" y="237" type="curve" smooth="yes"/>
      <point x="172" y="240" type="line" smooth="yes"/>
      <point x="172" y="390"/>
      <point x="268" y="468"/>
      <point x="396" y="468" type="curve" smooth="yes"/>
      <point x="454" y="468"/>
      <point x="486" y="455"/>
      <point x="511" y="433" type="curve" smooth="yes"/>
      <point x="539" y="409"/>
      <point x="556" y="370"/>
      <point x="556" y="269" type="curve" smooth="yes"/>
      <point x="556" y="0" type="line"/>
      <point x="703" y="0" type="line"/>
      <point x="703" y="248" type="line"/>
      <point x="682" y="401" type="line"/>
      <point x="658" y="473" type="line"/>
      <point x="594" y="540"/>
      <point x="519" y="574"/>
    </contour>
    <contour>
      <point x="1377" y="562" type="line"/>
      <point x="1230" y="562" type="line"/>
      <point x="1230" y="105" type="line"/>
      <point x="986" y="105" type="line"/>
      <point x="1022" y="88" type="line"/>
      <point x="1065" y="146"/>
      <point x="1087" y="215"/>
      <point x="1087" y="299" type="curve" smooth="yes"/>
      <point x="1087" y="456"/>
      <point x="988" y="574"/>
      <point x="818" y="574" type="curve" smooth="yes"/>
      <point x="729" y="574"/>
      <point x="667" y="549"/>
      <point x="621" y="494" type="curve"/>
      <point x="613" y="423" type="line"/>
      <point x="556" y="242" type="line"/>
      <point x="556" y="0" type="line"/>
      <point x="703" y="0" type="line"/>
      <point x="703" y="321" type="line" smooth="yes"/>
      <point x="703" y="378"/>
      <point x="708" y="411"/>
      <point x="727" y="435" type="curve" smooth="yes"/>
      <point x="742" y="453"/>
      <point x="764" y="468"/>
      <point x="803" y="468" type="curve" smooth="yes"/>
      <point x="878" y="468"/>
      <point x="938" y="412"/>
      <point x="938" y="289" type="curve" smooth="yes"/>
      <point x="938" y="209"/>
      <point x="913" y="148"/>
      <point x="846" y="61" type="curve"/>
      <point x="890" y="0" type="line"/>
      <point x="1377" y="0" type="line"/>
    </contour>
  </outline>
</glyph>
<glyph name="bhamlym" format="2">
  <advance width="740"/>
  <unicode hex="0D2D"/>
  <outline>
    <contour>
      <point x="450" y="574" type="curve" smooth="yes"/>
      <point x="180" y="574"/>
      <point x="45" y="439"/>
      <point x="45" y="222" type="curve" smooth="yes"/>
      <point x="45" y="151"/>
      <point x="59" y="62"/>
      <point x="82" y="-4" type="curve"/>
      <point x="220" y="22" type="line"/>
      <point x="202" y="81"/>
      <point x="194" y="150"/>
      <point x="194" y="214" type="curve" smooth="yes"/>
      <point x="194" y="367"/>
      <point x="266" y="469"/>
      <point x="447" y="469" type="curve" smooth="yes"/>
      <point x="521" y="469"/>
      <point x="570" y="456"/>
      <point x="570" y="426" type="curve" smooth="yes"/>
      <point x="570" y="405"/>
      <point x="554" y="401"/>
      <point x="523" y="401" type="curve" smooth="yes"/>
      <point x="491" y="401" type="line" smooth="yes"/>
      <point x="407" y="401"/>
      <point x="365" y="385"/>
      <point x="335" y="359" type="curve" smooth="yes"/>
      <point x="309" y="337"/>
      <point x="298" y="306"/>
      <point x="298" y="271" type="curve" smooth="yes"/>
      <point x="298" y="240"/>
      <point x="308" y="216"/>
      <point x="322" y="198" type="curve" smooth="yes"/>
      <point x="347" y="165"/>
      <point x="400" y="147"/>
      <point x="508" y="147" type="curve" smooth="yes"/>
      <point x="522" y="147" type="line" smooth="yes"/>
      <point x="553" y="147"/>
      <point x="572" y="143"/>
      <point x="572" y="121" type="curve" smooth="yes"/>
      <point x="572" y="102"/>
      <point x="553" y="92"/>
      <point x="488" y="92" type="curve" smooth="yes"/>
      <point x="431" y="92"/>
      <point x="383" y="102"/>
      <point x="333" y="118" type="curve"/>
      <point x="289" y="23" type="line"/>
      <point x="349" y="0"/>
      <point x="411" y="-12"/>
      <point x="502" y="-12" type="curve" smooth="yes"/>
      <point x="648" y="-12"/>
      <point x="709" y="46"/>
      <point x="709" y="123" type="curve" smooth="yes"/>
      <point x="709" y="161"/>
      <point x="698" y="188"/>
      <point x="676" y="209" type="curve" smooth="yes"/>
      <point x="650" y="234"/>
      <point x="612" y="246"/>
      <point x="533" y="246" type="curve" smooth="yes"/>
      <point x="517" y="246" type="line" smooth="yes"/>
      <point x="468" y="246"/>
      <point x="435" y="249"/>
      <point x="435" y="273" type="curve" smooth="yes"/>
      <point x="435" y="282"/>
      <point x="439" y="290"/>
      <point x="448" y="295" type="curve" smooth="yes"/>
      <point x="458" y="300"/>
      <point x="473" y="302"/>
      <point x="511" y="302" type="curve" smooth="yes"/>
      <point x="544" y="302" type="line"/>
      <point x="624" y="302"/>
      <point x="658" y="316"/>
      <point x="682" y="343" type="curve" smooth="yes"/>
      <point x="700" y="363"/>
      <point x="709" y="390"/>
      <point x="709" y="423" type="curve" smooth="yes"/>
      <point x="709" y="521"/>
      <point x="607" y="574"/>
    </contour>
  </outline>
</glyph>
<glyph name="mamlym" format="2">
  <advance width="813"/>
  <unicode hex="0D2E"/>
  <outline>
    <contour>
      <point x="396" y="574" type="curve" smooth="yes"/>
      <point x="277" y="574"/>
      <point x="202" y="546"/>
      <point x="145" y="498" type="curve" smooth="yes"/>
      <point x="83" y="447"/>
      <point x="56" y="372"/>
      <point x="56" y="257" type="curve" smooth="yes"/>
      <point x="56" y="0" type="line"/>
      <point x="757" y="0" type="line"/>
      <point x="757" y="255" type="line" smooth="yes"/>
      <point x="757" y="377"/>
      <point x="729" y="447"/>
      <point x="666" y="499" type="curve" smooth="yes"/>
      <point x="607" y="546"/>
      <point x="520" y="574"/>
    </contour>
    <contour>
      <point x="322" y="468" type="curve" smooth="yes"/>
      <point x="370" y="468"/>
      <point x="383" y="434"/>
      <point x="383" y="392" type="curve" smooth="yes"/>
      <point x="383" y="280"/>
      <point x="287" y="169"/>
      <point x="167" y="70" type="curve"/>
      <point x="203" y="68" type="line"/>
      <point x="203" y="273" type="line" smooth="yes"/>
      <point x="203" y="335"/>
      <point x="212" y="377"/>
      <point x="229" y="408" type="curve" smooth="yes"/>
      <point x="250" y="445"/>
      <point x="282" y="468"/>
    </contour>
    <contour>
      <point x="528" y="370" type="curve" smooth="yes"/>
      <point x="528" y="423"/>
      <point x="508" y="457"/>
      <point x="492" y="479" type="curve"/>
      <point x="488" y="475" type="line"/>
      <point x="577" y="436"/>
      <point x="610" y="381"/>
      <point x="610" y="254" type="curve" smooth="yes"/>
      <point x="610" y="105" type="line"/>
      <point x="439" y="105" type="line" smooth="yes"/>
      <point x="421" y="105"/>
      <point x="381" y="104"/>
      <point x="348" y="100" type="curve"/>
      <point x="374" y="94" type="line"/>
      <point x="466" y="185"/>
      <point x="528" y="273"/>
    </contour>
  </outline>
</glyph>
<glyph name="ramlym" format="2">
  <advance width="819"/>
  <unicode hex="0D30"/>
  <outline>
    <contour>
      <point x="395" y="574" type="curve" smooth="yes"/>
      <point x="138" y="574"/>
      <point x="37" y="432"/>
      <point x="37" y="281" type="curve" smooth="yes"/>
      <point x="37" y="148"/>
      <point x="102" y="61"/>
      <point x="191" y="-12" type="curve"/>
      <point x="289" y="64" type="line"/>
      <point x="222" y="129"/>
      <point x="187" y="188"/>
      <point x="187" y="281" type="curve" smooth="yes"/>
      <point x="187" y="393"/>
      <point x="258" y="467"/>
      <point x="410" y="467" type="curve" smooth="yes"/>
      <point x="539" y="467"/>
      <point x="615" y="403"/>
      <point x="629" y="329" type="curve"/>
      <point x="632" y="324"/>
      <point x="630" y="313"/>
      <point x="632" y="307" type="curve"/>
      <point x="636" y="284"/>
      <point x="638" y="258"/>
      <point x="638" y="239" type="curve" smooth="yes"/>
      <point x="638" y="137"/>
      <point x="604" y="93"/>
      <point x="547" y="93" type="curve" smooth="yes"/>
      <point x="489" y="93"/>
      <point x="463" y="137"/>
      <point x="463" y="202" type="curve" smooth="yes"/>
      <point x="463" y="269"/>
      <point x="491" y="310"/>
      <point x="556" y="310" type="curve" smooth="yes"/>
      <point x="619" y="310"/>
      <point x="661" y="257"/>
      <point x="673" y="207" type="curve"/>
      <point x="728" y="204" type="line"/>
      <point x="721" y="307"/>
      <point x="639" y="410"/>
      <point x="520" y="410" type="curve" smooth="yes"/>
      <point x="391" y="410"/>
      <point x="320" y="327"/>
      <point x="320" y="206" type="curve" smooth="yes"/>
      <point x="320" y="88"/>
      <point x="384" y="-12"/>
      <point x="540" y="-12" type="curve" smooth="yes"/>
      <point x="690" y="-12"/>
      <point x="782" y="65"/>
      <point x="782" y="236" type="curve" smooth="yes"/>
      <point x="782" y="423"/>
      <point x="656" y="574"/>
    </contour>
  </outline>
</glyph>
<glyph name="rramlym" format="2">
  <advance width="743"/>
  <unicode hex="0D31"/>
  <outline>
    <contour>
      <point x="373" y="574" type="curve" smooth="yes"/>
      <point x="135" y="574"/>
      <point x="37" y="425"/>
      <point x="37" y="281" type="curve" smooth="yes"/>
      <point x="37" y="148"/>
      <point x="102" y="61"/>
      <point x="191" y="-12" type="curve"/>
      <point x="291" y="64" type="line"/>
      <point x="223" y="129"/>
      <point x="189" y="188"/>
      <point x="189" y="281" type="curve" smooth="yes"/>
      <point x="189" y="393"/>
      <point x="262" y="467"/>
      <point x="374" y="467" type="curve" smooth="yes"/>
      <point x="480" y="467"/>
      <point x="554" y="391"/>
      <point x="554" y="279" type="curve" smooth="yes"/>
      <point x="554" y="180"/>
      <point x="512" y="124"/>
      <point x="452" y="64" type="curve"/>
      <point x="550" y="-12" type="line"/>
      <point x="643" y="62"/>
      <point x="706" y="148"/>
      <point x="706" y="280" type="curve" smooth="yes"/>
      <point x="706" y="430"/>
      <point x="613" y="574"/>
    </contour>
  </outline>
</glyph>
<glyph name="lamlym" format="2">
  <advance width="938"/>
  <unicode hex="0D32"/>
  <outline>
    <contour>
      <point x="875" y="562" type="line"/>
      <point x="728" y="562" type="line"/>
      <point x="728" y="105" type="line"/>
      <point x="205" y="105" type="line"/>
      <point x="205" y="213" type="line"/>
      <point x="600" y="213" type="line"/>
      <point x="600" y="301" type="line" smooth="yes"/>
      <point x="600" y="396"/>
      <point x="581" y="454"/>
      <point x="530" y="505" type="curve" smooth="yes"/>
      <point x="486" y="549"/>
      <point x="419" y="574"/>
      <point x="330" y="574" type="curve" smooth="yes"/>
      <point x="240" y="574"/>
      <point x="171" y="549"/>
      <point x="127" y="505" type="curve" smooth="yes"/>
      <point x="85" y="463"/>
      <point x="58" y="410"/>
      <point x="58" y="303" type="curve" smooth="yes"/>
      <point x="58" y="0" type="line"/>
      <point x="875" y="0" type="line"/>
    </contour>
    <contour>
      <point x="329" y="469" type="curve" smooth="yes"/>
      <point x="414" y="469"/>
      <point x="453" y="412"/>
      <point x="453" y="322" type="curve" smooth="yes"/>
      <point x="453" y="318" type="line"/>
      <point x="205" y="318" type="line"/>
      <point x="205" y="323" type="line" smooth="yes"/>
      <point x="205" y="408"/>
      <point x="239" y="469"/>
    </contour>
  </outline>
</glyph>
<glyph name="llamlym" format="2">
  <advance width="784"/>
  <unicode hex="0D33"/>
  <outline>
    <contour>
      <point x="409" y="469" type="curve" smooth="yes"/>
      <point x="553" y="469"/>
      <point x="592" y="442"/>
      <point x="592" y="393" type="curve" smooth="yes"/>
      <point x="592" y="373"/>
      <point x="585" y="358"/>
      <point x="571" y="349" type="curve" smooth="yes"/>
      <point x="553" y="337"/>
      <point x="533" y="335"/>
      <point x="498" y="335" type="curve" smooth="yes"/>
      <point x="489" y="335" type="line"/>
      <point x="489" y="310" type="line"/>
      <point x="543" y="258" type="line"/>
      <point x="669" y="277"/>
      <point x="740" y="325"/>
      <point x="740" y="407" type="curve" smooth="yes"/>
      <point x="740" y="516"/>
      <point x="640" y="574"/>
      <point x="425" y="574" type="curve" smooth="yes"/>
      <point x="151" y="574"/>
      <point x="37" y="453"/>
      <point x="37" y="322" type="curve" smooth="yes"/>
      <point x="37" y="201"/>
      <point x="118" y="126"/>
      <point x="232" y="126" type="curve" smooth="yes"/>
      <point x="367" y="126"/>
      <point x="425" y="200"/>
      <point x="425" y="284" type="curve" smooth="yes"/>
      <point x="425" y="362"/>
      <point x="377" y="429"/>
      <point x="258" y="429" type="curve" smooth="yes"/>
      <point x="177" y="429"/>
      <point x="86" y="371"/>
      <point x="48" y="325" type="curve"/>
      <point x="126" y="315" type="line"/>
      <point x="159" y="331"/>
      <point x="188" y="344"/>
      <point x="229" y="344" type="curve" smooth="yes"/>
      <point x="270" y="344"/>
      <point x="290" y="318"/>
      <point x="290" y="283" type="curve" smooth="yes"/>
      <point x="290" y="247"/>
      <point x="272" y="219"/>
      <point x="229" y="219" type="curve" smooth="yes"/>
      <point x="184" y="219"/>
      <point x="157" y="254"/>
      <point x="157" y="309" type="curve" smooth="yes"/>
      <point x="157" y="333"/>
      <point x="159" y="345"/>
      <point x="163" y="356" type="curve" smooth="yes"/>
      <point x="164" y="360"/>
      <point x="161" y="363"/>
      <point x="163" y="367" type="curve"/>
      <point x="184" y="440"/>
      <point x="281" y="469"/>
    </contour>
    <contour>
      <point x="750" y="156" type="curve" smooth="yes"/>
      <point x="750" y="226"/>
      <point x="706" y="275"/>
      <point x="602" y="308" type="curve"/>
      <point x="489" y="324" type="line"/>
      <point x="489" y="230" type="line"/>
      <point x="500" y="230" type="line" smooth="yes"/>
      <point x="544" y="230"/>
      <point x="563" y="226"/>
      <point x="577" y="217" type="curve" smooth="yes"/>
      <point x="595" y="206"/>
      <point x="603" y="188"/>
      <point x="603" y="167" type="curve" smooth="yes"/>
      <point x="603" y="147"/>
      <point x="595" y="131"/>
      <point x="581" y="122" type="curve"/>
      <point x="564" y="109"/>
      <point x="535" y="105"/>
      <point x="479" y="105" type="curve" smooth="yes"/>
      <point x="283" y="105" type="line" smooth="yes"/>
      <point x="190" y="105"/>
      <point x="145" y="92"/>
      <point x="110" y="71" type="curve" smooth="yes"/>
      <point x="65" y="43"/>
      <point x="44" y="0"/>
      <point x="44" y="-51" type="curve" smooth="yes"/>
      <point x="44" y="-101"/>
      <point x="66" y="-140"/>
      <point x="107" y="-166" type="curve" smooth="yes"/>
      <point x="144" y="-189"/>
      <point x="205" y="-201"/>
      <point x="283" y="-201" type="curve" smooth="yes"/>
      <point x="730" y="-201" type="line"/>
      <point x="730" y="-94" type="line"/>
      <point x="302" y="-94" type="line" smooth="yes"/>
      <point x="244" y="-94"/>
      <point x="224" y="-89"/>
      <point x="210" y="-81" type="curve"/>
      <point x="197" y="-72"/>
      <point x="192" y="-60"/>
      <point x="192" y="-45" type="curve" smooth="yes"/>
      <point x="192" y="-30"/>
      <point x="198" y="-18"/>
      <point x="215" y="-10" type="curve" smooth="yes"/>
      <point x="228" y="-3"/>
      <point x="247" y="0"/>
      <point x="305" y="0" type="curve" smooth="yes"/>
      <point x="495" y="0" type="line" smooth="yes"/>
      <point x="617" y="0"/>
      <point x="663" y="12"/>
      <point x="701" y="43" type="curve" smooth="yes"/>
      <point x="731" y="69"/>
      <point x="750" y="108"/>
    </contour>
  </outline>
</glyph>
<glyph name="lllamlym" format="2">
  <advance width="733"/>
  <unicode hex="0D34"/>
  <outline>
    <contour>
      <point x="277" y="410" type="curve" smooth="yes"/>
      <point x="277" y="297"/>
      <point x="367" y="222"/>
      <point x="367" y="147" type="curve" smooth="yes"/>
      <point x="367" y="125"/>
      <point x="352" y="94"/>
      <point x="293" y="94" type="curve" smooth="yes"/>
      <point x="253" y="94"/>
      <point x="219" y="102"/>
      <point x="174" y="121" type="curve"/>
      <point x="131" y="23" type="line"/>
      <point x="194" y="-3"/>
      <point x="256" y="-12"/>
      <point x="318" y="-12" type="curve" smooth="yes"/>
      <point x="467" y="-12"/>
      <point x="507" y="62"/>
      <point x="507" y="136" type="curve" smooth="yes"/>
      <point x="507" y="241"/>
      <point x="419" y="309"/>
      <point x="419" y="402" type="curve" smooth="yes"/>
      <point x="419" y="443"/>
      <point x="442" y="475"/>
      <point x="485" y="475" type="curve" smooth="yes"/>
      <point x="537" y="475"/>
      <point x="554" y="436"/>
      <point x="554" y="396" type="curve" smooth="yes"/>
      <point x="554" y="308"/>
      <point x="496" y="250"/>
      <point x="394" y="250" type="curve" smooth="yes"/>
      <point x="356" y="250" type="line" smooth="yes"/>
      <point x="259" y="250"/>
      <point x="181" y="299"/>
      <point x="181" y="406" type="curve" smooth="yes"/>
      <point x="181" y="449"/>
      <point x="191" y="479"/>
      <point x="210" y="518" type="curve"/>
      <point x="94" y="575" type="line"/>
      <point x="52" y="517"/>
      <point x="34" y="458"/>
      <point x="34" y="403" type="curve" smooth="yes"/>
      <point x="34" y="253"/>
      <point x="143" y="154"/>
      <point x="355" y="154" type="curve" smooth="yes"/>
      <point x="398" y="154" type="line" smooth="yes"/>
      <point x="592" y="154"/>
      <point x="700" y="257"/>
      <point x="700" y="389" type="curve" smooth="yes"/>
      <point x="700" y="482"/>
      <point x="642" y="574"/>
      <point x="485" y="574" type="curve" smooth="yes"/>
      <point x="349" y="574"/>
      <point x="277" y="507"/>
    </contour>
  </outline>
</glyph>
<glyph name="vamlym" format="2">
  <advance width="1059"/>
  <unicode hex="0D35"/>
  <outline>
    <contour>
      <point x="373" y="574" type="curve" smooth="yes"/>
      <point x="135" y="574"/>
      <point x="37" y="425"/>
      <point x="37" y="281" type="curve" smooth="yes"/>
      <point x="37" y="148"/>
      <point x="102" y="61"/>
      <point x="191" y="-12" type="curve"/>
      <point x="291" y="64" type="line"/>
      <point x="223" y="129"/>
      <point x="189" y="188"/>
      <point x="189" y="281" type="curve" smooth="yes"/>
      <point x="189" y="393"/>
      <point x="262" y="467"/>
      <point x="374" y="467" type="curve" smooth="yes"/>
      <point x="480" y="467"/>
      <point x="554" y="391"/>
      <point x="554" y="279" type="curve" smooth="yes"/>
      <point x="554" y="180"/>
      <point x="512" y="124"/>
      <point x="458" y="70" type="curve"/>
      <point x="507" y="0" type="line"/>
      <point x="996" y="0" type="line"/>
      <point x="996" y="562" type="line"/>
      <point x="849" y="562" type="line"/>
      <point x="849" y="105" type="line"/>
      <point x="607" y="105" type="line"/>
      <point x="580" y="22" type="line"/>
      <point x="650" y="101"/>
      <point x="703" y="164"/>
      <point x="703" y="290" type="curve" smooth="yes"/>
      <point x="703" y="431"/>
      <point x="610" y="574"/>
    </contour>
  </outline>
</glyph>
<glyph name="shamlym" format="2">
  <advance width="1147"/>
  <unicode hex="0D36"/>
  <outline>
    <contour>
      <point x="739" y="574" type="curve" smooth="yes"/>
      <point x="623" y="574"/>
      <point x="555" y="555"/>
      <point x="493" y="502" type="curve" smooth="yes"/>
      <point x="441" y="458"/>
      <point x="406" y="388"/>
      <point x="406" y="262" type="curve" smooth="yes"/>
      <point x="406" y="249" type="line" smooth="yes"/>
      <point x="406" y="199"/>
      <point x="400" y="161"/>
      <point x="384" y="134" type="curve" smooth="yes"/>
      <point x="369" y="108"/>
      <point x="342" y="95"/>
      <point x="303" y="95" type="curve" smooth="yes"/>
      <point x="238" y="95"/>
      <point x="186" y="145"/>
      <point x="186" y="271" type="curve" smooth="yes"/>
      <point x="186" y="352"/>
      <point x="212" y="422"/>
      <point x="281" y="499" type="curve"/>
      <point x="179" y="575" type="line"/>
      <point x="88" y="489"/>
      <point x="37" y="396"/>
      <point x="37" y="264" type="curve" smooth="yes"/>
      <point x="37" y="96"/>
      <point x="142" y="-12"/>
      <point x="308" y="-12" type="curve" smooth="yes"/>
      <point x="396" y="-12"/>
      <point x="457" y="12"/>
      <point x="497" y="55" type="curve" smooth="yes"/>
      <point x="540" y="102"/>
      <point x="556" y="171"/>
      <point x="556" y="249" type="curve" smooth="yes"/>
      <point x="556" y="253" type="line" smooth="yes"/>
      <point x="556" y="332"/>
      <point x="568" y="394"/>
      <point x="612" y="431" type="curve" smooth="yes"/>
      <point x="642" y="456"/>
      <point x="679" y="467"/>
      <point x="743" y="467" type="curve" smooth="yes"/>
      <point x="875" y="467"/>
      <point x="949" y="402"/>
      <point x="961" y="328" type="curve"/>
      <point x="965" y="324"/>
      <point x="959" y="313"/>
      <point x="961" y="307" type="curve"/>
      <point x="965" y="284"/>
      <point x="966" y="258"/>
      <point x="966" y="239" type="curve" smooth="yes"/>
      <point x="966" y="137"/>
      <point x="931" y="93"/>
      <point x="875" y="93" type="curve" smooth="yes"/>
      <point x="816" y="93"/>
      <point x="791" y="137"/>
      <point x="791" y="202" type="curve" smooth="yes"/>
      <point x="791" y="269"/>
      <point x="819" y="310"/>
      <point x="883" y="310" type="curve" smooth="yes"/>
      <point x="946" y="310"/>
      <point x="989" y="257"/>
      <point x="1000" y="207" type="curve"/>
      <point x="1056" y="204" type="line"/>
      <point x="1050" y="307"/>
      <point x="967" y="410"/>
      <point x="848" y="410" type="curve" smooth="yes"/>
      <point x="718" y="410"/>
      <point x="648" y="327"/>
      <point x="648" y="206" type="curve" smooth="yes"/>
      <point x="648" y="88"/>
      <point x="712" y="-12"/>
      <point x="868" y="-12" type="curve" smooth="yes"/>
      <point x="1018" y="-12"/>
      <point x="1110" y="65"/>
      <point x="1110" y="236" type="curve" smooth="yes"/>
      <point x="1110" y="443"/>
      <point x="968" y="574"/>
    </contour>
  </outline>
</glyph>
<glyph name="ssamlym" format="2">
  <advance width="1280"/>
  <unicode hex="0D37"/>
  <outline>
    <contour>
      <point x="265" y="362" type="curve" smooth="yes"/>
      <point x="125" y="362"/>
      <point x="29" y="286"/>
      <point x="29" y="170" type="curve" smooth="yes"/>
      <point x="29" y="97"/>
      <point x="57" y="42"/>
      <point x="106" y="-12" type="curve"/>
      <point x="220" y="44" type="line"/>
      <point x="198" y="75"/>
      <point x="175" y="107"/>
      <point x="175" y="162" type="curve" smooth="yes"/>
      <point x="175" y="216"/>
      <point x="204" y="258"/>
      <point x="266" y="258" type="curve" smooth="yes"/>
      <point x="326" y="258"/>
      <point x="355" y="215"/>
      <point x="355" y="161" type="curve" smooth="yes"/>
      <point x="355" y="114"/>
      <point x="337" y="80"/>
      <point x="321" y="58" type="curve"/>
      <point x="373" y="0" type="line"/>
      <point x="792" y="0" type="line"/>
      <point x="734" y="105" type="line"/>
      <point x="460" y="105" type="line"/>
      <point x="470" y="69" type="line"/>
      <point x="482" y="94"/>
      <point x="498" y="129"/>
      <point x="498" y="171" type="curve" smooth="yes"/>
      <point x="498" y="264"/>
      <point x="426" y="362"/>
    </contour>
    <contour>
      <point x="717" y="0" type="line"/>
      <point x="1217" y="0" type="line"/>
      <point x="1217" y="562" type="line"/>
      <point x="1071" y="562" type="line"/>
      <point x="1010" y="457"/>
      <point x="932" y="330"/>
      <point x="772" y="330" type="curve" smooth="yes"/>
      <point x="726" y="330" type="line" smooth="yes"/>
      <point x="630" y="330"/>
      <point x="613" y="370"/>
      <point x="613" y="408" type="curve" smooth="yes"/>
      <point x="613" y="451"/>
      <point x="636" y="470"/>
      <point x="668" y="470" type="curve" smooth="yes"/>
      <point x="686" y="470"/>
      <point x="698" y="462"/>
      <point x="705" y="452" type="curve" smooth="yes"/>
      <point x="713" y="439"/>
      <point x="717" y="421"/>
      <point x="717" y="386" type="curve" smooth="yes"/>
    </contour>
    <contour>
      <point x="667" y="574" type="curve" smooth="yes"/>
      <point x="541" y="574"/>
      <point x="473" y="497"/>
      <point x="473" y="412" type="curve" smooth="yes"/>
      <point x="473" y="312"/>
      <point x="540" y="229"/>
      <point x="728" y="229" type="curve" smooth="yes"/>
      <point x="794" y="229" type="line" smooth="yes"/>
      <point x="897" y="229"/>
      <point x="1010" y="277"/>
      <point x="1080" y="390" type="curve"/>
      <point x="1077" y="403" type="line"/>
      <point x="1074" y="378"/>
      <point x="1071" y="340"/>
      <point x="1071" y="305" type="curve" smooth="yes"/>
      <point x="1071" y="105" type="line"/>
      <point x="861" y="105" type="line"/>
      <point x="861" y="371" type="line" smooth="yes"/>
      <point x="861" y="460"/>
      <point x="840" y="504"/>
      <point x="801" y="535" type="curve" smooth="yes"/>
      <point x="769" y="561"/>
      <point x="723" y="574"/>
    </contour>
  </outline>
</glyph>
<glyph name="samlym" format="2">
  <advance width="1334"/>
  <unicode hex="0D38"/>
  <outline>
    <contour>
      <point x="681" y="574" type="curve" smooth="yes"/>
      <point x="586" y="574"/>
      <point x="538" y="543"/>
      <point x="490" y="496" type="curve"/>
      <point x="501" y="496" type="line"/>
      <point x="448" y="551"/>
      <point x="391" y="574"/>
      <point x="305" y="574" type="curve" smooth="yes"/>
      <point x="135" y="574"/>
      <point x="37" y="456"/>
      <point x="37" y="299" type="curve" smooth="yes"/>
      <point x="37" y="171"/>
      <point x="86" y="75"/>
      <point x="178" y="-12" type="curve"/>
      <point x="282" y="64" type="line"/>
      <point x="212" y="141"/>
      <point x="186" y="212"/>
      <point x="186" y="289" type="curve" smooth="yes"/>
      <point x="186" y="408"/>
      <point x="244" y="468"/>
      <point x="320" y="468" type="curve" smooth="yes"/>
      <point x="347" y="468"/>
      <point x="377" y="457"/>
      <point x="395" y="434" type="curve" smooth="yes"/>
      <point x="415" y="408"/>
      <point x="418" y="379"/>
      <point x="418" y="303" type="curve" smooth="yes"/>
      <point x="418" y="0" type="line"/>
      <point x="565" y="0" type="line"/>
      <point x="565" y="312" type="line" smooth="yes"/>
      <point x="565" y="379"/>
      <point x="573" y="413"/>
      <point x="595" y="438" type="curve" smooth="yes"/>
      <point x="610" y="456"/>
      <point x="638" y="467"/>
      <point x="669" y="467" type="curve" smooth="yes"/>
      <point x="707" y="467"/>
      <point x="734" y="455"/>
      <point x="750" y="429" type="curve" smooth="yes"/>
      <point x="767" y="402"/>
      <point x="772" y="370"/>
      <point x="772" y="287" type="curve" smooth="yes"/>
      <point x="772" y="260" type="line" smooth="yes"/>
      <point x="772" y="171"/>
      <point x="788" y="102"/>
      <point x="831" y="55" type="curve" smooth="yes"/>
      <point x="871" y="12"/>
      <point x="934" y="-12"/>
      <point x="1022" y="-12" type="curve" smooth="yes"/>
      <point x="1189" y="-12"/>
      <point x="1297" y="96"/>
      <point x="1297" y="264" type="curve" smooth="yes"/>
      <point x="1297" y="396"/>
      <point x="1246" y="489"/>
      <point x="1155" y="575" type="curve"/>
      <point x="1053" y="499" type="line"/>
      <point x="1122" y="422"/>
      <point x="1148" y="352"/>
      <point x="1148" y="271" type="curve" smooth="yes"/>
      <point x="1148" y="145"/>
      <point x="1095" y="95"/>
      <point x="1028" y="95" type="curve" smooth="yes"/>
      <point x="986" y="95"/>
      <point x="960" y="108"/>
      <point x="944" y="134" type="curve" smooth="yes"/>
      <point x="927" y="161"/>
      <point x="922" y="199"/>
      <point x="922" y="271" type="curve" smooth="yes"/>
      <point x="922" y="307" type="line" smooth="yes"/>
      <point x="922" y="405"/>
      <point x="902" y="464"/>
      <point x="859" y="508" type="curve" smooth="yes"/>
      <point x="816" y="552"/>
      <point x="761" y="574"/>
    </contour>
  </outline>
</glyph>
<glyph name="hamlym" format="2">
  <advance width="1314"/>
  <unicode hex="0D39"/>
  <outline>
    <contour>
      <point x="265" y="362" type="curve" smooth="yes"/>
      <point x="125" y="362"/>
      <point x="29" y="286"/>
      <point x="29" y="170" type="curve" smooth="yes"/>
      <point x="29" y="97"/>
      <point x="57" y="42"/>
      <point x="106" y="-12" type="curve"/>
      <point x="220" y="44" type="line"/>
      <point x="198" y="75"/>
      <point x="175" y="107"/>
      <point x="175" y="162" type="curve" smooth="yes"/>
      <point x="175" y="216"/>
      <point x="204" y="258"/>
      <point x="266" y="258" type="curve" smooth="yes"/>
      <point x="326" y="258"/>
      <point x="355" y="215"/>
      <point x="355" y="161" type="curve" smooth="yes"/>
      <point x="355" y="114"/>
      <point x="337" y="80"/>
      <point x="321" y="58" type="curve"/>
      <point x="373" y="0" type="line"/>
      <point x="793" y="0" type="line"/>
      <point x="734" y="105" type="line"/>
      <point x="460" y="105" type="line"/>
      <point x="470" y="69" type="line"/>
      <point x="482" y="94"/>
      <point x="498" y="129"/>
      <point x="498" y="171" type="curve" smooth="yes"/>
      <point x="498" y="264"/>
      <point x="426" y="362"/>
    </contour>
    <contour>
      <point x="944" y="574" type="curve" smooth="yes"/>
      <point x="707" y="574"/>
      <point x="611" y="426"/>
      <point x="611" y="285" type="curve" smooth="yes"/>
      <point x="611" y="167"/>
      <point x="663" y="100"/>
      <point x="731" y="22" type="curve"/>
      <point x="772" y="0" type="line"/>
      <point x="807" y="0" type="line"/>
      <point x="856" y="70" type="line"/>
      <point x="793" y="132"/>
      <point x="760" y="188"/>
      <point x="760" y="281" type="curve" smooth="yes"/>
      <point x="760" y="393"/>
      <point x="833" y="467"/>
      <point x="945" y="467" type="curve" smooth="yes"/>
      <point x="1052" y="467"/>
      <point x="1125" y="391"/>
      <point x="1125" y="279" type="curve" smooth="yes"/>
      <point x="1125" y="180"/>
      <point x="1083" y="124"/>
      <point x="1023" y="64" type="curve"/>
      <point x="1121" y="-12" type="line"/>
      <point x="1214" y="62"/>
      <point x="1277" y="148"/>
      <point x="1277" y="280" type="curve" smooth="yes"/>
      <point x="1277" y="430"/>
      <point x="1184" y="574"/>
    </contour>
  </outline>
</glyph>
<glyph name="tttamlym" format="2">
  <advance width="784"/>
  <unicode hex="0D3A"/>
  <outline>
    <contour>
      <point x="765" y="105" type="line"/>
      <point x="177" y="105" type="line"/>
      <point x="337" y="519" type="line"/>
      <point x="202" y="564" type="line"/>
      <point x="19" y="83" type="line"/>
      <point x="85" y="0" type="line"/>
      <point x="357" y="0" type="line"/>
      <point x="357" y="-202" type="line"/>
      <point x="504" y="-202" type="line"/>
      <point x="504" y="0" type="line"/>
      <point x="765" y="0" type="line"/>
    </contour>
  </outline>
</glyph>
<glyph name="avagrahamlym" format="2">
  <advance width="526"/>
  <unicode hex="0D3D"/>
  <outline>
    <contour>
      <point x="410" y="800" type="curve" smooth="yes"/>
      <point x="333" y="800"/>
      <point x="279" y="774"/>
      <point x="245" y="736" type="curve" smooth="yes"/>
      <point x="200" y="686"/>
      <point x="188" y="619"/>
      <point x="188" y="492" type="curve" smooth="yes"/>
      <point x="188" y="14" type="line" smooth="yes"/>
      <point x="188" y="-48"/>
      <point x="186" y="-82"/>
      <point x="172" y="-108" type="curve" smooth="yes"/>
      <point x="162" y="-127"/>
      <point x="145" y="-139"/>
      <point x="119" y="-139" type="curve" smooth="yes"/>
      <point x="82" y="-139"/>
      <point x="63" y="-111"/>
      <point x="50" y="-58" type="curve"/>
      <point x="-92" y="-87" type="line"/>
      <point x="-66" y="-172"/>
      <point x="-5" y="-244"/>
      <point x="116" y="-244" type="curve" smooth="yes"/>
      <point x="193" y="-244"/>
      <point x="247" y="-219"/>
      <point x="281" y="-181" type="curve" smooth="yes"/>
      <point x="326" y="-131"/>
      <point x="338" y="-66"/>
      <point x="338" y="61" type="curve" smooth="yes"/>
      <point x="338" y="542" type="line" smooth="yes"/>
      <point x="338" y="611"/>
      <point x="342" y="643"/>
      <point x="354" y="665" type="curve" smooth="yes"/>
      <point x="366" y="685"/>
      <point x="384" y="695"/>
      <point x="407" y="695" type="curve" smooth="yes"/>
      <point x="445" y="695"/>
      <point x="462" y="666"/>
      <point x="476" y="615" type="curve"/>
      <point x="618" y="644" type="line"/>
      <point x="592" y="728"/>
      <point x="531" y="800"/>
    </contour>
  </outline>
</glyph>
<glyph name="aavowelsignmlym" format="2">
  <advance width="577"/>
  <unicode hex="0D3E"/>
  <outline>
    <contour>
      <point x="537" y="283" type="curve" smooth="yes"/>
      <point x="537" y="437"/>
      <point x="478" y="574"/>
      <point x="283" y="574" type="curve" smooth="yes"/>
      <point x="111" y="574"/>
      <point x="52" y="472"/>
      <point x="23" y="381" type="curve"/>
      <point x="173" y="355" type="line"/>
      <point x="185" y="410"/>
      <point x="212" y="470"/>
      <point x="277" y="470" type="curve" smooth="yes"/>
      <point x="353" y="470"/>
      <point x="385" y="393"/>
      <point x="385" y="281" type="curve" smooth="yes"/>
      <point x="385" y="169"/>
      <point x="354" y="92"/>
      <point x="274" y="92" type="curve" smooth="yes"/>
      <point x="203" y="92"/>
      <point x="183" y="157"/>
      <point x="170" y="208" type="curve"/>
      <point x="20" y="183" type="line"/>
      <point x="41" y="95"/>
      <point x="95" y="-12"/>
      <point x="272" y="-12" type="curve" smooth="yes"/>
      <point x="479" y="-12"/>
      <point x="537" y="126"/>
    </contour>
  </outline>
</glyph>
<glyph name="iivowelsignmlym" format="2">
  <advance width="274"/>
  <unicode hex="0D40"/>
  <outline>
    <contour>
      <point x="-92" y="851" type="curve" smooth="yes"/>
      <point x="-228" y="851"/>
      <point x="-286" y="790"/>
      <point x="-286" y="709" type="curve" smooth="yes"/>
      <point x="-286" y="625"/>
      <point x="-229" y="578"/>
      <point x="-134" y="578" type="curve"/>
      <point x="-22" y="578"/>
      <point x="21" y="640"/>
      <point x="21" y="714" type="curve" smooth="yes"/>
      <point x="21" y="740"/>
      <point x="14" y="764"/>
      <point x="3" y="777" type="curve"/>
      <point x="-127" y="796" type="line"/>
      <point x="-102" y="778"/>
      <point x="-82" y="752"/>
      <point x="-82" y="722" type="curve" smooth="yes"/>
      <point x="-82" y="692"/>
      <point x="-92" y="667"/>
      <point x="-133" y="667" type="curve" smooth="yes"/>
      <point x="-164" y="667"/>
      <point x="-178" y="688"/>
      <point x="-178" y="711" type="curve" smooth="yes"/>
      <point x="-178" y="752"/>
      <point x="-141" y="766"/>
      <point x="-102" y="766" type="curve" smooth="yes"/>
      <point x="-60" y="766"/>
      <point x="-28" y="762"/>
      <point x="-4" y="748" type="curve" smooth="yes"/>
      <point x="50" y="715"/>
      <point x="63" y="646"/>
      <point x="63" y="509" type="curve" smooth="yes"/>
      <point x="63" y="0" type="line"/>
      <point x="211" y="0" type="line"/>
      <point x="211" y="516" type="line" smooth="yes"/>
      <point x="211" y="667"/>
      <point x="186" y="751"/>
      <point x="102" y="804" type="curve" smooth="yes"/>
      <point x="45" y="840"/>
      <point x="-13" y="851"/>
    </contour>
  </outline>
</glyph>
<glyph name="uvowelsignmlym" format="2">
  <advance width="379"/>
  <unicode hex="0D41"/>
  <outline>
    <contour>
      <point x="177" y="-235" type="curve" smooth="yes"/>
      <point x="300" y="-235"/>
      <point x="387" y="-164"/>
      <point x="387" y="-53" type="curve" smooth="yes"/>
      <point x="387" y="58"/>
      <point x="300" y="128"/>
      <point x="176" y="128" type="curve" smooth="yes"/>
      <point x="54" y="128"/>
      <point x="-33" y="55"/>
      <point x="-33" y="-53" type="curve" smooth="yes"/>
      <point x="-33" y="-160"/>
      <point x="47" y="-235"/>
    </contour>
    <contour>
      <point x="177" y="-139" type="curve" smooth="yes"/>
      <point x="130" y="-139"/>
      <point x="95" y="-109"/>
      <point x="95" y="-54" type="curve" smooth="yes"/>
      <point x="95" y="3"/>
      <point x="130" y="32"/>
      <point x="176" y="32" type="curve" smooth="yes"/>
      <point x="225" y="32"/>
      <point x="259" y="3"/>
      <point x="259" y="-53" type="curve" smooth="yes"/>
      <point x="259" y="-111"/>
      <point x="223" y="-139"/>
    </contour>
    <contour>
      <point x="141" y="574" type="curve" smooth="yes"/>
      <point x="90" y="574"/>
      <point x="54" y="568"/>
      <point x="23" y="561" type="curve"/>
      <point x="45" y="460" type="line"/>
      <point x="62" y="465"/>
      <point x="80" y="467"/>
      <point x="100" y="467" type="curve" smooth="yes"/>
      <point x="152" y="467"/>
      <point x="167" y="427"/>
      <point x="167" y="375" type="curve" smooth="yes"/>
      <point x="167" y="304"/>
      <point x="148" y="215"/>
      <point x="115" y="113" type="curve"/>
      <point x="252" y="99" type="line"/>
      <point x="288" y="213"/>
      <point x="316" y="302"/>
      <point x="316" y="405" type="curve" smooth="yes"/>
      <point x="316" y="495"/>
      <point x="273" y="574"/>
    </contour>
  </outline>
</glyph>
<glyph name="uuvowelsignmlym" format="2">
  <advance width="379"/>
  <unicode hex="0D42"/>
  <outline>
    <contour>
      <point x="177" y="-235" type="curve" smooth="yes"/>
      <point x="300" y="-235"/>
      <point x="387" y="-164"/>
      <point x="387" y="-53" type="curve" smooth="yes"/>
      <point x="387" y="58"/>
      <point x="300" y="128"/>
      <point x="176" y="128" type="curve" smooth="yes"/>
      <point x="54" y="128"/>
      <point x="-33" y="55"/>
      <point x="-33" y="-53" type="curve" smooth="yes"/>
      <point x="-33" y="-160"/>
      <point x="47" y="-235"/>
    </contour>
    <contour>
      <point x="177" y="37" type="curve" smooth="yes"/>
      <point x="235" y="37"/>
      <point x="278" y="7"/>
      <point x="278" y="-53" type="curve" smooth="yes"/>
      <point x="278" y="-115"/>
      <point x="233" y="-144"/>
      <point x="177" y="-144" type="curve" smooth="yes"/>
      <point x="120" y="-144"/>
      <point x="76" y="-114"/>
      <point x="76" y="-54" type="curve" smooth="yes"/>
      <point x="76" y="7"/>
      <point x="120" y="37"/>
    </contour>
    <contour>
      <point x="178" y="-100" type="curve" smooth="yes"/>
      <point x="263" y="-100"/>
      <point x="293" y="-42"/>
      <point x="293" y="16" type="curve" smooth="yes"/>
      <point x="293" y="45"/>
      <point x="281" y="68"/>
      <point x="252" y="100" type="curve"/>
      <point x="205" y="70" type="line"/>
      <point x="228" y="61"/>
      <point x="237" y="43"/>
      <point x="237" y="31" type="curve" smooth="yes"/>
      <point x="237" y="1"/>
      <point x="214" y="-18"/>
      <point x="179" y="-18" type="curve" smooth="yes"/>
      <point x="141" y="-18"/>
      <point x="120" y="1"/>
      <point x="120" y="31" type="curve" smooth="yes"/>
      <point x="120" y="46"/>
      <point x="129" y="66"/>
      <point x="153" y="76" type="curve"/>
      <point x="105" y="100" type="line"/>
      <point x="80" y="69"/>
      <point x="64" y="41"/>
      <point x="64" y="17" type="curve" smooth="yes"/>
      <point x="64" y="-53"/>
      <point x="102" y="-100"/>
    </contour>
    <contour>
      <point x="141" y="574" type="curve" smooth="yes"/>
      <point x="90" y="574"/>
      <point x="54" y="568"/>
      <point x="23" y="561" type="curve"/>
      <point x="45" y="460" type="line"/>
      <point x="62" y="465"/>
      <point x="80" y="467"/>
      <point x="100" y="467" type="curve" smooth="yes"/>
      <point x="152" y="467"/>
      <point x="167" y="427"/>
      <point x="167" y="375" type="curve" smooth="yes"/>
      <point x="167" y="304"/>
      <point x="148" y="215"/>
      <point x="115" y="113" type="curve"/>
      <point x="252" y="99" type="line"/>
      <point x="288" y="213"/>
      <point x="316" y="302"/>
      <point x="316" y="405" type="curve" smooth="yes"/>
      <point x="316" y="495"/>
      <point x="273" y="574"/>
    </contour>
  </outline>
</glyph>
<glyph name="rvocalicvowelsignmlym" format="2">
  <advance width="291"/>
  <unicode hex="0D43"/>
  <outline>
    <contour>
      <point x="51" y="-334" type="curve" smooth="yes"/>
      <point x="176" y="-334"/>
      <point x="290" y="-271"/>
      <point x="290" y="-122" type="curve" smooth="yes"/>
      <point x="290" y="-50"/>
      <point x="268" y="16"/>
      <point x="233" y="108" type="curve" smooth="yes"/>
      <point x="204" y="185"/>
      <point x="185" y="246"/>
      <point x="185" y="315" type="curve" smooth="yes"/>
      <point x="185" y="395"/>
      <point x="208" y="466"/>
      <point x="263" y="562" type="curve"/>
      <point x="112" y="562" type="line"/>
      <point x="70" y="489"/>
      <point x="38" y="401"/>
      <point x="38" y="305" type="curve" smooth="yes"/>
      <point x="38" y="223"/>
      <point x="63" y="141"/>
      <point x="95" y="65" type="curve" smooth="yes"/>
      <point x="123" y="-2"/>
      <point x="147" y="-76"/>
      <point x="147" y="-122" type="curve" smooth="yes"/>
      <point x="147" y="-203"/>
      <point x="112" y="-229"/>
      <point x="51" y="-229" type="curve" smooth="yes"/>
      <point x="12" y="-229"/>
      <point x="-13" y="-211"/>
      <point x="-13" y="-177" type="curve" smooth="yes"/>
      <point x="-13" y="-141"/>
      <point x="9" y="-124"/>
      <point x="49" y="-124" type="curve" smooth="yes"/>
      <point x="95" y="-124"/>
      <point x="131" y="-137"/>
      <point x="168" y="-168" type="curve"/>
      <point x="200" y="-79" type="line"/>
      <point x="131" y="-32"/>
      <point x="87" y="-23"/>
      <point x="35" y="-23" type="curve" smooth="yes"/>
      <point x="-85" y="-23"/>
      <point x="-151" y="-83"/>
      <point x="-151" y="-175" type="curve" smooth="yes"/>
      <point x="-151" y="-278"/>
      <point x="-78" y="-334"/>
    </contour>
  </outline>
</glyph>
<glyph name="rrvocalicvowelsignmlym" format="2">
  <advance width="291"/>
  <unicode hex="0D44"/>
  <outline>
    <contour>
      <point x="-34" y="-334" type="curve" smooth="yes"/>
      <point x="186" y="-334"/>
      <point x="288" y="-249"/>
      <point x="288" y="-117" type="curve" smooth="yes"/>
      <point x="288" y="-44"/>
      <point x="268" y="16"/>
      <point x="233" y="107" type="curve" smooth="yes"/>
      <point x="204" y="185"/>
      <point x="185" y="246"/>
      <point x="185" y="315" type="curve" smooth="yes"/>
      <point x="185" y="395"/>
      <point x="208" y="466"/>
      <point x="263" y="562" type="curve"/>
      <point x="112" y="562" type="line"/>
      <point x="70" y="489"/>
      <point x="38" y="401"/>
      <point x="38" y="305" type="curve" smooth="yes"/>
      <point x="38" y="217"/>
      <point x="66" y="138"/>
      <point x="94" y="64" type="curve" smooth="yes"/>
      <point x="119" y="-1"/>
      <point x="141" y="-62"/>
      <point x="141" y="-115" type="curve" smooth="yes"/>
      <point x="141" y="-196"/>
      <point x="72" y="-229"/>
      <point x="-33" y="-229" type="curve" smooth="yes"/>
      <point x="-141" y="-229"/>
      <point x="-190" y="-206"/>
      <point x="-190" y="-157" type="curve" smooth="yes"/>
      <point x="-190" y="-135"/>
      <point x="-179" y="-117"/>
      <point x="-156" y="-117" type="curve" smooth="yes"/>
      <point x="-134" y="-117"/>
      <point x="-126" y="-134"/>
      <point x="-126" y="-162" type="curve" smooth="yes"/>
      <point x="-126" y="-178" type="line"/>
      <point x="-36" y="-178" type="line"/>
      <point x="-36" y="-162" type="line" smooth="yes"/>
      <point x="-36" y="-138"/>
      <point x="-33" y="-117"/>
      <point x="-5" y="-117" type="curve" smooth="yes"/>
      <point x="21" y="-117"/>
      <point x="24" y="-136"/>
      <point x="24" y="-163" type="curve" smooth="yes"/>
      <point x="24" y="-178" type="line"/>
      <point x="115" y="-178" type="line"/>
      <point x="115" y="-151" type="line" smooth="yes"/>
      <point x="115" y="-105"/>
      <point x="102" y="-26"/>
      <point x="4" y="-26" type="curve" smooth="yes"/>
      <point x="-38" y="-26"/>
      <point x="-64" y="-46"/>
      <point x="-87" y="-75" type="curve"/>
      <point x="-76" y="-75" type="line"/>
      <point x="-98" y="-47"/>
      <point x="-125" y="-26"/>
      <point x="-174" y="-26" type="curve" smooth="yes"/>
      <point x="-250" y="-26"/>
      <point x="-304" y="-79"/>
      <point x="-304" y="-156" type="curve" smooth="yes"/>
      <point x="-304" y="-273"/>
      <point x="-209" y="-334"/>
    </contour>
  </outline>
</glyph>
<glyph name="evowelsignmlym" format="2">
  <advance width="789"/>
  <unicode hex="0D46"/>
  <outline>
    <contour>
      <point x="268" y="-12" type="curve" smooth="yes"/>
      <point x="395" y="-12"/>
      <point x="469" y="58"/>
      <point x="469" y="174" type="curve" smooth="yes"/>
      <point x="469" y="279"/>
      <point x="405" y="347"/>
      <point x="289" y="347" type="curve" smooth="yes"/>
      <point x="205" y="347"/>
      <point x="141" y="306"/>
      <point x="104" y="267" type="curve"/>
      <point x="116" y="168" type="line"/>
      <point x="161" y="219"/>
      <point x="206" y="247"/>
      <point x="255" y="247" type="curve" smooth="yes"/>
      <point x="304" y="247"/>
      <point x="327" y="217"/>
      <point x="327" y="166" type="curve" smooth="yes"/>
      <point x="327" y="115"/>
      <point x="304" y="88"/>
      <point x="262" y="88" type="curve" smooth="yes"/>
      <point x="211" y="88"/>
      <point x="172" y="125"/>
      <point x="172" y="239" type="curve" smooth="yes"/>
      <point x="172" y="367"/>
      <point x="263" y="467"/>
      <point x="404" y="467" type="curve" smooth="yes"/>
      <point x="535" y="467"/>
      <point x="602" y="391"/>
      <point x="602" y="279" type="curve" smooth="yes"/>
      <point x="602" y="179"/>
      <point x="560" y="124"/>
      <point x="500" y="64" type="curve"/>
      <point x="596" y="-12" type="line"/>
      <point x="687" y="61"/>
      <point x="752" y="145"/>
      <point x="752" y="280" type="curve" smooth="yes"/>
      <point x="752" y="445"/>
      <point x="643" y="574"/>
      <point x="419" y="574" type="curve" smooth="yes"/>
      <point x="185" y="574"/>
      <point x="37" y="439"/>
      <point x="37" y="243" type="curve" smooth="yes"/>
      <point x="37" y="63"/>
      <point x="146" y="-12"/>
    </contour>
  </outline>
</glyph>
<glyph name="eevowelsignmlym" format="2">
  <advance width="654"/>
  <unicode hex="0D47"/>
  <outline>
    <contour>
      <point x="396" y="-12" type="curve" smooth="yes"/>
      <point x="544" y="-12"/>
      <point x="611" y="54"/>
      <point x="611" y="135" type="curve" smooth="yes"/>
      <point x="611" y="228"/>
      <point x="543" y="276"/>
      <point x="446" y="276" type="curve" smooth="yes"/>
      <point x="316" y="276"/>
      <point x="276" y="211"/>
      <point x="276" y="143" type="curve" smooth="yes"/>
      <point x="276" y="112"/>
      <point x="285" y="88"/>
      <point x="293" y="73" type="curve"/>
      <point x="427" y="54" type="line"/>
      <point x="402" y="70"/>
      <point x="388" y="98"/>
      <point x="388" y="130" type="curve" smooth="yes"/>
      <point x="388" y="162"/>
      <point x="404" y="187"/>
      <point x="442" y="187" type="curve" smooth="yes"/>
      <point x="472" y="187"/>
      <point x="486" y="167"/>
      <point x="486" y="141" type="curve" smooth="yes"/>
      <point x="486" y="104"/>
      <point x="458" y="87"/>
      <point x="411" y="87" type="curve" smooth="yes"/>
      <point x="391" y="87"/>
      <point x="371" y="87"/>
      <point x="357" y="89" type="curve"/>
      <point x="242" y="90"/>
      <point x="179" y="171"/>
      <point x="179" y="284" type="curve" smooth="yes"/>
      <point x="179" y="395"/>
      <point x="245" y="473"/>
      <point x="361" y="473" type="curve"/>
      <point x="375" y="475"/>
      <point x="396" y="475"/>
      <point x="419" y="475" type="curve" smooth="yes"/>
      <point x="462" y="475"/>
      <point x="492" y="459"/>
      <point x="492" y="422" type="curve" smooth="yes"/>
      <point x="492" y="396"/>
      <point x="478" y="377"/>
      <point x="443" y="377" type="curve" smooth="yes"/>
      <point x="407" y="377"/>
      <point x="394" y="400"/>
      <point x="394" y="432" type="curve" smooth="yes"/>
      <point x="394" y="465"/>
      <point x="408" y="494"/>
      <point x="433" y="510" type="curve"/>
      <point x="299" y="491" type="line"/>
      <point x="291" y="475"/>
      <point x="282" y="451"/>
      <point x="282" y="423" type="curve" smooth="yes"/>
      <point x="282" y="352"/>
      <point x="322" y="288"/>
      <point x="449" y="288" type="curve" smooth="yes"/>
      <point x="549" y="288"/>
      <point x="617" y="336"/>
      <point x="617" y="426" type="curve" smooth="yes"/>
      <point x="617" y="507"/>
      <point x="558" y="574"/>
      <point x="398" y="574" type="curve" smooth="yes"/>
      <point x="201" y="574"/>
      <point x="34" y="486"/>
      <point x="34" y="285" type="curve" smooth="yes"/>
      <point x="34" y="77"/>
      <point x="196" y="-12"/>
    </contour>
  </outline>
</glyph>
<glyph name="viramamlym" format="2">
  <unicode hex="0D4D"/>
  <outline>
    <contour>
      <point x="-117" y="596" type="curve" smooth="yes"/>
      <point x="31" y="596"/>
      <point x="94" y="663"/>
      <point x="94" y="762" type="curve" smooth="yes"/>
      <point x="94" y="788"/>
      <point x="89" y="814"/>
      <point x="83" y="831" type="curve"/>
      <point x="-41" y="809" type="line"/>
      <point x="-38" y="797"/>
      <point x="-36" y="781"/>
      <point x="-36" y="769" type="curve" smooth="yes"/>
      <point x="-36" y="711"/>
      <point x="-70" y="695"/>
      <point x="-115" y="695" type="curve" smooth="yes"/>
      <point x="-159" y="695"/>
      <point x="-192" y="711"/>
      <point x="-192" y="769" type="curve" smooth="yes"/>
      <point x="-192" y="781"/>
      <point x="-190" y="797"/>
      <point x="-186" y="809" type="curve"/>
      <point x="-315" y="831" type="line"/>
      <point x="-323" y="814"/>
      <point x="-327" y="788"/>
      <point x="-327" y="762" type="curve" smooth="yes"/>
      <point x="-327" y="663"/>
      <point x="-264" y="596"/>
    </contour>
  </outline>
</glyph>
<glyph name="rephmlym" format="2">
  <unicode hex="0D4E"/>
  <outline>
    <contour>
      <point x="-190" y="829" type="line"/>
      <point x="-351" y="829" type="line"/>
      <point x="-342" y="637" type="line"/>
      <point x="-200" y="637" type="line"/>
    </contour>
  </outline>
</glyph>
<glyph name="uni0D4F" format="2">
  <advance width="1353"/>
  <unicode hex="0D4F"/>
  <outline>
    <contour>
      <point x="636" y="574" type="curve" smooth="yes"/>
      <point x="433" y="574"/>
      <point x="274" y="457"/>
      <point x="274" y="242" type="curve" smooth="yes"/>
      <point x="274" y="62"/>
      <point x="383" y="-12"/>
      <point x="504" y="-12" type="curve" smooth="yes"/>
      <point x="632" y="-12"/>
      <point x="706" y="58"/>
      <point x="706" y="174" type="curve" smooth="yes"/>
      <point x="706" y="279"/>
      <point x="642" y="347"/>
      <point x="528" y="347" type="curve" smooth="yes"/>
      <point x="445" y="347"/>
      <point x="378" y="306"/>
      <point x="341" y="267" type="curve"/>
      <point x="353" y="168" type="line"/>
      <point x="398" y="219"/>
      <point x="443" y="247"/>
      <point x="492" y="247" type="curve" smooth="yes"/>
      <point x="541" y="247"/>
      <point x="564" y="217"/>
      <point x="564" y="167" type="curve" smooth="yes"/>
      <point x="564" y="115"/>
      <point x="541" y="88"/>
      <point x="499" y="88" type="curve" smooth="yes"/>
      <point x="448" y="88"/>
      <point x="409" y="125"/>
      <point x="409" y="237" type="curve" smooth="yes"/>
      <point x="409" y="240" type="line" smooth="yes"/>
      <point x="409" y="390"/>
      <point x="505" y="468"/>
      <point x="633" y="468" type="curve" smooth="yes"/>
      <point x="691" y="468"/>
      <point x="723" y="455"/>
      <point x="748" y="433" type="curve" smooth="yes"/>
      <point x="776" y="409"/>
      <point x="793" y="371"/>
      <point x="793" y="268" type="curve" smooth="yes"/>
      <point x="793" y="0" type="line"/>
      <point x="940" y="0" type="line"/>
      <point x="940" y="321" type="line" smooth="yes"/>
      <point x="940" y="378"/>
      <point x="945" y="411"/>
      <point x="964" y="435" type="curve" smooth="yes"/>
      <point x="979" y="453"/>
      <point x="1001" y="468"/>
      <point x="1040" y="468" type="curve" smooth="yes"/>
      <point x="1115" y="468"/>
      <point x="1167" y="383"/>
      <point x="1167" y="244" type="curve" smooth="yes"/>
      <point x="1167" y="15"/>
      <point x="1066" y="-132"/>
      <point x="675" y="-132" type="curve" smooth="yes"/>
      <point x="254" y="-132"/>
      <point x="180" y="33"/>
      <point x="180" y="233" type="curve" smooth="yes"/>
      <point x="180" y="319"/>
      <point x="198" y="412"/>
      <point x="243" y="500" type="curve"/>
      <point x="124" y="550" type="line"/>
      <point x="70" y="446"/>
      <point x="41" y="336"/>
      <point x="41" y="234" type="curve" smooth="yes"/>
      <point x="41" y="-17"/>
      <point x="166" y="-245"/>
      <point x="675" y="-245" type="curve" smooth="yes"/>
      <point x="1122" y="-245"/>
      <point x="1316" y="-75"/>
      <point x="1316" y="237" type="curve" smooth="yes"/>
      <point x="1316" y="441"/>
      <point x="1227" y="574"/>
      <point x="1051" y="574" type="curve" smooth="yes"/>
      <point x="968" y="574"/>
      <point x="904" y="549"/>
      <point x="858" y="494" type="curve"/>
      <point x="895" y="473" type="line"/>
      <point x="831" y="540"/>
      <point x="756" y="574"/>
    </contour>
  </outline>
</glyph>
<glyph name="machillumlym" format="2">
  <advance width="707"/>
  <unicode hex="0D54"/>
  <outline>
    <contour>
      <point x="215" y="800" type="curve" smooth="yes"/>
      <point x="160" y="800"/>
      <point x="115" y="792"/>
      <point x="83" y="782" type="curve"/>
      <point x="109" y="686" type="line"/>
      <point x="124" y="690"/>
      <point x="148" y="695"/>
      <point x="173" y="695" type="curve" smooth="yes"/>
      <point x="197" y="695"/>
      <point x="213" y="689"/>
      <point x="223" y="679" type="curve" smooth="yes"/>
      <point x="234" y="668"/>
      <point x="241" y="651"/>
      <point x="241" y="610" type="curve" smooth="yes"/>
      <point x="241" y="522" type="line" smooth="yes"/>
      <point x="241" y="412"/>
      <point x="265" y="317"/>
      <point x="386" y="211" type="curve"/>
      <point x="420" y="178" type="line"/>
      <point x="458" y="143"/>
      <point x="504" y="104"/>
      <point x="559" y="62" type="curve"/>
      <point x="554" y="99" type="line"/>
      <point x="526" y="104"/>
      <point x="482" y="105"/>
      <point x="460" y="105" type="curve" smooth="yes"/>
      <point x="431" y="105" type="line" smooth="yes"/>
      <point x="416" y="105"/>
      <point x="381" y="103"/>
      <point x="342" y="100" type="curve"/>
      <point x="325" y="66" type="line"/>
      <point x="382" y="100"/>
      <point x="435" y="138"/>
      <point x="481" y="177" type="curve"/>
      <point x="510" y="197" type="line"/>
      <point x="559" y="243"/>
      <point x="600" y="300"/>
      <point x="600" y="374" type="curve" smooth="yes"/>
      <point x="600" y="502"/>
      <point x="500" y="573"/>
      <point x="369" y="573" type="curve" smooth="yes"/>
      <point x="280" y="573"/>
      <point x="200" y="543"/>
      <point x="145" y="498" type="curve" smooth="yes"/>
      <point x="83" y="447"/>
      <point x="56" y="372"/>
      <point x="56" y="257" type="curve" smooth="yes"/>
      <point x="56" y="0" type="line"/>
      <point x="640" y="0" type="line"/>
      <point x="689" y="98" type="line"/>
      <point x="606" y="164"/>
      <point x="544" y="217"/>
      <point x="499" y="263" type="curve"/>
      <point x="473" y="289" type="line"/>
      <point x="380" y="373"/>
      <point x="375" y="439"/>
      <point x="375" y="524" type="curve" smooth="yes"/>
      <point x="375" y="625" type="line" smooth="yes"/>
      <point x="375" y="688"/>
      <point x="364" y="729"/>
      <point x="332" y="761" type="curve" smooth="yes"/>
      <point x="310" y="783"/>
      <point x="270" y="800"/>
    </contour>
    <contour>
      <point x="203" y="68" type="line"/>
      <point x="203" y="273" type="line" smooth="yes"/>
      <point x="203" y="335"/>
      <point x="212" y="377"/>
      <point x="229" y="408" type="curve" smooth="yes"/>
      <point x="249" y="445"/>
      <point x="286" y="473"/>
      <point x="346" y="473" type="curve" smooth="yes"/>
      <point x="409" y="473"/>
      <point x="458" y="448"/>
      <point x="458" y="384" type="curve" smooth="yes"/>
      <point x="458" y="347"/>
      <point x="446" y="326"/>
      <point x="428" y="296" type="curve"/>
      <point x="399" y="272" type="line"/>
      <point x="348" y="208"/>
      <point x="264" y="144"/>
      <point x="163" y="75" type="curve"/>
    </contour>
  </outline>
</glyph>
<glyph name="yachillumlym" format="2">
  <advance width="1143"/>
  <unicode hex="0D55"/>
  <outline>
    <contour>
      <point x="753" y="-12" type="curve" smooth="yes"/>
      <point x="1029" y="-12"/>
      <point x="1105" y="134"/>
      <point x="1105" y="261" type="curve" smooth="yes"/>
      <point x="1105" y="356"/>
      <point x="1060" y="432"/>
      <point x="992" y="520" type="curve" smooth="yes"/>
      <point x="935" y="594"/>
      <point x="921" y="615"/>
      <point x="921" y="649" type="curve" smooth="yes"/>
      <point x="921" y="679"/>
      <point x="939" y="695"/>
      <point x="978" y="695" type="curve" smooth="yes"/>
      <point x="1007" y="695"/>
      <point x="1029" y="690"/>
      <point x="1046" y="684" type="curve"/>
      <point x="1072" y="784" type="line"/>
      <point x="1049" y="790"/>
      <point x="1008" y="800"/>
      <point x="944" y="800" type="curve" smooth="yes"/>
      <point x="816" y="800"/>
      <point x="775" y="728"/>
      <point x="775" y="660" type="curve" smooth="yes"/>
      <point x="775" y="592"/>
      <point x="807" y="542"/>
      <point x="862" y="468" type="curve" smooth="yes"/>
      <point x="928" y="379"/>
      <point x="956" y="326"/>
      <point x="956" y="259" type="curve" smooth="yes"/>
      <point x="956" y="161"/>
      <point x="890" y="90"/>
      <point x="756" y="90" type="curve" smooth="yes"/>
      <point x="697" y="90"/>
      <point x="665" y="95"/>
      <point x="644" y="102" type="curve" smooth="yes"/>
      <point x="631" y="106"/>
      <point x="625" y="101"/>
      <point x="612" y="106" type="curve"/>
      <point x="536" y="143"/>
      <point x="484" y="226"/>
      <point x="484" y="332" type="curve" smooth="yes"/>
      <point x="484" y="426"/>
      <point x="523" y="469"/>
      <point x="582" y="469" type="curve" smooth="yes"/>
      <point x="629" y="469"/>
      <point x="677" y="435"/>
      <point x="677" y="333" type="curve" smooth="yes"/>
      <point x="677" y="221"/>
      <point x="616" y="139"/>
      <point x="550" y="109" type="curve" smooth="yes"/>
      <point x="538" y="104"/>
      <point x="524" y="104"/>
      <point x="510" y="100" type="curve" smooth="yes"/>
      <point x="484" y="94"/>
      <point x="456" y="90"/>
      <point x="421" y="90" type="curve" smooth="yes"/>
      <point x="274" y="90"/>
      <point x="185" y="187"/>
      <point x="185" y="332" type="curve" smooth="yes"/>
      <point x="185" y="415"/>
      <point x="221" y="469"/>
      <point x="289" y="469" type="curve" smooth="yes"/>
      <point x="328" y="469"/>
      <point x="357" y="449"/>
      <point x="381" y="409" type="curve"/>
      <point x="498" y="472" type="line"/>
      <point x="453" y="544"/>
      <point x="377" y="574"/>
      <point x="290" y="574" type="curve" smooth="yes"/>
      <point x="122" y="574"/>
      <point x="37" y="475"/>
      <point x="37" y="333" type="curve" smooth="yes"/>
      <point x="37" y="124"/>
      <point x="167" y="-12"/>
      <point x="412" y="-12" type="curve" smooth="yes"/>
      <point x="496" y="-12"/>
      <point x="566" y="3"/>
      <point x="627" y="34" type="curve"/>
      <point x="643" y="41"/>
      <point x="650" y="45"/>
      <point x="664" y="54" type="curve" smooth="yes"/>
      <point x="760" y="114"/>
      <point x="826" y="209"/>
      <point x="826" y="333" type="curve" smooth="yes"/>
      <point x="826" y="495"/>
      <point x="735" y="574"/>
      <point x="583" y="574" type="curve" smooth="yes"/>
      <point x="502" y="574"/>
      <point x="414" y="548"/>
      <point x="370" y="458" type="curve"/>
      <point x="360" y="450" type="line"/>
      <point x="345" y="419"/>
      <point x="336" y="382"/>
      <point x="336" y="333" type="curve" smooth="yes"/>
      <point x="336" y="228"/>
      <point x="381" y="118"/>
      <point x="507" y="44" type="curve" smooth="yes"/>
      <point x="515" y="39"/>
      <point x="532" y="33"/>
      <point x="540" y="29" type="curve" smooth="yes"/>
      <point x="609" y="-2"/>
      <point x="656" y="-12"/>
    </contour>
  </outline>
</glyph>
<glyph name="lllachillumlym" format="2">
  <advance width="814"/>
  <unicode hex="0D56"/>
  <outline>
    <contour>
      <point x="277" y="177" type="curve" smooth="yes"/>
      <point x="277" y="232"/>
      <point x="284" y="274"/>
      <point x="357" y="396" type="curve" smooth="yes"/>
      <point x="443" y="539"/>
      <point x="470" y="592"/>
      <point x="470" y="665" type="curve" smooth="yes"/>
      <point x="470" y="721"/>
      <point x="440" y="800"/>
      <point x="306" y="800" type="curve" smooth="yes"/>
      <point x="252" y="800"/>
      <point x="198" y="792"/>
      <point x="166" y="782" type="curve"/>
      <point x="192" y="686" type="line"/>
      <point x="207" y="690"/>
      <point x="232" y="695"/>
      <point x="256" y="695" type="curve" smooth="yes"/>
      <point x="305" y="695"/>
      <point x="324" y="674"/>
      <point x="324" y="639" type="curve" smooth="yes"/>
      <point x="324" y="592"/>
      <point x="304" y="552"/>
      <point x="253" y="461" type="curve" smooth="yes"/>
      <point x="202" y="369"/>
      <point x="145" y="263"/>
      <point x="145" y="175" type="curve" smooth="yes"/>
      <point x="145" y="45"/>
      <point x="236" y="-12"/>
      <point x="370" y="-12" type="curve" smooth="yes"/>
      <point x="548" y="-12"/>
      <point x="588" y="62"/>
      <point x="588" y="136" type="curve" smooth="yes"/>
      <point x="588" y="240"/>
      <point x="500" y="309"/>
      <point x="500" y="402" type="curve" smooth="yes"/>
      <point x="500" y="443"/>
      <point x="523" y="475"/>
      <point x="566" y="475" type="curve" smooth="yes"/>
      <point x="618" y="475"/>
      <point x="635" y="436"/>
      <point x="635" y="396" type="curve" smooth="yes"/>
      <point x="635" y="313"/>
      <point x="580" y="250"/>
      <point x="456" y="250" type="curve" smooth="yes"/>
      <point x="403" y="250" type="line" smooth="yes"/>
      <point x="357" y="250"/>
      <point x="300" y="262"/>
      <point x="263" y="281" type="curve"/>
      <point x="211" y="303" type="line"/>
      <point x="195" y="325"/>
      <point x="181" y="365"/>
      <point x="181" y="405" type="curve" smooth="yes"/>
      <point x="181" y="448"/>
      <point x="191" y="479"/>
      <point x="210" y="518" type="curve"/>
      <point x="94" y="575" type="line"/>
      <point x="52" y="517"/>
      <point x="34" y="458"/>
      <point x="34" y="403" type="curve" smooth="yes"/>
      <point x="34" y="300"/>
      <point x="95" y="223"/>
      <point x="194" y="186" type="curve"/>
      <point x="238" y="180" type="line"/>
      <point x="293" y="161"/>
      <point x="348" y="154"/>
      <point x="408" y="154" type="curve" smooth="yes"/>
      <point x="457" y="154" type="line" smooth="yes"/>
      <point x="678" y="154"/>
      <point x="781" y="257"/>
      <point x="781" y="392" type="curve" smooth="yes"/>
      <point x="781" y="482"/>
      <point x="723" y="574"/>
      <point x="565" y="574" type="curve" smooth="yes"/>
      <point x="446" y="574"/>
      <point x="369" y="500"/>
      <point x="369" y="402" type="curve" smooth="yes"/>
      <point x="369" y="286"/>
      <point x="448" y="226"/>
      <point x="448" y="155" type="curve" smooth="yes"/>
      <point x="448" y="116"/>
      <point x="428" y="94"/>
      <point x="370" y="94" type="curve" smooth="yes"/>
      <point x="307" y="94"/>
      <point x="277" y="122"/>
    </contour>
  </outline>
</glyph>
<glyph name="aulengthmarkmlym" format="2">
  <advance width="828"/>
  <unicode hex="0D57"/>
  <outline>
    <contour>
      <point x="561" y="574" type="curve" smooth="yes"/>
      <point x="493" y="574"/>
      <point x="440" y="556"/>
      <point x="399" y="511" type="curve"/>
      <point x="411" y="509" type="line"/>
      <point x="375" y="549"/>
      <point x="324" y="574"/>
      <point x="246" y="574" type="curve" smooth="yes"/>
      <point x="98" y="574"/>
      <point x="31" y="482"/>
      <point x="31" y="379" type="curve" smooth="yes"/>
      <point x="31" y="346"/>
      <point x="38" y="295"/>
      <point x="51" y="258" type="curve"/>
      <point x="193" y="289" type="line"/>
      <point x="185" y="311"/>
      <point x="178" y="338"/>
      <point x="178" y="380" type="curve" smooth="yes"/>
      <point x="178" y="424"/>
      <point x="204" y="469"/>
      <point x="262" y="469" type="curve" smooth="yes"/>
      <point x="285" y="469"/>
      <point x="307" y="460"/>
      <point x="320" y="438" type="curve" smooth="yes"/>
      <point x="331" y="421"/>
      <point x="334" y="390"/>
      <point x="334" y="333" type="curve" smooth="yes"/>
      <point x="334" y="262" type="line"/>
      <point x="480" y="262" type="line"/>
      <point x="480" y="355" type="line" smooth="yes"/>
      <point x="480" y="400"/>
      <point x="483" y="419"/>
      <point x="492" y="437" type="curve" smooth="yes"/>
      <point x="503" y="457"/>
      <point x="521" y="469"/>
      <point x="550" y="469" type="curve" smooth="yes"/>
      <point x="605" y="469"/>
      <point x="643" y="418"/>
      <point x="643" y="305" type="curve" smooth="yes"/>
      <point x="643" y="180"/>
      <point x="598" y="95"/>
      <point x="466" y="95" type="curve" smooth="yes"/>
      <point x="393" y="95"/>
      <point x="343" y="112"/>
      <point x="281" y="144" type="curve"/>
      <point x="227" y="44" type="line"/>
      <point x="298" y="7"/>
      <point x="373" y="-12"/>
      <point x="478" y="-12" type="curve" smooth="yes"/>
      <point x="683" y="-12"/>
      <point x="792" y="107"/>
      <point x="792" y="309" type="curve" smooth="yes"/>
      <point x="792" y="467"/>
      <point x="706" y="574"/>
    </contour>
  </outline>
</glyph>
<glyph name="uni0D58" format="2">
  <advance width="1338"/>
  <unicode hex="0D58"/>
  <outline>
    <contour>
      <point x="659" y="-12" type="curve"/>
      <point x="742" y="-12"/>
      <point x="792" y="14"/>
      <point x="837" y="65" type="curve"/>
      <point x="909" y="259" type="line"/>
      <point x="909" y="562" type="line"/>
      <point x="762" y="562" type="line"/>
      <point x="762" y="250" type="line" smooth="yes"/>
      <point x="762" y="183"/>
      <point x="754" y="148"/>
      <point x="733" y="123" type="curve" smooth="yes"/>
      <point x="717" y="105"/>
      <point x="693" y="94"/>
      <point x="659" y="94" type="curve" smooth="yes"/>
      <point x="629" y="94"/>
      <point x="602" y="106"/>
      <point x="584" y="126" type="curve"/>
      <point x="564" y="151"/>
      <point x="555" y="182"/>
      <point x="555" y="260" type="curve" smooth="yes"/>
      <point x="555" y="562" type="line"/>
      <point x="408" y="562" type="line"/>
      <point x="408" y="238" type="line" smooth="yes"/>
      <point x="408" y="178"/>
      <point x="402" y="150"/>
      <point x="386" y="126" type="curve" smooth="yes"/>
      <point x="373" y="107"/>
      <point x="350" y="94"/>
      <point x="314" y="94" type="curve" smooth="yes"/>
      <point x="252" y="94"/>
      <point x="186" y="146"/>
      <point x="186" y="268" type="curve" smooth="yes"/>
      <point x="186" y="350"/>
      <point x="212" y="421"/>
      <point x="282" y="498" type="curve"/>
      <point x="178" y="574" type="line"/>
      <point x="87" y="486"/>
      <point x="37" y="394"/>
      <point x="37" y="267" type="curve" smooth="yes"/>
      <point x="37" y="107"/>
      <point x="136" y="-12"/>
      <point x="307" y="-12" type="curve" smooth="yes"/>
      <point x="394" y="-12"/>
      <point x="438" y="13"/>
      <point x="489" y="64" type="curve"/>
      <point x="476" y="67" type="line"/>
      <point x="527" y="13"/>
      <point x="583" y="-12"/>
    </contour>
    <contour>
      <point x="1023" y="-12" type="curve"/>
      <point x="1195" y="-12"/>
      <point x="1299" y="107"/>
      <point x="1299" y="327" type="curve" smooth="yes"/>
      <point x="1299" y="597"/>
      <point x="1156" y="849"/>
      <point x="700" y="849" type="curve" smooth="yes"/>
      <point x="590" y="849"/>
      <point x="518" y="840"/>
      <point x="420" y="818" type="curve"/>
      <point x="439" y="708" type="line"/>
      <point x="503" y="723"/>
      <point x="598" y="738"/>
      <point x="700" y="738" type="curve" smooth="yes"/>
      <point x="1053" y="738"/>
      <point x="1149" y="549"/>
      <point x="1149" y="322" type="curve" smooth="yes"/>
      <point x="1149" y="163"/>
      <point x="1089" y="94"/>
      <point x="1012" y="94" type="curve" smooth="yes"/>
      <point x="975" y="94"/>
      <point x="950" y="105"/>
      <point x="933" y="127" type="curve" smooth="yes"/>
      <point x="913" y="153"/>
      <point x="909" y="183"/>
      <point x="909" y="259" type="curve" smooth="yes"/>
      <point x="909" y="552" type="line"/>
      <point x="772" y="552" type="line"/>
      <point x="772" y="250" type="line"/>
      <point x="828" y="66" type="line"/>
      <point x="881" y="11"/>
      <point x="936" y="-12"/>
    </contour>
  </outline>
</glyph>
<glyph name="uni0D59" format="2">
  <advance width="1247"/>
  <unicode hex="0D59"/>
  <outline>
    <contour>
      <point x="395" y="574" type="curve" smooth="yes"/>
      <point x="138" y="574"/>
      <point x="37" y="432"/>
      <point x="37" y="281" type="curve" smooth="yes"/>
      <point x="37" y="148"/>
      <point x="102" y="61"/>
      <point x="191" y="-12" type="curve"/>
      <point x="289" y="64" type="line"/>
      <point x="222" y="129"/>
      <point x="187" y="188"/>
      <point x="187" y="281" type="curve" smooth="yes"/>
      <point x="187" y="393"/>
      <point x="258" y="467"/>
      <point x="410" y="467" type="curve" smooth="yes"/>
      <point x="539" y="467"/>
      <point x="613" y="403"/>
      <point x="627" y="329" type="curve"/>
      <point x="634" y="298" type="line"/>
      <point x="636" y="284"/>
      <point x="638" y="258"/>
      <point x="638" y="239" type="curve" smooth="yes"/>
      <point x="638" y="137"/>
      <point x="603" y="93"/>
      <point x="547" y="93" type="curve" smooth="yes"/>
      <point x="494" y="93"/>
      <point x="473" y="125"/>
      <point x="473" y="163" type="curve" smooth="yes"/>
      <point x="473" y="192"/>
      <point x="484" y="209"/>
      <point x="502" y="221" type="curve" smooth="yes"/>
      <point x="529" y="238"/>
      <point x="559" y="242"/>
      <point x="628" y="242" type="curve" smooth="yes"/>
      <point x="903" y="242" type="line"/>
      <point x="903" y="347" type="line"/>
      <point x="621" y="347" type="line" smooth="yes"/>
      <point x="507" y="347"/>
      <point x="450" y="336"/>
      <point x="404" y="306" type="curve" smooth="yes"/>
      <point x="358" y="276"/>
      <point x="329" y="227"/>
      <point x="329" y="161" type="curve" smooth="yes"/>
      <point x="329" y="73"/>
      <point x="384" y="-12"/>
      <point x="540" y="-12" type="curve" smooth="yes"/>
      <point x="690" y="-12"/>
      <point x="782" y="64"/>
      <point x="782" y="236" type="curve" smooth="yes"/>
      <point x="782" y="424"/>
      <point x="656" y="574"/>
    </contour>
    <contour>
      <point x="1031" y="562" type="curve" smooth="yes"/>
      <point x="918" y="562"/>
      <point x="836" y="509"/>
      <point x="836" y="405" type="curve" smooth="yes"/>
      <point x="836" y="366"/>
      <point x="853" y="319"/>
      <point x="874" y="293" type="curve"/>
      <point x="1007" y="298" type="line"/>
      <point x="982" y="324"/>
      <point x="966" y="350"/>
      <point x="966" y="390" type="curve" smooth="yes"/>
      <point x="966" y="432"/>
      <point x="989" y="459"/>
      <point x="1033" y="459" type="curve" smooth="yes"/>
      <point x="1072" y="459"/>
      <point x="1093" y="437"/>
      <point x="1093" y="406" type="curve" smooth="yes"/>
      <point x="1093" y="377"/>
      <point x="1082" y="365"/>
      <point x="1061" y="356" type="curve" smooth="yes"/>
      <point x="1048" y="351"/>
      <point x="1027" y="347"/>
      <point x="980" y="347" type="curve" smooth="yes"/>
      <point x="727" y="347" type="line"/>
      <point x="727" y="242" type="line"/>
      <point x="979" y="242" type="line" smooth="yes"/>
      <point x="1075" y="242"/>
      <point x="1126" y="252"/>
      <point x="1167" y="281" type="curve" smooth="yes"/>
      <point x="1204" y="307"/>
      <point x="1228" y="346"/>
      <point x="1228" y="406" type="curve" smooth="yes"/>
      <point x="1228" y="488"/>
      <point x="1170" y="562"/>
    </contour>
  </outline>
</glyph>
